# Blender v2.92.0 OBJ File: ''
# www.blender.org
mtllib model_normalized.mtl
o model_normalized.007
v 0.115986 -0.214764 0.163727
v 0.178838 0.255211 0.081836
v 0.178838 -0.214764 0.081836
v 0.115986 0.255211 0.163727
v 0.192323 -0.214764 -0.020510
v 0.068298 -0.214764 0.183474
v 0.220375 0.255211 0.099046
v 0.192323 0.255211 -0.020510
v -0.081736 -0.214764 0.189736
v 0.020610 -0.214764 0.203222
v 0.068298 0.255211 0.183474
v 0.026474 0.255211 0.247799
v 0.236900 0.255211 -0.026374
v 0.172576 -0.214764 -0.068199
v -0.163627 -0.214764 0.126885
v 0.020610 0.255211 0.203222
v 0.084913 0.255211 0.223600
v 0.220375 -0.280560 0.099046
v 0.212701 0.255211 -0.084814
v 0.172576 0.255211 -0.068199
v -0.163627 0.255211 0.126885
v 0.143353 0.255211 0.199401
v 0.084913 -0.280560 0.223600
v -0.098947 0.255211 0.231273
v 0.236900 -0.280560 -0.026374
v 0.152828 -0.214764 -0.115887
v -0.183376 -0.214764 0.079197
v -0.081736 0.255211 0.189736
v -0.183376 0.255211 0.079197
v 0.143353 -0.280560 0.199401
v 0.026474 -0.280560 0.247799
v -0.199303 -0.280560 0.154252
v 0.212701 -0.280560 -0.084814
v 0.188502 0.255211 -0.143254
v 0.152828 0.255211 -0.115887
v -0.199303 0.255211 0.154252
v -0.223499 0.255211 0.095812
v -0.098947 -0.280560 0.231273
v -0.223499 -0.280560 0.095812
v 0.070937 -0.214764 -0.178739
v -0.203121 -0.214764 0.031508
v -0.203121 0.255211 0.031508
v -0.247699 -0.280560 0.037372
v 0.188502 -0.280560 -0.143254
v 0.070937 0.255211 -0.178739
v -0.247699 0.255211 0.037372
v 0.088147 0.255211 -0.220276
v -0.031409 0.255211 -0.192223
v -0.189639 -0.214764 -0.070838
v -0.189639 0.255211 -0.070838
v -0.231173 -0.280560 -0.088048
v 0.088147 -0.280560 -0.220276
v -0.031409 -0.214764 -0.192223
v -0.231173 0.255211 -0.088048
v 0.066510 -0.225686 -0.223127
v -0.037273 0.255211 -0.236801
v -0.079097 0.255211 -0.172476
v -0.126786 -0.214764 -0.152729
v -0.126786 0.255211 -0.152729
v -0.037273 -0.280560 -0.236801
v 0.066510 0.206948 -0.223127
v -0.079097 -0.214764 -0.172476
v -0.154155 0.255211 -0.188402
v -0.154155 -0.280560 -0.188402
v -0.015636 -0.225686 -0.233950
v 0.066510 -0.142830 -0.223127
v -0.015636 0.206948 -0.233950
v -0.095711 -0.280560 -0.212602
v -0.015636 -0.142830 -0.233950
v 0.086150 -0.225686 -0.372186
v 0.066510 0.124092 -0.223127
v 0.086150 0.206948 -0.372186
v -0.095711 0.255211 -0.212602
v -0.015636 0.124092 -0.233950
v 0.011996 -0.170614 -0.443658
v 0.004005 -0.225686 -0.383011
v 0.094141 -0.170614 -0.432836
v 0.094141 0.145773 -0.432836
v 0.004005 0.206948 -0.383011
v -0.002384 -0.142830 -0.334524
v 0.079761 -0.142830 -0.323698
v 0.079761 0.124092 -0.323698
v 0.011996 0.145773 -0.443658
v -0.002384 0.124092 -0.334524
v 0.001869 -0.112535 -0.366798
v 0.084014 -0.112535 -0.355976
v 0.084014 0.091537 -0.355976
v 0.001869 0.091537 -0.366798
vt 0.103413 0.020753
vt 0.076300 0.144191
vt 0.076300 0.020753
vt 0.103413 0.144191
vt -0.106684 0.144191
vt -0.133797 0.020753
vt -0.106684 0.020753
vt 0.261081 0.238839
vt 0.247525 0.275876
vt 0.247525 0.262320
vt 0.275876 0.020753
vt 0.262320 0.144191
vt 0.262320 0.020753
vt 0.247525 0.262320
vt 0.252731 0.230489
vt 0.261081 0.238839
vt -0.133797 0.144191
vt 0.261081 0.312913
vt 0.284562 0.225282
vt 0.247525 0.289433
vt 0.275876 0.144191
vt 0.236118 0.292489
vt 0.281506 0.213876
vt 0.284562 0.225282
vt -0.284562 0.144191
vt -0.298119 0.020753
vt -0.284562 0.020753
vt 0.284562 0.326470
vt 0.289433 0.020753
vt 0.247525 0.289433
vt 0.247525 0.275876
vt 0.236118 0.275876
vt 0.103627 0.003472
vt 0.136853 0.144191
vt 0.103627 0.144191
vt 0.298119 0.213876
vt -0.298119 0.144191
vt 0.298119 0.225282
vt 0.401532 0.020753
vt 0.374418 0.144191
vt 0.374418 0.020753
vt 0.409673 0.144191
vt 0.382560 0.020753
vt 0.409673 0.020753
vt 0.289433 0.144191
vt 0.236118 0.259263
vt -0.292489 0.144191
vt -0.275876 0.003472
vt -0.275876 0.144191
vt 0.252731 0.321263
vt 0.136853 0.003472
vt -0.106469 0.144191
vt -0.073243 0.003472
vt -0.073243 0.144191
vt 0.281506 0.003472
vt 0.298119 0.144191
vt 0.281506 0.144191
vt 0.298119 0.225282
vt -0.311675 0.020753
vt 0.298119 0.326470
vt 0.401532 0.144191
vt 0.382560 0.144191
vt 0.284562 0.020753
vt 0.298119 0.144191
vt 0.284562 0.144191
vt -0.259263 0.003472
vt -0.259263 0.144191
vt -0.292489 0.003472
vt 0.261081 0.312913
vt -0.404588 0.144191
vt -0.371362 0.003472
vt -0.371362 0.144191
vt -0.252731 0.230489
vt -0.281506 0.337876
vt -0.281506 0.213876
vt -0.106469 0.003472
vt 0.298119 0.003472
vt 0.314732 0.213876
vt -0.311675 0.144191
vt 0.311675 0.225282
vt 0.298119 0.020753
vt 0.281506 0.337876
vt 0.284562 0.326470
vt 0.298119 0.337876
vt 0.298119 0.326470
vt -0.252731 0.321263
vt -0.236118 0.275876
vt -0.236118 0.292489
vt -0.236118 0.259263
vt -0.404588 0.003472
vt -0.298119 0.337876
vt -0.298119 0.213876
vt 0.314732 0.144191
vt 0.311675 0.225282
vt -0.382560 0.144191
vt -0.409673 0.020753
vt -0.382560 0.020753
vt 0.311675 0.326470
vt 0.311675 0.144191
vt 0.311675 0.326470
vt -0.412729 0.003472
vt -0.379503 0.144191
vt -0.412729 0.144191
vt -0.379503 0.003472
vt -0.281506 0.144191
vt -0.298119 0.003472
vt -0.281506 0.003472
vt -0.314732 0.337876
vt 0.314732 0.003472
vt 0.335156 0.238839
vt -0.409673 0.144191
vt 0.335156 0.238839
vt 0.311675 0.020753
vt -0.298119 0.144191
vt 0.314732 0.337876
vt -0.314732 0.003472
vt -0.314732 0.213876
vt 0.379503 0.003472
vt 0.412729 0.144191
vt 0.379503 0.144191
vt 0.343506 0.230489
vt -0.401532 0.144191
vt -0.374418 0.020753
vt -0.374418 0.144191
vt 0.335156 0.312913
vt 0.106684 0.020753
vt 0.133797 0.144191
vt 0.106684 0.144191
vt 0.335156 0.312913
vt -0.314732 0.144191
vt -0.343506 0.321263
vt 0.412729 0.003472
vt 0.348712 0.262320
vt -0.401532 0.020753
vt 0.348712 0.262320
vt 0.133797 0.020753
vt 0.343506 0.321263
vt -0.103627 0.144191
vt -0.136853 0.003472
vt -0.103627 0.003472
vt -0.343506 0.230489
vt 0.371362 0.003472
vt 0.377094 0.017885
vt 0.371362 0.144191
vt 0.360119 0.259263
vt -0.275876 0.144191
vt -0.262320 0.020753
vt -0.262320 0.144191
vt 0.348712 0.289433
vt -0.076300 0.020753
vt -0.103413 0.144191
vt -0.103413 0.020753
vt 0.348712 0.289433
vt -0.136853 0.144191
vt -0.360119 0.259263
vt 0.404588 0.003472
vt 0.377094 0.131514
vt 0.404588 0.144191
vt 0.348712 0.275876
vt -0.275876 0.020753
vt 0.348712 0.275876
vt -0.076300 0.144191
vt 0.360119 0.292489
vt 0.073243 0.144191
vt 0.106469 0.003472
vt 0.106469 0.144191
vt -0.360119 0.292489
vt 0.398856 0.017885
vt 0.377094 0.039647
vt 0.398856 0.131514
vt -0.289433 0.144191
vt -0.289433 0.020753
vt 0.073243 0.003472
vt -0.360119 0.275876
vt 0.398856 0.039647
vt -0.357253 0.254299
vt -0.380570 0.215709
vt -0.346372 0.235453
vt 0.221729 0.017885
vt 0.182241 0.039647
vt 0.182241 0.017885
vt 0.377094 0.109753
vt 0.380570 0.215709
vt 0.357253 0.254299
vt 0.346372 0.235453
vt 0.360119 0.275876
vt 0.275876 0.144191
vt 0.292489 0.003472
vt 0.292489 0.144191
vt 0.275876 0.003472
vt 0.259263 0.144191
vt 0.259263 0.003472
vt 0.398856 0.109753
vt -0.237796 0.032349
vt -0.182241 0.017885
vt -0.182241 0.039647
vt -0.391451 0.234555
vt 0.237796 0.032349
vt 0.182241 0.109753
vt 0.237796 0.115447
vt 0.182241 0.131514
vt 0.391451 0.234555
vt 0.221729 0.131514
vt -0.221729 0.017885
vt -0.208884 0.039647
vt 0.398856 0.176756
vt 0.377094 0.198375
vt 0.377094 0.176756
vt 0.208884 0.039647
vt 0.369446 0.222131
vt 0.357253 0.254299
vt 0.346372 0.235453
vt 0.208884 0.109753
vt 0.377094 -0.086514
vt 0.398856 -0.063791
vt 0.377094 -0.063791
vt -0.237796 0.115447
vt -0.182241 0.131514
vt -0.221729 0.131514
vt -0.208884 0.109753
vt -0.182241 0.109753
vt -0.357253 0.254299
vt -0.369446 0.222131
vt -0.346372 0.235453
vt 0.398856 0.198375
vt 0.380327 0.240977
vt -0.217434 0.047604
vt 0.217434 0.047604
vt 0.217434 0.101202
vt 0.398856 -0.086514
vt -0.380327 0.240977
vt 0.398856 0.032349
vt 0.377094 0.115447
vt 0.377094 0.032349
vt -0.377094 0.191604
vt -0.398856 0.179924
vt -0.377094 0.179924
vt -0.398856 0.191604
vt -0.398856 -0.070096
vt -0.377094 -0.082189
vt -0.377094 -0.070096
vt 0.398856 0.115447
vt -0.217434 0.101202
vt -0.377094 0.047604
vt -0.398856 0.101202
vt -0.398856 0.047604
vt -0.377094 0.101202
vt -0.398856 -0.082189
vn -0.6087 0.0000 -0.7934
vn -0.9238 0.0000 -0.3828
vn -0.9915 -0.0000 0.1304
vn -0.0000 1.0000 0.0000
vn -0.3826 0.0000 -0.9239
vn -0.9239 -0.0000 0.3826
vn -0.1304 0.0000 -0.9915
vn -0.0000 0.9992 -0.0410
vn 0.9238 0.0000 0.3828
vn 0.9915 0.0000 -0.1304
vn 0.3828 0.0000 -0.9238
vn 0.7934 0.0000 -0.6087
vn 0.1304 -0.0000 0.9915
vn 0.3826 -0.0000 0.9239
vn 0.6087 -0.0000 0.7934
vn 0.9239 0.0000 -0.3826
vn -0.7934 -0.0000 0.6087
vn -0.3828 -0.0000 0.9238
vn 0.0000 -1.0000 -0.0000
vn 0.1306 -0.0000 -0.9914
vn -0.0140 0.9955 0.0937
vn 0.0000 -0.9991 0.0423
vn 0.0468 -0.9336 -0.3553
vn 0.9914 0.0000 0.1306
vn -0.9220 0.0783 0.3792
vn 0.0500 0.9239 -0.3794
vn -0.9914 0.0000 -0.1306
vn 0.1193 -0.4068 -0.9057
vn -0.0478 0.9306 0.3629
vn 0.1207 0.3827 -0.9160
vn -0.0500 -0.9239 0.3794
vn -0.1198 0.3992 0.9090
vn -0.1207 -0.3827 0.9160
usemtl material_0_1_8
s 1
f 1/1/1 2/2/2 3/3/2
f 2/2/2 1/1/1 4/4/1
f 2/5/2 5/6/3 3/7/2
f 3/8/4 6/9/4 1/10/4
f 6/11/5 4/12/1 1/13/1
f 4/14/4 7/15/4 2/16/4
f 5/6/3 2/5/2 8/17/3
f 9/18/4 3/8/4 5/19/4
f 6/9/4 3/8/4 10/20/4
f 4/12/1 6/11/5 11/21/5
f 12/22/4 7/15/4 4/14/4
f 2/16/4 7/15/4 13/23/4
f 2/16/4 13/23/4 8/24/4
f 8/25/3 14/26/6 5/27/3
f 10/20/4 3/8/4 9/18/4
f 9/18/4 5/19/4 15/28/4
f 10/29/7 11/21/5 6/11/5
f 16/30/4 4/14/4 11/31/8
f 17/32/4 7/15/4 12/22/4
f 16/30/4 12/22/4 4/14/4
f 18/33/9 13/34/10 7/35/9
f 8/24/4 13/23/4 19/36/4
f 14/26/6 8/25/3 20/37/6
f 15/28/4 5/19/4 14/38/4
f 9/39/11 16/40/7 10/41/7
f 21/42/12 9/43/11 15/44/12
f 11/21/5 10/29/7 16/45/7
f 7/15/4 17/32/4 22/46/4
f 12/47/13 23/48/14 17/49/14
f 12/22/4 16/30/4 24/50/4
f 13/34/10 18/33/9 25/51/10
f 22/52/15 18/53/9 7/54/9
f 25/55/10 19/56/16 13/57/10
f 8/24/4 19/36/4 20/58/4
f 20/37/6 26/59/17 14/26/6
f 15/28/4 14/38/4 27/60/4
f 16/40/7 9/39/11 28/61/11
f 9/43/11 21/42/12 28/62/11
f 15/63/12 29/64/16 21/65/12
f 17/49/14 30/66/15 22/67/15
f 23/48/14 12/47/13 31/68/13
f 30/66/15 17/49/14 23/48/14
f 24/50/4 16/30/4 28/69/4
f 24/70/18 31/71/13 12/72/13
f 18/73/19 32/74/19 25/75/19
f 18/53/9 22/52/15 30/76/15
f 19/56/16 25/55/10 33/77/16
f 20/58/4 19/36/4 34/78/4
f 26/59/17 20/37/6 35/79/17
f 27/60/4 14/38/4 26/80/4
f 29/64/16 15/63/12 27/81/16
f 36/82/4 28/69/4 21/83/4
f 37/84/4 21/83/4 29/85/4
f 38/86/19 23/87/19 31/88/19
f 23/87/19 38/86/19 30/89/19
f 24/50/4 28/69/4 36/82/4
f 31/71/13 24/70/18 38/90/18
f 18/73/19 38/86/19 32/74/19
f 25/75/19 32/74/19 39/91/19
f 30/89/19 38/86/19 18/73/19
f 25/75/19 39/91/19 33/92/19
f 33/77/16 34/93/12 19/56/16
f 20/58/4 34/78/4 35/94/4
f 35/95/17 40/96/18 26/97/17
f 27/60/4 26/80/4 41/98/4
f 27/81/16 42/99/10 29/64/16
f 36/82/4 21/83/4 37/84/4
f 37/84/4 29/85/4 42/100/4
f 32/101/17 24/102/18 36/103/17
f 24/102/18 32/101/17 38/104/18
f 36/105/17 39/106/6 32/107/17
f 33/92/19 39/91/19 43/108/19
f 34/93/12 33/77/16 44/109/12
f 35/94/4 34/78/4 45/110/4
f 40/96/18 35/95/17 45/111/18
f 41/98/4 26/80/4 40/112/4
f 42/99/10 27/81/16 41/113/10
f 39/106/6 36/105/17 37/114/6
f 37/84/4 42/100/4 46/115/4
f 37/114/6 43/116/3 39/106/6
f 33/92/19 43/108/19 44/117/19
f 44/118/12 47/119/11 34/120/12
f 45/110/4 34/78/4 47/121/4
f 48/122/13 40/123/18 45/124/18
f 41/98/4 40/112/4 49/125/4
f 41/126/10 50/127/9 42/128/10
f 46/115/4 42/100/4 50/129/4
f 43/116/3 37/114/6 46/130/3
f 44/117/19 43/108/19 51/131/19
f 47/119/11 44/118/12 52/132/11
f 45/110/4 47/121/4 48/133/4
f 40/123/18 48/122/13 53/134/13
f 49/125/4 40/112/4 53/135/4
f 50/127/9 41/126/10 49/136/9
f 46/115/4 50/129/4 54/137/4
f 46/138/3 51/139/2 43/140/3
f 44/117/19 51/131/19 52/141/19
f 52/142/11 55/143/20 47/144/11
f 48/133/4 47/121/4 56/145/4
f 57/146/14 53/147/13 48/148/13
f 49/125/4 53/135/4 58/149/4
f 58/150/15 50/151/9 49/152/9
f 54/137/4 50/129/4 59/153/4
f 51/139/2 46/138/3 54/154/2
f 52/141/19 51/131/19 60/155/19
f 55/143/20 52/142/11 60/156/7
f 61/157/20 47/144/11 55/143/20
f 47/144/11 61/157/20 56/158/7
f 48/133/4 56/145/4 57/159/4
f 53/147/13 57/146/14 62/160/14
f 58/149/4 53/135/4 62/161/21
f 50/151/9 58/150/15 59/162/15
f 54/137/4 59/153/4 63/163/4
f 63/164/1 51/165/2 54/166/2
f 60/155/19 51/131/19 64/167/19
f 55/143/20 60/156/7 65/168/20
f 61/157/20 55/143/20 66/169/20
f 56/158/7 61/157/20 67/170/20
f 57/159/4 56/145/4 59/153/4
f 59/171/15 62/160/14 57/146/14
f 62/160/14 59/171/15 58/172/15
f 63/163/4 59/153/4 56/145/4
f 51/165/2 63/164/1 64/173/1
f 60/155/19 64/167/19 68/174/22
f 65/168/20 60/156/7 69/175/20
f 65/176/19 70/177/23 55/178/19
f 70/179/24 66/180/24 55/181/24
f 61/157/20 66/169/20 71/182/25
f 72/183/26 67/184/4 61/185/4
f 56/158/7 67/170/20 60/156/7
f 63/163/4 56/145/4 73/186/4
f 73/187/5 64/188/1 63/189/1
f 64/188/1 73/187/5 68/190/5
f 68/190/5 56/191/7 60/192/7
f 69/175/20 60/156/7 74/193/20
f 75/194/27 65/195/27 69/196/27
f 70/177/23 65/176/19 76/197/23
f 66/180/24 70/179/24 77/198/24
f 69/175/20 71/182/25 66/169/20
f 71/199/24 78/200/24 61/201/24
f 67/184/4 72/183/26 79/202/26
f 61/201/24 78/200/24 72/203/24
f 74/193/20 60/156/7 67/170/20
f 56/191/7 68/190/5 73/187/5
f 71/182/25 69/175/20 74/193/20
f 65/195/27 75/194/27 76/204/27
f 75/194/27 69/196/27 80/205/27
f 76/206/23 77/207/28 70/208/23
f 66/180/24 77/198/24 81/209/24
f 81/210/29 69/211/4 66/212/4
f 82/213/24 78/200/24 71/199/24
f 78/214/30 79/215/26 72/216/26
f 83/217/27 67/218/27 79/219/27
f 67/218/27 84/220/27 74/221/27
f 74/222/19 82/223/31 71/224/19
f 77/207/28 76/206/23 75/225/28
f 69/211/4 81/210/29 80/226/29
f 75/194/27 80/205/27 85/227/27
f 81/209/24 77/198/24 86/228/24
f 87/229/24 78/200/24 82/213/24
f 79/215/26 78/214/30 83/230/30
f 84/220/27 67/218/27 83/217/27
f 82/223/31 74/222/19 84/231/31
f 75/232/28 78/233/30 77/234/28
f 86/235/32 80/236/29 81/237/29
f 80/236/29 86/235/32 85/238/32
f 75/194/27 85/227/27 83/217/27
f 86/228/24 77/198/24 78/200/24
f 86/228/24 78/200/24 87/229/24
f 84/239/31 87/240/33 82/241/31
f 78/233/30 75/232/28 83/242/30
f 83/217/27 88/243/27 84/220/27
f 86/244/32 88/245/33 85/246/32
f 83/217/27 85/227/27 88/243/27
f 88/245/33 86/244/32 87/247/33
f 87/240/33 84/239/31 88/248/33
