# File produced by Open Asset Import Library (http://www.assimp.sf.net)
# (assimp v3.2.202087883)

mtllib model_normalized.mtl

# 39 vertex positions
v 0.299608 0.232553 -0.298181
v -0.312448 0.232553 0.313875
v 0.299608 0.232553 0.313875
v -0.312448 0.232553 -0.298181
v 0.299608 0.176911 0.313875
v -0.312448 0.176911 -0.298181
v 0.243967 0.176911 0.313875
v 0.299608 0.176911 -0.298181
v -0.312448 0.176911 0.313875
v -0.256807 0.176911 0.313875
v 0.299608 -0.268221 0.313875
v -0.256807 0.176911 0.258234
v 0.243967 -0.268221 0.313875
v 0.299608 0.176911 0.258234
v 0.243967 0.176911 0.258234
v 0.243967 -0.268221 0.258234
v -0.256807 -0.268221 0.313875
v 0.299608 -0.268221 0.258234
v -0.312448 0.176911 0.258234
v -0.312448 -0.268221 0.313875
v -0.312448 -0.268221 0.258234
v -0.312448 0.176911 0.258234
v -0.256807 -0.268221 0.258234
v -0.312448 0.176911 -0.242540
v 0.299608 0.176911 -0.242540
v -0.256807 0.176911 -0.242540
v -0.256807 -0.268221 -0.242540
v 0.243967 0.176911 -0.242540
v -0.312448 -0.268221 -0.242540
v -0.256807 0.176911 -0.298181
v -0.312448 -0.268221 -0.298181
v 0.299608 -0.268221 -0.242540
v -0.256807 -0.268221 -0.298181
v 0.243967 0.176911 -0.298181
v 0.243967 -0.268221 -0.242540
v 0.299608 0.176911 -0.242540
v 0.243967 -0.268221 -0.298181
v 0.299608 -0.268221 -0.298181
v 0.243967 0.176911 -0.298181

# 30 UV coordinates
vt 1.80446 0 0
vt 0 11.0201 0
vt 0 0 0
vt 1.80446 11.0201 0
vt -1.80446 9.01645 0
vt 0 8.01462 0
vt 0 9.01645 0
vt 1.80446 9.01645 0
vt 1.80446 8.01462 0
vt -1.80446 8.01462 0
vt -0.164042 8.01462 0
vt -1.64042 8.01462 0
vt -0.164042 10.0183 0
vt -0 1.00183 0
vt -0 10.0183 0
vt -0.164042 0 0
vt 0.164042 8.01462 0
vt -0.164042 1.00183 0
vt -1.64042 0 0
vt 0.164042 0 0
vt -0.164042 11.0201 0
vt -1.80446 0 0
vt 1.64042 8.01462 0
vt -1.64042 11.0201 0
vt 1.64042 0 0
vt -1.64042 10.0183 0
vt -1.64042 1.00183 0
vt -1.80446 10.0183 0
vt -1.80446 11.0201 0
vt -1.80446 1.00183 0

# 6 vertex normals
vn 0 0.0254 0
vn 0 0 0.0254
vn 0.0254 0 0
vn 0 0 -0.0254
vn -0.0254 0 0
vn 0 -0.0254 0

# Mesh 'mesh1_mesh1-geometry' with 62 faces
g mesh1_mesh1-geometry
usemtl material_0_1_8
f  1/1/1 2/2/1 3/3/1
f  2/2/1 1/1/1 4/4/1
f  2/5/2 5/6/2 3/7/2
f  5/6/3 1/8/3 3/7/3
f  1/7/4 6/9/4 4/8/4
f  6/10/5 2/7/5 4/5/5
f  5/6/2 2/5/2 7/11/2
f  1/8/3 5/6/3 8/9/3
f  6/9/4 1/7/4 8/6/4
f  2/7/5 6/10/5 9/6/5
f  7/11/2 2/5/2 10/12/2
f  7/11/2 11/3/2 5/6/2
f  10/12/2 2/5/2 9/10/2
f  12/13/6 7/14/6 10/15/6
f  11/3/2 7/11/2 13/16/2
f  11/3/3 14/17/3 5/6/3
f  7/14/6 12/13/6 15/18/6
f  16/16/5 7/6/5 15/11/5
f  9/10/2 17/19/2 10/12/2
f  17/3/3 12/17/3 10/6/3
f  7/6/5 16/16/5 13/3/5
f  16/18/6 11/3/6 13/14/6
f  14/17/3 11/3/3 18/20/3
f  15/18/6 19/21/6 14/16/6
f  14/6/4 16/20/4 15/17/4
f  15/18/6 12/13/6 19/21/6
f  17/19/2 9/10/2 20/22/2
f  21/16/5 9/6/5 22/11/5
f  12/17/3 17/3/3 23/20/3
f  12/23/4 21/1/4 19/9/4
f  11/3/6 16/18/6 18/16/6
f  16/20/4 14/6/4 18/3/4
f  14/16/6 19/21/6 24/24/6
f  9/6/5 21/16/5 20/3/5
f  21/21/6 17/15/6 20/2/6
f  17/15/6 21/21/6 23/13/6
f  21/1/4 12/23/4 23/25/4
f  14/16/6 24/24/6 25/19/6
f  25/19/6 24/24/6 26/26/6
f  24/10/2 27/19/2 26/12/2
f  25/19/6 26/26/6 28/27/6
f  27/19/2 24/10/2 29/22/2
f  27/25/3 30/9/3 26/23/3
f  31/22/5 24/12/5 6/10/5
f  30/28/6 28/27/6 26/26/6
f  28/11/2 32/3/2 25/6/2
f  24/12/5 31/22/5 29/19/5
f  31/29/6 27/26/6 29/24/6
f  30/9/3 27/25/3 33/1/3
f  30/23/4 31/1/4 6/9/4
f  28/27/6 30/28/6 34/30/6
f  32/3/2 28/11/2 35/16/2
f  32/25/3 8/9/3 36/23/3
f  37/22/5 28/12/5 34/10/5
f  27/26/6 31/29/6 33/28/6
f  31/1/4 30/23/4 33/25/4
f  28/12/5 37/22/5 35/19/5
f  37/30/6 32/19/6 35/27/6
f  8/9/3 32/25/3 38/1/3
f  8/6/4 37/20/4 39/17/4
f  32/19/6 37/30/6 38/22/6
f  37/20/4 8/6/4 38/3/4

# Mesh 'mesh1_mesh1-geometry' with 78 faces
g mesh1_mesh1-geometry
usemtl material_1_24
f  3//6 2//6 1//6
f  4//6 1//6 2//6
f  3//4 5//4 2//4
f  3//5 1//5 5//5
f  4//2 6//2 1//2
f  4//3 2//3 6//3
f  7//4 2//4 5//4
f  8//5 5//5 1//5
f  8//2 1//2 6//2
f  9//3 6//3 2//3
f  10//4 2//4 7//4
f  5//4 11//4 7//4
f  15//6 5//6 7//6
f  7//1 5//1 15//1
f  9//4 2//4 10//4
f  10//1 7//1 12//1
f  13//4 7//4 11//4
f  5//5 14//5 11//5
f  5//6 15//6 14//6
f  14//1 15//1 5//1
f  15//1 12//1 7//1
f  15//3 7//3 16//3
f  10//4 17//4 9//4
f  19//6 10//6 9//6
f  9//1 10//1 19//1
f  10//5 12//5 17//5
f  10//6 19//6 12//6
f  12//1 19//1 10//1
f  13//3 16//3 7//3
f  13//1 11//1 16//1
f  18//5 11//5 14//5
f  14//1 19//1 15//1
f  15//2 16//2 14//2
f  19//1 12//1 15//1
f  20//4 9//4 17//4
f  22//3 9//3 21//3
f  23//5 17//5 12//5
f  19//2 21//2 12//2
f  18//1 16//1 11//1
f  18//2 14//2 16//2
f  24//1 19//1 14//1
f  20//3 21//3 9//3
f  20//1 17//1 21//1
f  23//1 21//1 17//1
f  23//2 12//2 21//2
f  25//1 24//1 14//1
f  26//1 24//1 25//1
f  26//4 27//4 24//4
f  6//6 26//6 24//6
f  24//1 26//1 6//1
f  28//1 26//1 25//1
f  29//4 24//4 27//4
f  26//5 30//5 27//5
f  26//6 6//6 30//6
f  30//1 6//1 26//1
f  6//3 24//3 31//3
f  26//1 28//1 30//1
f  25//4 32//4 28//4
f  34//6 25//6 28//6
f  28//1 25//1 34//1
f  29//3 31//3 24//3
f  29//1 27//1 31//1
f  33//5 27//5 30//5
f  6//2 31//2 30//2
f  34//1 30//1 28//1
f  35//4 28//4 32//4
f  36//5 8//5 32//5
f  25//6 34//6 8//6
f  8//1 34//1 25//1
f  34//3 28//3 37//3
f  33//1 31//1 27//1
f  33//2 30//2 31//2
f  35//3 37//3 28//3
f  35//1 32//1 37//1
f  38//5 32//5 8//5
f  39//2 37//2 8//2
f  38//1 37//1 32//1
f  38//2 8//2 37//2

