# File produced by Open Asset Import Library (http://www.assimp.sf.net)
# (assimp v3.2.202087883)

mtllib model_normalized.mtl

# 96 vertex positions
v -0.345141 -0.106721 -0.100758
v -0.345141 -0.106721 0.079937
v -0.357044 -0.106721 -0.010309
v -0.310251 -0.106721 -0.185095
v -0.357044 0.048509 -0.010309
v -0.345141 0.048509 -0.100758
v -0.310251 0.048509 -0.185095
v -0.310251 -0.106721 0.164274
v -0.345141 0.048509 0.079937
v -0.254745 0.048509 -0.257414
v -0.254745 -0.106721 0.236593
v -0.310251 0.048509 0.164274
v -0.254745 -0.106721 -0.257414
v -0.267063 0.048509 -0.034551
v -0.254745 0.048509 0.236593
v -0.182410 -0.106721 -0.312824
v -0.269353 0.048509 0.037971
v -0.246042 0.048509 -0.104221
v -0.182410 -0.106721 0.292003
v -0.182410 0.048509 -0.312824
v -0.267063 0.009702 -0.034551
v -0.246042 0.009702 -0.104221
v -0.182410 0.048509 0.292003
v -0.252756 0.048509 0.108864
v -0.098172 -0.106721 -0.347863
v -0.098172 -0.106721 0.327042
v -0.269353 0.009702 0.037971
v -0.207725 0.009702 -0.165946
v -0.207725 0.048509 -0.165946
v -0.098172 0.048509 0.327042
v -0.098172 0.048509 -0.347863
v -0.252756 0.009702 0.108864
v -0.218406 0.009702 0.172830
v -0.154723 0.048509 -0.215856
v -0.168643 0.048509 0.225796
v -0.218406 0.048509 0.172830
v -0.007775 -0.106721 -0.359678
v -0.007775 -0.106721 0.338857
v -0.007775 0.048509 0.338857
v -0.168643 0.009702 0.225796
v -0.106854 0.048509 0.264298
v -0.090645 0.048509 -0.250080
v -0.007775 0.048509 -0.359678
v -0.037256 0.048509 0.285280
v -0.154723 0.009702 -0.215856
v -0.106854 0.009702 0.264298
v 0.082622 -0.106721 -0.347863
v 0.082622 -0.106721 0.327042
v 0.082622 0.048509 0.327042
v 0.035412 0.048509 0.287521
v -0.037256 0.009702 0.285280
v -0.090645 0.009702 -0.250080
v -0.019861 0.048509 -0.266785
v 0.082622 0.048509 -0.347863
v 0.035412 0.009702 0.287521
v 0.052806 0.048509 -0.264544
v 0.166859 -0.106721 -0.312824
v 0.166859 -0.106721 0.292003
v 0.166859 0.048509 0.292003
v 0.106196 0.048509 0.271020
v 0.106196 0.009702 0.271020
v -0.019861 0.009702 -0.266785
v 0.122405 0.048509 -0.243358
v 0.166859 0.048509 -0.312824
v 0.052806 0.009702 -0.264544
v 0.239194 -0.106721 -0.257414
v 0.239194 -0.106721 0.236593
v 0.239194 0.048509 0.236593
v 0.170273 0.048509 0.236593
v 0.170273 0.009702 0.236593
v 0.122405 0.009702 -0.243358
v 0.184192 0.048509 -0.205059
v 0.239194 0.048509 -0.257414
v 0.294700 0.048509 -0.185095
v 0.294700 -0.106721 0.164274
v 0.223276 0.048509 0.186886
v 0.223276 0.009702 0.186886
v 0.184192 0.009702 -0.205059
v 0.233957 0.048509 -0.152094
v 0.294700 -0.106721 -0.185095
v 0.268307 0.048509 -0.088128
v 0.294700 0.048509 0.164274
v 0.261593 0.048509 0.124957
v 0.233957 0.009702 -0.152094
v 0.329592 0.048509 -0.100758
v 0.284903 0.048509 -0.017235
v 0.329592 -0.106721 0.079937
v 0.268307 0.009702 -0.088128
v 0.329592 -0.106721 -0.100758
v 0.329592 0.048509 0.079937
v 0.284903 0.009702 -0.017235
v 0.282613 0.048509 0.055491
v 0.261593 0.009702 0.124957
v 0.341492 0.048509 -0.010309
v 0.282613 0.009702 0.055491
v 0.341492 -0.106721 -0.010309

# 172 UV coordinates
vt 0 0 0
vt 0.425424 0 0
vt 0.392699 0.055556 0
vt 0.392699 0 0
vt 0.359974 0.055556 0
vt 0.359974 0 0
vt 0.327249 0.055556 0
vt 0.327249 0 0
vt 0.425424 0.055556 0
vt 0.294524 0.055556 0
vt 0.458149 0 0
vt -0.172296 10.6124 0
vt -0.172296 10.6771 0
vt -0.176556 10.6448 0
vt -0.159809 10.5823 0
vt -0.159809 10.7073 0
vt 0.294524 0 0
vt -0.144352 10.6534 0
vt -0.139944 10.7331 0
vt 0.490874 0 0
vt 0.458149 0.055556 0
vt -0.139944 10.5564 0
vt 0.261799 0 0
vt -0.145172 10.6274 0
vt -0.13683 10.6783 0
vt 0.490874 0.055556 0
vt 0.261799 0.055556 0
vt -0.114056 10.753 0
vt 0.523599 0.055556 0
vt 0.523599 0 0
vt -0.139233 10.6021 0
vt 0.229074 0 0
vt -0.123116 10.7005 0
vt 0.556324 0.055556 0
vt -0.114056 10.5365 0
vt 0.229074 0.055556 0
vt 0.556324 0 0
vt -0.104147 10.7183 0
vt -0.109128 10.5602 0
vt -0.083908 10.524 0
vt -0.126939 10.5792 0
vt -0.083908 10.7655 0
vt 0.19635 0 0
vt 0.589049 0.055556 0
vt -0.087015 10.5465 0
vt -0.081214 10.7306 0
vt 0.19635 0.055556 0
vt 0.589049 0 0
vt -0.062107 10.539 0
vt -0.051556 10.5198 0
vt -0.051556 10.7698 0
vt 0.163625 0 0
vt 0.621774 0.055556 0
vt -0.036099 10.5381 0
vt -0.055881 10.7365 0
vt 0.163625 0.055556 0
vt 0.621774 0 0
vt -0.019203 10.524 0
vt -0.029874 10.7357 0
vt -0.019203 10.7655 0
vt 0.1309 0 0
vt 0.654498 0.055556 0
vt -0.010766 10.5441 0
vt -0.004965 10.7282 0
vt 0.1309 0.055556 0
vt 0.654498 0 0
vt 0.010944 10.5365 0
vt 0.010944 10.753 0
vt 0.098175 0 0
vt 0.687223 0.055556 0
vt 0.012166 10.5564 0
vt 0.017148 10.7144 0
vt 0.098175 0.055556 0
vt 0.687223 0 0
vt 0.036833 10.5564 0
vt 0.036833 10.7331 0
vt 0.06545 0.055556 0
vt 0.719948 0 0
vt 0.031136 10.5742 0
vt 0.034958 10.6955 0
vt 0.06545 0 0
vt 0.047252 10.6725 0
vt 0.056698 10.7073 0
vt 0.719948 0.055556 0
vt 0.044849 10.5963 0
vt 0.032725 0.055556 0
vt 0.053192 10.6472 0
vt 0.752673 0 0
vt 0.056698 10.5823 0
vt 0.032725 0 0
vt 0.069185 10.6124 0
vt 0.069185 10.6771 0
vt 0.752673 0.055556 0
vt 0.052372 10.6212 0
vt 0 0.055556 0
vt 0.073444 10.6448 0
vt 0.785398 0 0
vt 0.785398 0.055556 0
vt 0.09394 0.01875 0
vt 0.105683 0.0125 0
vt 0.105683 0.01875 0
vt 0.117425 0.0125 0
vt 0.117425 0.01875 0
vt 0.09394 0.0125 0
vt 0.129168 0.0125 0
vt 0.082198 0.01875 0
vt -0.062655 4.77094 0
vt -0.064959 4.79404 0
vt -0.065327 4.78234 0
vt -0.061573 4.80525 0
vt 0.129168 0.01875 0
vt -0.057122 4.76062 0
vt -0.055402 4.8152 0
vt 0.082198 0.0125 0
vt 0.14091 0.01875 0
vt -0.049108 4.75208 0
vt 0.070455 0.01875 0
vt 0.070455 0.0125 0
vt 0.14091 0.0125 0
vt 0.058713 0.01875 0
vt 0.058713 0.0125 0
vt -0.046866 4.82322 0
vt 0.04697 0.0125 0
vt 0.04697 0.01875 0
vt 0.152653 0.01875 0
vt -0.039157 4.74591 0
vt 0.035228 0.0125 0
vt 0.035228 0.01875 0
vt 0.152653 0.0125 0
vt 0.023485 0.0125 0
vt 0.023485 0.01875 0
vt -0.036546 4.82875 0
vt -0.027948 4.74253 0
vt 0.164396 0.01875 0
vt 0.011743 0.0125 0
vt -0.025146 4.83142 0
vt -0.016245 4.74216 0
vt 0.164396 0.0125 0
vt 0.176138 0.01875 0
vt 0.011743 0.01875 0
vt -0.013443 4.83105 0
vt -0.004845 4.74483 0
vt 0.176138 0.0125 0
vt 0.187881 0.01875 0
vt -0 0.0125 0
vt -0.002234 4.82767 0
vt 0.187881 0.0125 0
vt -0 0.01875 0
vt 0.005475 4.75036 0
vt 0.199623 0.01875 0
vt 0.281821 0.01875 0
vt 0.270078 0.0125 0
vt 0.281821 0.0125 0
vt 0.007717 4.8215 0
vt 0.199623 0.0125 0
vt 0.270078 0.01875 0
vt 0.014011 4.75838 0
vt 0.211366 0.0125 0
vt 0.211366 0.01875 0
vt 0.258336 0.01875 0
vt 0.015731 4.81296 0
vt 0.223108 0.0125 0
vt 0.223108 0.01875 0
vt 0.234851 0.0125 0
vt 0.234851 0.01875 0
vt 0.258336 0.0125 0
vt 0.020182 4.76833 0
vt 0.021263 4.80264 0
vt 0.246593 0.0125 0
vt 0.246593 0.01875 0
vt 0.023567 4.77954 0
vt 0.023936 4.79124 0

# 50 vertex normals
vn 0 -0.0254 0
vn 0 0.0254 0
vn 0.0254 0 0
vn 0.0245345 0 -0.006574
vn 0.0245345 0 0.006574
vn 0.021997 0 0.0127
vn 0.0179605 0 0.0179605
vn 0.021997 0 -0.0127
vn 0.0179605 0 -0.0179605
vn 0.0127 0 0.021997
vn -0.0250658 0 -0.00410695
vn -0.0252746 -0 0.00252049
vn -0.0231487 0 -0.0104545
vn 0.0127 0 -0.021997
vn 0.006574 0 0.0245345
vn -0.0196541 0 -0.0160896
vn 0.006574 0 -0.0245345
vn -0.0237611 -0 0.00897616
vn 0 0 0.0254
vn 0 0 -0.0254
vn -0.0148201 0 -0.0206282
vn -0.0206282 -0 0.0148201
vn -0.0160896 -0 0.0196541
vn -0.0104545 -0 0.0231487
vn -0.00897616 0 -0.0237611
vn -0.006574 -0 0.0245345
vn -0.006574 0 -0.0245345
vn -0.00410695 -0 0.0250658
vn 0.00252049 0 0.0252746
vn -0.00252049 0 -0.0252746
vn -0.0127 -0 0.021997
vn -0.0127 0 -0.021997
vn 0.00897616 0 0.0237611
vn 0.00410695 0 -0.0250658
vn 0.0104545 0 -0.0231487
vn -0.0179605 -0 0.0179605
vn -0.0179605 0 -0.0179605
vn 0.0148201 0 0.0206282
vn 0.0160896 0 -0.0196541
vn -0.021997 -0 0.0127
vn -0.021997 0 -0.0127
vn 0.0196541 0 0.0160896
vn 0.0206282 0 -0.0148201
vn -0.0245345 -0 0.006574
vn -0.0245345 0 -0.006574
vn 0.0231487 0 0.0104545
vn 0.0237611 0 -0.00897616
vn 0.0252746 0 -0.00252049
vn -0.0254 0 -0
vn 0.0250658 0 0.00410695

# Mesh 'mesh1_mesh1-geometry' with 210 faces
g mesh1_mesh1-geometry
usemtl material_0_24
f  1/1/1 2/1/1 3/1/1
f  2/1/1 1/1/1 4/1/1
f  3/1/2 2/1/2 1/1/2
f  4/1/2 1/1/2 2/1/2
f  3/1/3 5/1/3 2/1/4
f  1/1/5 6/1/5 3/1/3
f  4/1/6 7/1/6 1/1/5
f  2/1/1 4/1/1 8/1/1
f  8/1/2 4/1/2 2/1/2
f  9/1/4 2/1/4 5/1/3
f  5/1/3 3/1/3 6/1/5
f  6/1/5 1/1/5 7/1/6
f  7/1/6 4/1/6 10/1/7
f  8/1/1 4/1/1 11/1/1
f  11/1/2 4/1/2 8/1/2
f  2/1/4 9/1/4 8/1/8
f  5/1/1 6/1/1 9/1/1
f  7/1/1 12/1/1 6/1/1
f  13/1/7 10/1/7 4/1/6
f  10/1/1 14/1/1 7/1/1
f  11/1/1 4/1/1 13/1/1
f  13/1/2 4/1/2 11/1/2
f  8/1/8 12/1/8 11/1/9
f  12/1/8 8/1/8 9/1/4
f  12/1/1 9/1/1 6/1/1
f  15/1/1 12/1/1 7/1/1
f  13/1/7 16/1/10 10/1/7
f  17/1/1 7/1/1 14/1/1
f  18/1/1 14/1/1 10/1/1
f  11/1/1 13/1/1 19/1/1
f  19/1/2 13/1/2 11/1/2
f  15/1/9 11/1/9 12/1/8
f  17/1/1 15/1/1 7/1/1
f  20/1/10 10/1/7 16/1/10
f  19/1/1 13/1/1 16/1/1
f  16/1/2 13/1/2 19/1/2
f  14/1/11 21/1/11 17/1/12
f  18/1/13 22/1/13 14/1/11
f  20/1/1 18/1/1 10/1/1
f  19/1/14 11/1/9 23/1/14
f  15/1/9 23/1/14 11/1/9
f  24/1/1 15/1/1 17/1/1
f  16/1/10 25/1/15 20/1/10
f  19/1/1 16/1/1 26/1/1
f  26/1/2 16/1/2 19/1/2
f  27/1/12 17/1/12 21/1/11
f  21/1/11 14/1/11 22/1/13
f  22/1/13 18/1/13 28/1/16
f  29/1/1 18/1/1 20/1/1
f  23/1/14 30/1/17 19/1/14
f  23/1/1 15/1/1 24/1/1
f  17/1/12 27/1/12 24/1/18
f  31/1/15 20/1/10 25/1/15
f  26/1/1 16/1/1 25/1/1
f  25/1/2 16/1/2 26/1/2
f  26/1/17 19/1/14 30/1/17
f  27/1/1 21/1/1 32/1/1
f  22/1/1 32/1/1 21/1/1
f  29/1/16 28/1/16 18/1/13
f  28/1/1 33/1/1 22/1/1
f  34/1/1 29/1/1 20/1/1
f  30/1/1 23/1/1 35/1/1
f  36/1/1 23/1/1 24/1/1
f  32/1/18 24/1/18 27/1/12
f  31/1/1 34/1/1 20/1/1
f  25/1/15 37/1/19 31/1/15
f  26/1/1 25/1/1 38/1/1
f  38/1/2 25/1/2 26/1/2
f  30/1/17 39/1/20 26/1/17
f  33/1/1 32/1/1 22/1/1
f  29/1/16 34/1/21 28/1/16
f  40/1/1 33/1/1 28/1/1
f  35/1/1 23/1/1 36/1/1
f  41/1/1 30/1/1 35/1/1
f  24/1/18 32/1/18 36/1/22
f  42/1/1 34/1/1 31/1/1
f  43/1/19 31/1/15 37/1/19
f  38/1/1 25/1/1 37/1/1
f  37/1/2 25/1/2 38/1/2
f  38/1/20 26/1/17 39/1/20
f  39/1/1 30/1/1 44/1/1
f  33/1/22 36/1/22 32/1/18
f  45/1/21 28/1/16 34/1/21
f  40/1/23 35/1/23 33/1/22
f  45/1/1 40/1/1 28/1/1
f  36/1/22 33/1/22 35/1/23
f  44/1/1 30/1/1 41/1/1
f  41/1/24 35/1/23 46/1/24
f  34/1/21 42/1/25 45/1/21
f  43/1/1 42/1/1 31/1/1
f  37/1/19 47/1/26 43/1/19
f  38/1/1 37/1/1 48/1/1
f  48/1/2 37/1/2 38/1/2
f  39/1/20 49/1/27 38/1/20
f  50/1/1 39/1/1 44/1/1
f  40/1/23 46/1/24 35/1/23
f  46/1/1 40/1/1 45/1/1
f  44/1/28 41/1/24 51/1/28
f  46/1/24 51/1/28 41/1/24
f  52/1/25 45/1/21 42/1/25
f  53/1/1 42/1/1 43/1/1
f  54/1/26 43/1/19 47/1/26
f  48/1/1 37/1/1 47/1/1
f  47/1/2 37/1/2 48/1/2
f  48/1/27 38/1/20 49/1/27
f  49/1/1 39/1/1 50/1/1
f  50/1/29 44/1/28 55/1/29
f  52/1/1 46/1/1 45/1/1
f  51/1/28 55/1/29 44/1/28
f  51/1/1 46/1/1 52/1/1
f  42/1/25 53/1/30 52/1/25
f  56/1/1 53/1/1 43/1/1
f  54/1/1 56/1/1 43/1/1
f  47/1/26 57/1/31 54/1/26
f  48/1/1 47/1/1 58/1/1
f  58/1/2 47/1/2 48/1/2
f  49/1/27 59/1/32 48/1/27
f  60/1/1 49/1/1 50/1/1
f  55/1/29 61/1/33 50/1/29
f  55/1/1 51/1/1 62/1/1
f  62/1/1 51/1/1 52/1/1
f  62/1/30 52/1/25 53/1/30
f  53/1/30 56/1/34 62/1/30
f  63/1/1 56/1/1 54/1/1
f  64/1/31 54/1/26 57/1/31
f  58/1/1 47/1/1 57/1/1
f  57/1/2 47/1/2 58/1/2
f  58/1/32 48/1/27 59/1/32
f  59/1/1 49/1/1 60/1/1
f  60/1/33 50/1/29 61/1/33
f  61/1/1 55/1/1 65/1/1
f  65/1/1 55/1/1 62/1/1
f  65/1/34 62/1/30 56/1/34
f  56/1/34 63/1/35 65/1/34
f  64/1/1 63/1/1 54/1/1
f  57/1/31 66/1/36 64/1/31
f  58/1/1 57/1/1 67/1/1
f  67/1/2 57/1/2 58/1/2
f  59/1/32 68/1/37 58/1/32
f  69/1/1 59/1/1 60/1/1
f  61/1/33 70/1/38 60/1/33
f  71/1/1 61/1/1 65/1/1
f  71/1/35 65/1/34 63/1/35
f  72/1/1 63/1/1 64/1/1
f  73/1/36 64/1/31 66/1/36
f  67/1/1 57/1/1 66/1/1
f  66/1/2 57/1/2 67/1/2
f  67/1/37 58/1/32 68/1/37
f  68/1/1 59/1/1 69/1/1
f  69/1/38 60/1/33 70/1/38
f  70/1/1 61/1/1 71/1/1
f  63/1/35 72/1/39 71/1/35
f  73/1/1 72/1/1 64/1/1
f  73/1/36 66/1/36 74/1/40
f  67/1/1 66/1/1 75/1/1
f  75/1/2 66/1/2 67/1/2
f  67/1/37 68/1/37 75/1/41
f  76/1/1 68/1/1 69/1/1
f  70/1/38 77/1/42 69/1/38
f  78/1/1 70/1/1 71/1/1
f  78/1/39 71/1/35 72/1/39
f  79/1/1 72/1/1 73/1/1
f  80/1/40 74/1/40 66/1/36
f  74/1/1 81/1/1 73/1/1
f  75/1/1 66/1/1 80/1/1
f  80/1/2 66/1/2 75/1/2
f  82/1/41 75/1/41 68/1/37
f  83/1/1 68/1/1 76/1/1
f  76/1/42 69/1/38 77/1/42
f  77/1/1 70/1/1 78/1/1
f  78/1/39 72/1/39 84/1/43
f  79/1/43 84/1/43 72/1/39
f  81/1/1 79/1/1 73/1/1
f  74/1/40 80/1/40 85/1/44
f  86/1/1 81/1/1 74/1/1
f  75/1/1 80/1/1 87/1/1
f  87/1/2 80/1/2 75/1/2
f  75/1/41 82/1/41 87/1/45
f  82/1/1 68/1/1 83/1/1
f  76/1/42 77/1/42 83/1/46
f  84/1/1 77/1/1 78/1/1
f  84/1/43 79/1/43 88/1/47
f  81/1/47 88/1/47 79/1/43
f  89/1/44 85/1/44 80/1/40
f  85/1/1 90/1/1 74/1/1
f  86/1/48 91/1/48 81/1/47
f  82/1/1 86/1/1 74/1/1
f  87/1/1 80/1/1 89/1/1
f  89/1/2 80/1/2 87/1/2
f  90/1/45 87/1/45 82/1/41
f  92/1/1 82/1/1 83/1/1
f  93/1/46 83/1/46 77/1/42
f  93/1/1 77/1/1 84/1/1
f  88/1/1 93/1/1 84/1/1
f  88/1/47 81/1/47 91/1/48
f  85/1/44 89/1/44 94/1/49
f  90/1/1 82/1/1 74/1/1
f  94/1/1 90/1/1 85/1/1
f  91/1/48 86/1/48 95/1/50
f  86/1/1 82/1/1 92/1/1
f  87/1/1 89/1/1 96/1/1
f  96/1/2 89/1/2 87/1/2
f  87/1/45 90/1/45 96/1/49
f  83/1/46 93/1/46 92/1/50
f  95/1/1 93/1/1 88/1/1
f  91/1/1 95/1/1 88/1/1
f  96/1/49 94/1/49 89/1/44
f  94/1/49 96/1/49 90/1/45
f  92/1/50 95/1/50 86/1/48
f  95/1/50 92/1/50 93/1/46

# Mesh 'mesh1_mesh1-geometry' with 96 faces
g mesh1_mesh1-geometry
usemtl material_1_1_8
f  2/2/44 5/3/49 3/4/49
f  3/4/49 6/5/45 1/6/45
f  1/6/45 7/7/41 4/8/41
f  5/3/49 2/2/44 9/9/44
f  6/5/45 3/4/49 5/3/49
f  7/7/41 1/6/45 6/5/45
f  10/10/37 4/8/41 7/7/41
f  8/11/40 9/9/44 2/2/44
f  9/12/2 6/13/2 5/14/2
f  6/13/2 12/15/2 7/16/2
f  4/8/41 10/10/37 13/17/37
f  7/16/2 14/18/2 10/19/2
f  11/20/36 12/21/40 8/11/40
f  9/9/44 8/11/40 12/21/40
f  6/13/2 9/12/2 12/15/2
f  7/16/2 12/15/2 15/22/2
f  10/10/37 16/23/32 13/17/37
f  14/18/2 7/16/2 17/24/2
f  10/19/2 14/18/2 18/25/2
f  12/21/40 11/20/36 15/26/36
f  7/16/2 15/22/2 17/24/2
f  16/23/32 10/10/37 20/27/32
f  10/19/2 18/25/2 20/28/2
f  23/29/31 11/20/36 19/30/31
f  11/20/36 23/29/31 15/26/36
f  17/24/2 15/22/2 24/31/2
f  20/27/32 25/32/27 16/23/32
f  20/28/2 18/25/2 29/33/2
f  19/30/31 30/34/26 23/29/31
f  24/31/2 15/22/2 23/35/2
f  25/32/27 20/27/32 31/36/27
f  30/34/26 19/30/31 26/37/26
f  20/28/2 29/33/2 34/38/2
f  35/39/2 23/35/2 30/40/2
f  24/31/2 23/35/2 36/41/2
f  20/28/2 34/38/2 31/42/2
f  31/36/27 37/43/20 25/32/27
f  26/37/26 39/44/19 30/34/26
f  36/41/2 23/35/2 35/39/2
f  35/39/2 30/40/2 41/45/2
f  31/42/2 34/38/2 42/46/2
f  37/43/20 31/36/27 43/47/20
f  39/44/19 26/37/26 38/48/19
f  44/49/2 30/40/2 39/50/2
f  41/45/2 30/40/2 44/49/2
f  31/42/2 42/46/2 43/51/2
f  43/47/20 47/52/17 37/43/20
f  38/48/19 49/53/15 39/44/19
f  44/49/2 39/50/2 50/54/2
f  43/51/2 42/46/2 53/55/2
f  47/52/17 43/47/20 54/56/17
f  49/53/15 38/48/19 48/57/15
f  50/54/2 39/50/2 49/58/2
f  43/51/2 53/55/2 56/59/2
f  43/51/2 56/59/2 54/60/2
f  54/56/17 57/61/14 47/52/17
f  48/57/15 59/62/10 49/53/15
f  50/54/2 49/58/2 60/63/2
f  54/60/2 56/59/2 63/64/2
f  57/61/14 54/56/17 64/65/14
f  59/62/10 48/57/15 58/66/10
f  60/63/2 49/58/2 59/67/2
f  54/60/2 63/64/2 64/68/2
f  64/65/14 66/69/9 57/61/14
f  58/66/10 68/70/7 59/62/10
f  60/63/2 59/67/2 69/71/2
f  64/68/2 63/64/2 72/72/2
f  66/69/9 64/65/14 73/73/9
f  68/70/7 58/66/10 67/74/7
f  69/71/2 59/67/2 68/75/2
f  64/68/2 72/72/2 73/76/2
f  74/77/8 66/69/9 73/73/9
f  75/78/6 68/70/7 67/74/7
f  69/71/2 68/75/2 76/79/2
f  73/76/2 72/72/2 79/80/2
f  66/69/9 74/77/8 80/81/8
f  73/76/2 81/82/2 74/83/2
f  68/70/7 75/78/6 82/84/6
f  76/79/2 68/75/2 83/85/2
f  73/76/2 79/80/2 81/82/2
f  85/86/4 80/81/8 74/77/8
f  74/83/2 81/82/2 86/87/2
f  87/88/5 82/84/6 75/78/6
f  83/85/2 68/75/2 82/89/2
f  80/81/8 85/86/4 89/90/4
f  74/83/2 90/91/2 85/92/2
f  74/83/2 86/87/2 82/89/2
f  82/84/6 87/88/5 90/93/5
f  83/85/2 82/89/2 92/94/2
f  94/95/3 89/90/4 85/86/4
f  74/83/2 82/89/2 90/91/2
f  85/92/2 90/91/2 94/96/2
f  92/94/2 82/89/2 86/87/2
f  96/97/3 90/93/5 87/88/5
f  89/90/4 94/95/3 96/1/3
f  90/93/5 96/97/3 94/98/3

# Mesh 'mesh1_mesh1-geometry' with 70 faces
g mesh1_mesh1-geometry
usemtl material_2_2_8
f  17/99/48 21/100/50 14/101/50
f  14/101/50 22/102/46 18/103/46
f  21/100/50 17/99/48 27/104/48
f  22/102/46 14/101/50 21/100/50
f  28/105/42 18/103/46 22/102/46
f  24/106/47 27/104/48 17/99/48
f  32/107/2 21/108/2 27/109/2
f  21/108/2 32/107/2 22/110/2
f  18/103/46 28/105/42 29/111/42
f  22/110/2 33/112/2 28/113/2
f  27/104/48 24/106/47 32/114/47
f  22/110/2 32/107/2 33/112/2
f  28/105/42 34/115/38 29/111/42
f  28/113/2 33/112/2 40/116/2
f  36/117/43 32/114/47 24/106/47
f  32/114/47 36/117/43 33/118/43
f  34/115/38 28/105/42 45/119/38
f  33/118/43 35/120/39 40/121/39
f  28/113/2 40/116/2 45/122/2
f  35/120/39 33/118/43 36/117/43
f  46/123/35 35/120/39 41/124/35
f  45/119/38 42/125/33 34/115/38
f  35/120/39 46/123/35 40/121/39
f  45/122/2 40/116/2 46/126/2
f  51/127/34 41/124/35 44/128/34
f  41/124/35 51/127/34 46/123/35
f  42/125/33 45/119/38 52/129/33
f  55/130/30 44/128/34 50/131/30
f  45/122/2 46/126/2 52/132/2
f  44/128/34 55/130/30 51/127/34
f  52/132/2 46/126/2 51/133/2
f  52/129/33 53/134/29 42/125/33
f  50/131/30 61/135/25 55/130/30
f  62/136/2 51/133/2 55/137/2
f  52/132/2 51/133/2 62/136/2
f  53/134/29 52/129/33 62/138/29
f  62/138/29 56/139/28 53/134/29
f  61/135/25 50/131/30 60/140/25
f  65/141/2 55/137/2 61/142/2
f  62/136/2 55/137/2 65/141/2
f  56/139/28 62/138/29 65/143/28
f  65/143/28 63/144/24 56/139/28
f  60/140/25 70/145/21 61/135/25
f  65/141/2 61/142/2 71/146/2
f  63/144/24 65/143/28 71/147/24
f  70/145/21 60/140/25 69/148/21
f  71/146/2 61/142/2 70/149/2
f  71/147/24 72/150/23 63/144/24
f  69/151/21 77/152/16 70/153/21
f  71/146/2 70/149/2 78/154/2
f  72/150/23 71/147/24 78/155/23
f  77/152/16 69/151/21 76/156/16
f  78/154/2 70/149/2 77/157/2
f  84/158/22 72/150/23 78/155/23
f  72/150/23 84/158/22 79/159/22
f  83/160/13 77/152/16 76/156/16
f  78/154/2 77/157/2 84/161/2
f  88/162/18 79/159/22 84/158/22
f  79/159/22 88/162/18 81/163/18
f  81/163/18 91/164/12 86/165/12
f  77/152/16 83/160/13 93/166/13
f  84/161/2 77/157/2 93/167/2
f  84/161/2 93/167/2 88/168/2
f  91/164/12 81/163/18 88/162/18
f  95/169/11 86/165/12 91/164/12
f  92/170/11 93/166/13 83/160/13
f  88/168/2 93/167/2 95/171/2
f  88/168/2 95/171/2 91/172/2
f  86/165/12 95/169/11 92/170/11
f  93/166/13 92/170/11 95/169/11

# Mesh 'mesh2_mesh2-geometry' with 24 faces
g mesh2_mesh2-geometry
usemtl material_0_0
l  96 89
l  87 96
l  89 80
l  75 87
l  80 66
l  67 75
l  66 57
l  58 67
l  57 47
l  48 58
l  47 37
l  38 48
l  37 25
l  26 38
l  25 16
l  19 26
l  16 13
l  11 19
l  13 4
l  8 11
l  4 1
l  2 8
l  1 3
l  3 2

