# File produced by Open Asset Import Library (http://www.assimp.sf.net)
# (assimp v3.2.202087883)

mtllib model_normalized.mtl

# 144 vertex positions
v -0.178698 0.072622 -0.295969
v -0.094625 -0.043573 -0.330795
v -0.178698 -0.043573 -0.295969
v -0.094625 0.072622 -0.330795
v -0.250892 0.072622 -0.240575
v -0.165147 0.072622 -0.203817
v -0.004405 -0.043573 -0.342671
v -0.250892 -0.043573 -0.240575
v -0.243157 0.072622 -0.093234
v -0.211432 0.072622 -0.153661
v -0.107458 0.072622 -0.240286
v -0.004405 0.072622 -0.342671
v -0.165147 -0.043573 -0.203817
v -0.211432 -0.094409 -0.153661
v -0.211432 -0.043573 -0.153661
v -0.107458 -0.094409 -0.240286
v -0.107458 -0.043573 -0.240286
v -0.306289 -0.043573 -0.168378
v -0.258162 0.072622 -0.026654
v -0.165147 0.036311 -0.203817
v -0.042296 0.072622 -0.260584
v 0.085816 -0.043573 -0.330795
v -0.243157 -0.094409 -0.093234
v -0.243157 -0.043573 -0.093234
v -0.165147 -0.094409 -0.203817
v -0.042296 -0.094409 -0.260584
v -0.042296 -0.043573 -0.260584
v -0.306289 0.072622 -0.168378
v -0.243157 0.036311 -0.093234
v -0.211432 0.036311 -0.153661
v -0.107458 0.036311 -0.240286
v 0.025898 0.072622 -0.263320
v 0.085816 0.072622 -0.330795
v 0.025898 -0.094409 -0.263320
v 0.025898 -0.043573 -0.263320
v -0.258162 -0.094409 -0.026654
v -0.258162 -0.043573 -0.026654
v -0.341113 -0.043573 -0.084305
v -0.250892 0.072622 0.252403
v -0.258162 0.036311 -0.026654
v -0.042296 0.036311 -0.260584
v 0.169889 -0.043573 -0.295969
v 0.092478 -0.094409 -0.248315
v -0.255423 -0.094409 0.041540
v -0.341113 0.072622 -0.084305
v -0.306289 -0.043573 0.180209
v -0.341113 0.072622 0.096136
v -0.341113 -0.043573 0.096136
v -0.306289 0.072622 0.180209
v -0.255423 0.072622 0.041540
v 0.025898 0.036311 -0.263320
v 0.092478 0.072622 -0.248315
v 0.169889 0.072622 -0.295969
v 0.092478 -0.043573 -0.248315
v -0.198659 -0.094409 0.164391
v -0.235128 -0.043573 0.106702
v -0.235128 -0.094409 0.106702
v -0.148501 -0.043573 0.210676
v -0.148501 -0.094409 0.210676
v -0.255423 -0.043573 0.041540
v -0.235128 0.036311 0.106702
v -0.198659 0.072622 0.164391
v -0.198659 0.036311 0.164391
v -0.148501 0.036311 0.210676
v -0.088074 -0.043573 0.242401
v -0.088074 -0.094409 0.242401
v -0.021494 -0.043573 0.257406
v -0.021494 -0.094409 0.257406
v -0.148501 0.072622 0.210676
v -0.088074 0.036311 0.242401
v -0.250892 -0.043573 0.252403
v -0.352991 -0.043573 0.005916
v -0.352991 0.072622 0.005916
v -0.235128 0.072622 0.106702
v -0.255423 0.036311 0.041540
v 0.242085 -0.043573 -0.240575
v 0.152908 -0.094409 -0.216590
v -0.198659 -0.043573 0.164391
v 0.046700 -0.043573 0.254667
v 0.046700 -0.094409 0.254667
v -0.088074 0.072622 0.242401
v -0.021494 0.036311 0.257406
v -0.178698 0.072622 0.307800
v 0.092478 0.036311 -0.248315
v 0.152908 0.072622 -0.216590
v 0.242085 0.072622 -0.240575
v 0.152908 -0.043573 -0.216590
v 0.111864 -0.043573 0.234372
v 0.111864 -0.094409 0.234372
v -0.021494 0.072622 0.257406
v 0.046700 0.036311 0.254667
v -0.094625 0.072622 0.342624
v -0.178698 -0.043573 0.307800
v 0.203064 0.072622 -0.170308
v 0.297479 0.072622 -0.168378
v 0.203064 -0.094409 -0.170308
v 0.203064 -0.043573 -0.170308
v 0.169550 -0.043573 0.197903
v 0.046700 0.072622 0.254667
v -0.004405 0.072622 0.354502
v 0.152908 0.036311 -0.216590
v 0.239533 0.072622 -0.112618
v 0.297479 -0.043573 -0.168378
v 0.259826 0.072622 -0.047456
v 0.239533 -0.043573 -0.112618
v 0.169550 -0.094409 0.197903
v 0.111864 0.036311 0.234372
v -0.094625 -0.043573 0.342624
v -0.004405 -0.043573 0.354502
v 0.085816 0.072622 0.342624
v 0.085816 -0.043573 0.342624
v 0.203064 0.036311 -0.170308
v 0.239533 0.036311 -0.112618
v 0.332306 0.072622 -0.084305
v 0.262566 0.072622 0.020738
v 0.259826 -0.043573 -0.047456
v 0.239533 -0.094409 -0.112618
v 0.215836 -0.094409 0.147745
v 0.111864 0.072622 0.234372
v 0.169889 0.072622 0.307800
v 0.169889 -0.043573 0.307800
v 0.259826 0.036311 -0.047456
v 0.332306 -0.043573 -0.084305
v 0.332306 0.072622 0.096136
v 0.262566 0.036311 0.020738
v 0.297479 0.072622 0.180209
v 0.259826 -0.094409 -0.047456
v 0.169550 0.036311 0.197903
v 0.215836 -0.043573 0.147745
v 0.242085 0.072622 0.252403
v 0.344182 0.072622 0.005916
v 0.262566 -0.043573 0.020738
v 0.247561 0.036311 0.087318
v 0.247561 0.072622 0.087318
v 0.215836 0.072622 0.147745
v 0.215836 0.036311 0.147745
v 0.169550 0.072622 0.197903
v 0.247561 -0.094409 0.087318
v 0.242085 -0.043573 0.252403
v 0.344182 -0.043573 0.005916
v 0.332306 -0.043573 0.096136
v 0.262566 -0.094409 0.020738
v 0.247561 -0.043573 0.087318
v 0.297479 -0.043573 0.180209

# 25 UV coordinates
vt 0 0 0
vt -0.384949 1.17451 0
vt -0.384033 1.1517 0
vt -0.38163 1.17811 0
vt -0.380436 1.14838 0
vt -0.377493 1.18072 0
vt -0.387225 1.17018 0
vt -0.386649 1.15584 0
vt -0.376102 1.14611 0
vt -0.372819 1.18218 0
vt -0.388104 1.16051 0
vt -0.388301 1.1654 0
vt -0.371327 1.14503 0
vt -0.367928 1.18237 0
vt -0.366437 1.14523 0
vt -0.363154 1.1813 0
vt -0.361763 1.14668 0
vt -0.35882 1.17902 0
vt -0.357626 1.1493 0
vt -0.355223 1.1757 0
vt -0.354307 1.15289 0
vt -0.352607 1.17157 0
vt -0.352031 1.15723 0
vt -0.351152 1.16689 0
vt -0.350955 1.162 0

# 50 vertex normals
vn -0.0127 0 -0.021997
vn -0.006574 0 -0.0245345
vn -0.0179605 0 -0.0179605
vn 0 0.0254 0
vn 0 0 -0.0254
vn -0.0162587 0 -0.0195145
vn -0.0207554 0 -0.0146415
vn -0.010654 0 -0.0230576
vn -0.021997 0 -0.0127
vn 0.0207554 0 0.0146415
vn 0.0162587 0 0.0195145
vn 0.010654 0 0.0230576
vn 0.006574 0 -0.0245345
vn -0.0238377 0 -0.0087707
vn -0.00432321 0 -0.0250294
vn 0.0252955 0 0.00230218
vn 0.0238377 0 0.0087707
vn 0.00432321 0 0.0250294
vn 0.00230218 0 -0.0252955
vn -0.0252955 0 -0.00230218
vn -0.0245345 0 -0.006574
vn -0.00230218 0 0.0252955
vn 0.0127 0 -0.021997
vn 0.0087707 0 -0.0238377
vn -0.0250294 0 0.00432321
vn -0.021997 0 0.0127
vn -0.0245345 0 0.006574
vn 0.0250294 0 -0.00432321
vn -0.0195145 0 0.0162587
vn -0.0230576 0 0.010654
vn -0.0146415 0 0.0207554
vn 0.0230576 0 -0.010654
vn 0.0195145 0 -0.0162587
vn 0.0146415 0 -0.0207554
vn -0.0087707 0 0.0238377
vn -0.0179605 0 0.0179605
vn -0.0254 0 0
vn 0.0179605 0 -0.0179605
vn -0.0127 0 0.021997
vn 0.021997 0 -0.0127
vn -0.006574 0 0.0245345
vn 0 0 0.0254
vn 0.006574 0 0.0245345
vn 0.0245345 0 -0.006574
vn 0.0127 0 0.021997
vn 0.0179605 0 0.0179605
vn 0.0254 0 0
vn 0.021997 0 0.0127
vn 0.0245345 0 0.006574
vn 0 -0.0254 0

# Mesh 'mesh1_mesh1-geometry' with 192 faces
g mesh1_mesh1-geometry
usemtl material_0_24
f  1/1/1 2/1/2 3/1/1
f  2/1/2 1/1/1 4/1/2
f  3/1/1 5/1/3 1/1/1
f  1/1/4 6/1/4 4/1/4
f  4/1/2 7/1/5 2/1/2
f  5/1/3 3/1/1 8/1/3
f  5/1/4 9/1/4 1/1/4
f  1/1/4 10/1/4 6/1/4
f  4/1/4 6/1/4 11/1/4
f  7/1/5 4/1/2 12/1/5
f  13/1/6 14/1/7 15/1/7
f  16/1/8 13/1/6 17/1/8
f  18/1/9 5/1/3 8/1/3
f  5/1/4 19/1/4 9/1/4
f  1/1/4 9/1/4 10/1/4
f  10/1/10 20/1/11 6/1/11
f  20/1/11 11/1/12 6/1/11
f  4/1/4 11/1/4 21/1/4
f  4/1/4 21/1/4 12/1/4
f  12/1/5 22/1/13 7/1/5
f  15/1/7 23/1/14 24/1/14
f  14/1/7 13/1/6 25/1/6
f  23/1/14 15/1/7 14/1/7
f  26/1/15 17/1/8 27/1/15
f  13/1/6 16/1/8 25/1/6
f  17/1/8 26/1/15 16/1/8
f  5/1/3 18/1/9 28/1/9
f  19/1/4 5/1/4 28/1/4
f  19/1/16 29/1/17 9/1/17
f  9/1/17 30/1/10 10/1/10
f  20/1/11 10/1/10 30/1/10
f  11/1/12 20/1/11 31/1/12
f  31/1/12 21/1/18 11/1/12
f  12/1/4 21/1/4 32/1/4
f  22/1/13 12/1/5 33/1/13
f  34/1/19 27/1/15 35/1/19
f  36/1/20 24/1/14 23/1/14
f  27/1/15 34/1/19 26/1/15
f  24/1/14 36/1/20 37/1/20
f  38/1/21 28/1/9 18/1/9
f  28/1/4 39/1/4 19/1/4
f  29/1/17 19/1/16 40/1/16
f  30/1/10 9/1/17 29/1/17
f  21/1/18 31/1/12 41/1/18
f  41/1/18 32/1/22 21/1/18
f  12/1/4 32/1/4 33/1/4
f  33/1/13 42/1/23 22/1/13
f  35/1/19 43/1/24 34/1/19
f  44/1/25 37/1/20 36/1/20
f  28/1/9 38/1/21 45/1/21
f  46/1/26 47/1/27 48/1/27
f  28/1/4 49/1/4 39/1/4
f  19/1/4 39/1/4 50/1/4
f  50/1/28 40/1/16 19/1/16
f  32/1/22 41/1/18 51/1/22
f  33/1/4 32/1/4 52/1/4
f  42/1/23 33/1/13 53/1/23
f  43/1/24 35/1/19 54/1/24
f  55/1/29 56/1/30 57/1/30
f  58/1/31 55/1/29 59/1/31
f  57/1/30 60/1/25 44/1/25
f  61/1/32 62/1/33 63/1/33
f  62/1/33 64/1/34 63/1/33
f  65/1/35 59/1/31 66/1/35
f  67/1/22 66/1/35 68/1/22
f  69/1/34 70/1/24 64/1/34
f  71/1/36 49/1/26 46/1/26
f  37/1/20 44/1/25 60/1/25
f  72/1/37 45/1/21 38/1/21
f  45/1/4 49/1/4 28/1/4
f  47/1/27 46/1/26 49/1/26
f  73/1/37 48/1/27 47/1/27
f  49/1/26 71/1/36 39/1/36
f  50/1/4 39/1/4 74/1/4
f  40/1/16 50/1/28 75/1/28
f  51/1/22 52/1/35 32/1/22
f  33/1/4 52/1/4 53/1/4
f  53/1/23 76/1/38 42/1/23
f  54/1/24 77/1/34 43/1/24
f  75/1/28 74/1/32 61/1/32
f  56/1/30 55/1/29 78/1/29
f  60/1/25 57/1/30 56/1/30
f  55/1/29 58/1/31 78/1/29
f  59/1/31 65/1/35 58/1/31
f  62/1/33 61/1/32 74/1/32
f  64/1/34 62/1/33 69/1/34
f  79/1/18 68/1/22 80/1/18
f  81/1/24 82/1/19 70/1/24
f  66/1/35 67/1/22 65/1/35
f  68/1/22 79/1/18 67/1/22
f  70/1/24 69/1/34 81/1/24
f  45/1/21 72/1/37 73/1/37
f  45/1/4 47/1/4 49/1/4
f  48/1/27 73/1/37 72/1/37
f  47/1/4 45/1/4 73/1/4
f  71/1/36 83/1/39 39/1/36
f  74/1/4 39/1/4 83/1/4
f  74/1/32 75/1/28 50/1/28
f  52/1/35 51/1/22 84/1/35
f  53/1/4 52/1/4 85/1/4
f  76/1/38 53/1/23 86/1/38
f  77/1/34 54/1/24 87/1/34
f  88/1/12 80/1/18 89/1/12
f  90/1/19 91/1/15 82/1/19
f  74/1/4 83/1/4 62/1/4
f  62/1/4 83/1/4 69/1/4
f  80/1/18 88/1/12 79/1/18
f  82/1/19 81/1/24 90/1/19
f  69/1/4 92/1/4 81/1/4
f  83/1/39 71/1/36 93/1/39
f  84/1/35 85/1/31 52/1/35
f  53/1/4 85/1/4 94/1/4
f  53/1/4 94/1/4 86/1/4
f  95/1/40 76/1/38 86/1/38
f  96/1/33 87/1/34 97/1/33
f  87/1/34 96/1/33 77/1/34
f  89/1/12 98/1/11 88/1/12
f  91/1/15 90/1/19 99/1/15
f  69/1/4 83/1/4 92/1/4
f  81/1/4 100/1/4 90/1/4
f  81/1/4 92/1/4 100/1/4
f  93/1/39 92/1/41 83/1/39
f  85/1/31 84/1/35 101/1/31
f  101/1/31 94/1/29 85/1/31
f  86/1/4 94/1/4 102/1/4
f  76/1/38 95/1/40 103/1/40
f  86/1/4 104/1/4 95/1/4
f  105/1/32 96/1/33 97/1/33
f  98/1/11 89/1/12 106/1/11
f  99/1/15 107/1/8 91/1/15
f  90/1/4 100/1/4 99/1/4
f  92/1/41 93/1/39 108/1/41
f  100/1/42 108/1/41 109/1/42
f  110/1/43 109/1/42 111/1/43
f  108/1/41 100/1/42 92/1/41
f  94/1/29 101/1/31 112/1/29
f  94/1/29 113/1/30 102/1/30
f  86/1/4 102/1/4 104/1/4
f  114/1/44 103/1/40 95/1/40
f  95/1/4 104/1/4 115/1/4
f  116/1/28 117/1/32 105/1/32
f  96/1/33 105/1/32 117/1/32
f  118/1/10 98/1/11 106/1/11
f  107/1/8 99/1/15 119/1/8
f  99/1/4 100/1/4 110/1/4
f  109/1/42 110/1/43 100/1/42
f  120/1/45 111/1/43 121/1/45
f  111/1/43 120/1/45 110/1/43
f  113/1/30 94/1/29 112/1/29
f  122/1/25 102/1/30 113/1/30
f  102/1/30 122/1/25 104/1/25
f  103/1/40 114/1/44 123/1/44
f  95/1/4 124/1/4 114/1/4
f  104/1/25 125/1/20 115/1/20
f  95/1/4 115/1/4 126/1/4
f  117/1/32 116/1/28 127/1/28
f  119/1/8 128/1/6 107/1/8
f  98/1/11 118/1/10 129/1/10
f  99/1/4 110/1/4 119/1/4
f  121/1/45 130/1/46 120/1/45
f  119/1/4 110/1/4 120/1/4
f  125/1/20 104/1/25 122/1/25
f  131/1/47 123/1/44 114/1/44
f  95/1/4 126/1/4 124/1/4
f  114/1/4 124/1/4 131/1/4
f  132/1/16 127/1/28 116/1/28
f  133/1/14 115/1/20 125/1/20
f  134/1/4 126/1/4 115/1/4
f  128/1/6 135/1/7 136/1/7
f  128/1/6 119/1/8 137/1/6
f  138/1/17 129/1/10 118/1/10
f  130/1/46 121/1/45 139/1/46
f  135/1/4 120/1/4 130/1/4
f  119/1/4 120/1/4 137/1/4
f  123/1/44 131/1/47 140/1/47
f  126/1/48 141/1/49 124/1/49
f  124/1/49 140/1/47 131/1/47
f  127/1/28 132/1/16 142/1/16
f  115/1/20 133/1/14 134/1/14
f  134/1/4 130/1/4 126/1/4
f  136/1/7 134/1/14 133/1/14
f  135/1/7 128/1/6 137/1/6
f  134/1/14 136/1/7 135/1/7
f  129/1/10 138/1/17 143/1/17
f  144/1/48 130/1/46 139/1/46
f  137/1/4 120/1/4 135/1/4
f  135/1/4 130/1/4 134/1/4
f  141/1/49 126/1/48 144/1/48
f  140/1/47 124/1/49 141/1/49
f  143/1/17 142/1/16 132/1/16
f  130/1/46 144/1/48 126/1/48
f  142/1/16 143/1/17 138/1/17

# Mesh 'mesh1_mesh1-geometry' with 450 faces
g mesh1_mesh1-geometry
usemtl material_1_24
f  3/1/45 2/1/43 1/1/45
f  4/1/43 1/1/45 2/1/43
f  13/1/50 3/1/50 2/1/50
f  2/1/4 3/1/4 13/1/4
f  1/1/45 5/1/46 3/1/45
f  4/1/50 6/1/50 1/1/50
f  2/1/43 7/1/42 4/1/43
f  15/1/50 3/1/50 13/1/50
f  13/1/4 3/1/4 15/1/4
f  13/1/50 2/1/50 17/1/50
f  17/1/4 2/1/4 13/1/4
f  8/1/46 3/1/45 5/1/46
f  1/1/50 9/1/50 5/1/50
f  6/1/50 10/1/50 1/1/50
f  11/1/50 6/1/50 4/1/50
f  12/1/42 4/1/43 7/1/42
f  27/1/50 2/1/50 7/1/50
f  7/1/4 2/1/4 27/1/4
f  24/1/50 3/1/50 15/1/50
f  15/1/4 3/1/4 24/1/4
f  15/1/10 14/1/10 13/1/11
f  15/1/7 20/1/6 13/1/6
f  13/1/11 20/1/11 15/1/10
f  17/1/50 2/1/50 27/1/50
f  27/1/4 2/1/4 17/1/4
f  17/1/12 13/1/11 16/1/12
f  20/1/6 17/1/8 13/1/6
f  13/1/11 17/1/12 20/1/11
f  24/1/50 8/1/50 3/1/50
f  3/1/4 8/1/4 24/1/4
f  8/1/46 5/1/46 18/1/48
f  9/1/50 19/1/50 5/1/50
f  10/1/50 9/1/50 1/1/50
f  6/1/6 20/1/6 10/1/7
f  6/1/6 11/1/8 20/1/6
f  21/1/50 11/1/50 4/1/50
f  12/1/50 21/1/50 4/1/50
f  7/1/42 22/1/41 12/1/42
f  27/1/50 7/1/50 35/1/50
f  35/1/4 7/1/4 27/1/4
f  24/1/17 23/1/17 15/1/10
f  24/1/14 30/1/7 15/1/7
f  15/1/10 30/1/10 24/1/17
f  25/1/11 13/1/11 14/1/10
f  14/1/10 15/1/10 23/1/17
f  20/1/6 15/1/7 30/1/7
f  30/1/10 15/1/10 20/1/11
f  27/1/18 17/1/12 26/1/18
f  31/1/8 27/1/15 17/1/8
f  17/1/12 27/1/18 31/1/12
f  25/1/11 16/1/12 13/1/11
f  16/1/12 26/1/18 17/1/12
f  17/1/8 20/1/6 31/1/8
f  31/1/12 20/1/11 17/1/12
f  37/1/50 8/1/50 24/1/50
f  24/1/4 8/1/4 37/1/4
f  28/1/48 18/1/48 5/1/46
f  46/1/50 18/1/50 8/1/50
f  8/1/4 18/1/4 46/1/4
f  28/1/50 5/1/50 19/1/50
f  9/1/14 29/1/14 19/1/20
f  10/1/7 30/1/7 9/1/14
f  30/1/7 10/1/7 20/1/6
f  31/1/8 20/1/6 11/1/8
f  11/1/8 21/1/15 31/1/8
f  32/1/50 21/1/50 12/1/50
f  33/1/41 12/1/42 22/1/41
f  35/1/50 7/1/50 22/1/50
f  22/1/4 7/1/4 35/1/4
f  35/1/22 27/1/18 34/1/22
f  41/1/15 35/1/19 27/1/15
f  27/1/18 35/1/22 41/1/18
f  23/1/17 24/1/17 36/1/16
f  30/1/7 24/1/14 29/1/14
f  29/1/17 24/1/17 30/1/10
f  55/1/50 14/1/50 25/1/50
f  25/1/4 14/1/4 55/1/4
f  57/1/50 23/1/50 14/1/50
f  14/1/4 23/1/4 57/1/4
f  20/1/50 63/1/50 30/1/50
f  26/1/18 34/1/22 27/1/18
f  27/1/15 31/1/8 41/1/15
f  41/1/18 31/1/12 27/1/18
f  59/1/50 25/1/50 16/1/50
f  16/1/4 25/1/4 59/1/4
f  66/1/50 16/1/50 26/1/50
f  26/1/4 16/1/4 66/1/4
f  31/1/50 64/1/50 20/1/50
f  46/1/50 8/1/50 37/1/50
f  37/1/4 8/1/4 46/1/4
f  37/1/16 36/1/16 24/1/17
f  37/1/20 29/1/14 24/1/14
f  24/1/17 29/1/17 37/1/16
f  18/1/48 28/1/48 38/1/49
f  48/1/50 18/1/50 46/1/50
f  46/1/4 18/1/4 48/1/4
f  19/1/50 39/1/50 28/1/50
f  40/1/20 19/1/20 29/1/14
f  29/1/14 9/1/14 30/1/7
f  41/1/15 31/1/8 21/1/15
f  21/1/15 32/1/19 41/1/15
f  33/1/50 32/1/50 12/1/50
f  22/1/41 42/1/39 33/1/41
f  35/1/50 22/1/50 54/1/50
f  54/1/4 22/1/4 35/1/4
f  34/1/22 43/1/35 35/1/22
f  35/1/19 41/1/15 51/1/19
f  51/1/22 41/1/18 35/1/22
f  23/1/50 44/1/50 36/1/50
f  36/1/4 44/1/4 23/1/4
f  30/1/50 61/1/50 29/1/50
f  57/1/50 14/1/50 55/1/50
f  55/1/4 14/1/4 57/1/4
f  55/1/50 25/1/50 59/1/50
f  59/1/4 25/1/4 55/1/4
f  44/1/50 23/1/50 57/1/50
f  57/1/4 23/1/4 44/1/4
f  63/1/50 61/1/50 30/1/50
f  64/1/50 63/1/50 20/1/50
f  68/1/50 26/1/50 34/1/50
f  34/1/4 26/1/4 68/1/4
f  41/1/50 70/1/50 31/1/50
f  59/1/50 16/1/50 66/1/50
f  66/1/4 16/1/4 59/1/4
f  66/1/50 26/1/50 68/1/50
f  68/1/4 26/1/4 66/1/4
f  70/1/50 64/1/50 31/1/50
f  37/1/50 71/1/50 46/1/50
f  46/1/4 71/1/4 37/1/4
f  36/1/16 37/1/16 44/1/28
f  29/1/14 37/1/20 40/1/20
f  40/1/16 37/1/16 29/1/17
f  45/1/49 38/1/49 28/1/48
f  48/1/50 38/1/50 18/1/50
f  18/1/4 38/1/4 48/1/4
f  48/1/44 47/1/44 46/1/40
f  39/1/50 49/1/50 28/1/50
f  50/1/50 39/1/50 19/1/50
f  19/1/20 40/1/20 50/1/25
f  40/1/50 29/1/50 75/1/50
f  51/1/19 41/1/15 32/1/19
f  52/1/50 32/1/50 33/1/50
f  53/1/39 33/1/41 42/1/39
f  54/1/50 22/1/50 42/1/50
f  42/1/4 22/1/4 54/1/4
f  54/1/35 35/1/22 43/1/35
f  51/1/19 54/1/24 35/1/19
f  35/1/22 54/1/35 51/1/22
f  80/1/50 34/1/50 43/1/50
f  43/1/4 34/1/4 80/1/4
f  51/1/50 82/1/50 41/1/50
f  61/1/50 75/1/50 29/1/50
f  57/1/32 56/1/32 55/1/33
f  59/1/34 55/1/33 58/1/34
f  44/1/28 60/1/28 57/1/32
f  61/1/30 78/1/29 63/1/29
f  63/1/33 78/1/33 61/1/32
f  63/1/29 62/1/29 61/1/30
f  78/1/29 64/1/7 63/1/29
f  63/1/33 64/1/10 78/1/33
f  63/1/29 64/1/31 62/1/29
f  68/1/50 34/1/50 80/1/50
f  80/1/4 34/1/4 68/1/4
f  82/1/50 70/1/50 41/1/50
f  66/1/24 59/1/34 65/1/24
f  68/1/19 66/1/24 67/1/19
f  65/1/24 64/1/7 70/1/24
f  70/1/35 64/1/10 65/1/35
f  64/1/31 70/1/35 69/1/31
f  71/1/50 37/1/50 60/1/50
f  60/1/4 37/1/4 71/1/4
f  46/1/40 49/1/40 71/1/38
f  60/1/28 44/1/28 37/1/16
f  60/1/25 40/1/20 37/1/20
f  37/1/16 40/1/16 60/1/28
f  38/1/49 45/1/49 72/1/47
f  28/1/50 49/1/50 45/1/50
f  38/1/50 48/1/50 72/1/50
f  72/1/4 48/1/4 38/1/4
f  49/1/40 46/1/40 47/1/44
f  47/1/44 48/1/44 73/1/47
f  39/1/38 71/1/38 49/1/40
f  74/1/50 39/1/50 50/1/50
f  75/1/25 50/1/25 40/1/20
f  40/1/20 60/1/25 75/1/25
f  75/1/28 60/1/28 40/1/16
f  32/1/19 52/1/24 51/1/19
f  53/1/50 52/1/50 33/1/50
f  42/1/39 76/1/36 53/1/39
f  54/1/50 42/1/50 87/1/50
f  87/1/4 42/1/4 54/1/4
f  43/1/35 77/1/31 54/1/35
f  54/1/24 51/1/19 84/1/24
f  84/1/35 51/1/22 54/1/35
f  80/1/50 43/1/50 89/1/50
f  89/1/4 43/1/4 80/1/4
f  91/1/50 82/1/50 51/1/50
f  75/1/25 56/1/30 61/1/30
f  61/1/32 56/1/32 75/1/28
f  61/1/30 74/1/30 75/1/25
f  78/1/33 55/1/33 56/1/32
f  56/1/32 57/1/32 60/1/28
f  78/1/33 58/1/34 55/1/33
f  58/1/34 65/1/24 59/1/34
f  78/1/29 61/1/30 56/1/30
f  56/1/32 61/1/32 78/1/33
f  74/1/30 61/1/30 62/1/29
f  64/1/7 78/1/29 58/1/7
f  58/1/10 78/1/33 64/1/10
f  69/1/31 62/1/29 64/1/31
f  80/1/15 68/1/19 79/1/15
f  67/1/16 70/1/24 82/1/16
f  82/1/20 70/1/35 67/1/20
f  70/1/35 82/1/22 81/1/35
f  65/1/24 67/1/19 66/1/24
f  67/1/19 79/1/15 68/1/19
f  64/1/7 65/1/24 58/1/7
f  58/1/10 65/1/35 64/1/10
f  70/1/24 67/1/16 65/1/24
f  65/1/35 67/1/20 70/1/35
f  81/1/35 69/1/31 70/1/35
f  71/1/50 60/1/50 56/1/50
f  56/1/4 60/1/4 71/1/4
f  73/1/47 72/1/47 45/1/49
f  49/1/50 47/1/50 45/1/50
f  72/1/47 73/1/47 48/1/44
f  73/1/50 45/1/50 47/1/50
f  39/1/38 83/1/23 71/1/38
f  83/1/50 39/1/50 74/1/50
f  50/1/25 75/1/25 74/1/30
f  56/1/30 75/1/25 60/1/25
f  60/1/28 75/1/28 56/1/32
f  84/1/24 51/1/19 52/1/24
f  85/1/50 52/1/50 53/1/50
f  86/1/36 53/1/39 76/1/36
f  97/1/50 42/1/50 76/1/50
f  76/1/4 42/1/4 97/1/4
f  87/1/50 42/1/50 97/1/50
f  97/1/4 42/1/4 87/1/4
f  87/1/31 54/1/35 77/1/31
f  84/1/24 87/1/34 54/1/24
f  54/1/35 87/1/31 84/1/35
f  89/1/50 43/1/50 77/1/50
f  77/1/4 43/1/4 89/1/4
f  84/1/50 91/1/50 51/1/50
f  89/1/8 80/1/15 88/1/8
f  67/1/16 91/1/18 82/1/16
f  82/1/20 91/1/15 67/1/20
f  82/1/22 91/1/18 90/1/22
f  93/1/50 56/1/50 78/1/50
f  78/1/4 56/1/4 93/1/4
f  93/1/50 78/1/50 58/1/50
f  58/1/4 78/1/4 93/1/4
f  108/1/50 58/1/50 65/1/50
f  65/1/4 58/1/4 108/1/4
f  62/1/50 83/1/50 74/1/50
f  69/1/50 83/1/50 62/1/50
f  79/1/15 88/1/8 80/1/15
f  90/1/22 81/1/35 82/1/22
f  109/1/50 65/1/50 67/1/50
f  67/1/4 65/1/4 109/1/4
f  109/1/50 67/1/50 79/1/50
f  79/1/4 67/1/4 109/1/4
f  91/1/18 67/1/16 79/1/18
f  79/1/15 67/1/20 91/1/15
f  81/1/50 92/1/50 69/1/50
f  71/1/50 56/1/50 93/1/50
f  93/1/4 56/1/4 71/1/4
f  93/1/23 71/1/38 83/1/23
f  52/1/24 85/1/34 84/1/24
f  94/1/50 85/1/50 53/1/50
f  86/1/50 94/1/50 53/1/50
f  86/1/36 76/1/36 95/1/26
f  97/1/50 76/1/50 105/1/50
f  105/1/4 76/1/4 97/1/4
f  97/1/29 87/1/31 96/1/29
f  101/1/34 97/1/33 87/1/34
f  87/1/31 97/1/29 101/1/31
f  77/1/31 96/1/29 87/1/31
f  87/1/34 84/1/24 101/1/34
f  101/1/31 84/1/35 87/1/31
f  89/1/50 77/1/50 106/1/50
f  106/1/4 77/1/4 89/1/4
f  107/1/50 91/1/50 84/1/50
f  88/1/8 98/1/6 89/1/8
f  99/1/18 90/1/22 91/1/18
f  93/1/50 58/1/50 108/1/50
f  108/1/4 58/1/4 93/1/4
f  108/1/50 65/1/50 109/1/50
f  109/1/4 65/1/4 108/1/4
f  92/1/50 83/1/50 69/1/50
f  107/1/30 79/1/18 88/1/30
f  88/1/32 79/1/15 107/1/32
f  111/1/50 79/1/50 88/1/50
f  88/1/4 79/1/4 111/1/4
f  90/1/50 100/1/50 81/1/50
f  109/1/50 79/1/50 111/1/50
f  111/1/4 79/1/4 109/1/4
f  79/1/18 107/1/30 91/1/18
f  91/1/15 107/1/32 79/1/15
f  100/1/50 92/1/50 81/1/50
f  83/1/23 92/1/13 93/1/23
f  101/1/34 84/1/24 85/1/34
f  85/1/34 94/1/33 101/1/34
f  102/1/50 94/1/50 86/1/50
f  103/1/26 95/1/26 76/1/36
f  95/1/50 104/1/50 86/1/50
f  105/1/50 76/1/50 116/1/50
f  116/1/4 76/1/4 105/1/4
f  97/1/33 113/1/32 105/1/32
f  105/1/30 113/1/30 97/1/29
f  97/1/29 96/1/29 105/1/30
f  97/1/33 101/1/34 112/1/33
f  112/1/29 101/1/31 97/1/29
f  106/1/50 77/1/50 96/1/50
f  96/1/4 77/1/4 106/1/4
f  101/1/50 107/1/50 84/1/50
f  106/1/6 89/1/8 98/1/6
f  91/1/18 107/1/12 99/1/18
f  107/1/30 98/1/6 88/1/30
f  88/1/32 98/1/11 107/1/32
f  121/1/50 88/1/50 98/1/50
f  98/1/4 88/1/4 121/1/4
f  99/1/50 100/1/50 90/1/50
f  108/1/13 93/1/23 92/1/13
f  109/1/5 108/1/13 100/1/5
f  111/1/50 88/1/50 121/1/50
f  121/1/4 88/1/4 111/1/4
f  111/1/2 109/1/5 110/1/2
f  92/1/13 100/1/5 108/1/13
f  112/1/33 101/1/34 94/1/33
f  102/1/32 113/1/32 94/1/33
f  104/1/50 102/1/50 86/1/50
f  95/1/26 103/1/26 114/1/27
f  116/1/50 76/1/50 103/1/50
f  103/1/4 76/1/4 116/1/4
f  115/1/50 104/1/50 95/1/50
f  105/1/32 122/1/15 116/1/15
f  116/1/18 122/1/18 105/1/30
f  105/1/30 117/1/30 116/1/25
f  113/1/32 97/1/33 112/1/33
f  112/1/29 97/1/29 113/1/30
f  122/1/15 105/1/32 113/1/32
f  113/1/30 105/1/30 122/1/18
f  117/1/30 105/1/30 96/1/29
f  112/1/50 128/1/50 101/1/50
f  106/1/50 96/1/50 118/1/50
f  118/1/4 96/1/4 106/1/4
f  128/1/50 107/1/50 101/1/50
f  106/1/6 98/1/6 118/1/7
f  119/1/12 99/1/18 107/1/12
f  98/1/6 107/1/30 128/1/6
f  128/1/11 107/1/32 98/1/11
f  121/1/50 98/1/50 129/1/50
f  129/1/4 98/1/4 121/1/4
f  110/1/50 100/1/50 99/1/50
f  100/1/5 110/1/2 109/1/5
f  121/1/1 111/1/2 120/1/1
f  110/1/2 120/1/1 111/1/2
f  112/1/33 94/1/33 113/1/32
f  113/1/32 102/1/32 122/1/28
f  104/1/28 122/1/28 102/1/32
f  123/1/27 114/1/27 103/1/26
f  114/1/50 124/1/50 95/1/50
f  116/1/50 103/1/50 132/1/50
f  132/1/4 103/1/4 116/1/4
f  115/1/16 125/1/16 104/1/28
f  126/1/50 115/1/50 95/1/50
f  132/1/20 122/1/15 116/1/15
f  116/1/18 122/1/18 132/1/16
f  127/1/25 116/1/25 117/1/30
f  113/1/50 136/1/50 112/1/50
f  122/1/50 133/1/50 113/1/50
f  118/1/50 96/1/50 117/1/50
f  117/1/4 96/1/4 118/1/4
f  136/1/50 128/1/50 112/1/50
f  107/1/12 128/1/11 119/1/12
f  129/1/7 118/1/7 98/1/6
f  119/1/50 110/1/50 99/1/50
f  136/1/7 98/1/6 128/1/6
f  128/1/11 98/1/11 136/1/10
f  98/1/6 136/1/7 129/1/7
f  129/1/10 136/1/10 98/1/11
f  121/1/50 129/1/50 139/1/50
f  139/1/4 129/1/4 121/1/4
f  120/1/1 130/1/3 121/1/1
f  120/1/50 110/1/50 119/1/50
f  122/1/28 104/1/28 125/1/16
f  114/1/27 123/1/27 131/1/37
f  144/1/50 103/1/50 123/1/50
f  123/1/4 103/1/4 144/1/4
f  124/1/50 126/1/50 95/1/50
f  131/1/50 124/1/50 114/1/50
f  144/1/50 132/1/50 103/1/50
f  103/1/4 132/1/4 144/1/4
f  116/1/25 127/1/25 132/1/20
f  125/1/16 115/1/16 133/1/17
f  115/1/50 126/1/50 134/1/50
f  122/1/15 132/1/20 125/1/20
f  125/1/16 132/1/16 122/1/18
f  138/1/50 117/1/50 127/1/50
f  127/1/4 117/1/4 138/1/4
f  133/1/50 136/1/50 113/1/50
f  125/1/50 133/1/50 122/1/50
f  118/1/50 117/1/50 138/1/50
f  138/1/4 117/1/4 118/1/4
f  136/1/10 135/1/10 128/1/11
f  137/1/11 119/1/12 128/1/11
f  118/1/7 129/1/7 138/1/14
f  133/1/14 129/1/7 136/1/7
f  136/1/10 129/1/10 133/1/17
f  139/1/50 129/1/50 143/1/50
f  143/1/4 129/1/4 139/1/4
f  139/1/3 121/1/1 130/1/3
f  130/1/50 120/1/50 135/1/50
f  137/1/50 120/1/50 119/1/50
f  140/1/37 131/1/37 123/1/27
f  144/1/50 123/1/50 141/1/50
f  141/1/4 123/1/4 144/1/4
f  124/1/21 141/1/21 126/1/9
f  131/1/37 140/1/37 124/1/21
f  144/1/50 143/1/50 132/1/50
f  132/1/4 143/1/4 144/1/4
f  142/1/20 132/1/20 127/1/25
f  134/1/17 133/1/17 115/1/16
f  125/1/20 143/1/14 133/1/14
f  133/1/17 143/1/17 125/1/16
f  126/1/50 130/1/50 134/1/50
f  143/1/14 125/1/20 132/1/20
f  132/1/16 125/1/16 143/1/17
f  138/1/50 127/1/50 142/1/50
f  142/1/4 127/1/4 138/1/4
f  133/1/17 134/1/17 136/1/10
f  137/1/11 128/1/11 135/1/10
f  135/1/10 136/1/10 134/1/17
f  143/1/14 138/1/14 129/1/7
f  129/1/7 133/1/14 143/1/14
f  143/1/17 133/1/17 129/1/10
f  139/1/50 143/1/50 144/1/50
f  144/1/4 143/1/4 139/1/4
f  139/1/3 130/1/3 144/1/9
f  135/1/50 120/1/50 137/1/50
f  134/1/50 130/1/50 135/1/50
f  141/1/50 123/1/50 140/1/50
f  140/1/4 123/1/4 141/1/4
f  144/1/9 126/1/9 141/1/21
f  141/1/21 124/1/21 140/1/37
f  132/1/20 142/1/20 143/1/14
f  126/1/9 144/1/9 130/1/3
f  138/1/14 143/1/14 142/1/20

# Mesh 'mesh1_mesh1-geometry' with 22 faces
g mesh1_mesh1-geometry
usemtl material_2_1_8
f  30/2/4 63/3/4 20/4/4
f  20/4/4 64/5/4 31/6/4
f  29/7/4 61/8/4 30/2/4
f  30/2/4 61/8/4 63/3/4
f  20/4/4 63/3/4 64/5/4
f  31/6/4 70/9/4 41/10/4
f  31/6/4 64/5/4 70/9/4
f  75/11/4 29/7/4 40/12/4
f  41/10/4 82/13/4 51/14/4
f  29/7/4 75/11/4 61/8/4
f  41/10/4 70/9/4 82/13/4
f  51/14/4 82/13/4 91/15/4
f  51/14/4 91/15/4 84/16/4
f  84/16/4 91/15/4 107/17/4
f  84/16/4 107/17/4 101/18/4
f  101/18/4 128/19/4 112/20/4
f  101/18/4 107/17/4 128/19/4
f  112/20/4 136/21/4 113/22/4
f  113/22/4 133/23/4 122/24/4
f  112/20/4 128/19/4 136/21/4
f  113/22/4 136/21/4 133/23/4
f  122/24/4 133/23/4 125/25/4

# Mesh 'mesh2_mesh2-geometry' with 13 faces
g mesh2_mesh2-geometry
usemtl material_1_0
l  129 143
l  98 129
l  143 132
l  88 98
l  132 116
l  79 88
l  116 105
l  67 79
l  105 97
l  65 67
l  58 65
l  78 58
l  56 78

# Mesh 'mesh3_mesh3-geometry' with 1 faces
g mesh3_mesh3-geometry
usemtl material_1_0
l  96 77

# Mesh 'mesh4_mesh4-geometry' with 1 faces
g mesh4_mesh4-geometry
usemtl material_1_0
l  57 55

