# File produced by Open Asset Import Library (http://www.assimp.sf.net)
# (assimp v3.2.202087883)

mtllib model_normalized.mtl

# 48 vertex positions
v -0.405065 0.113019 0.202239
v -0.390996 0.113019 0.188170
v -0.405065 0.113019 -0.219825
v 0.439064 0.113019 0.202239
v -0.390996 0.113019 -0.205756
v -0.405065 0.107392 0.202239
v 0.424996 0.113019 0.188170
v 0.439064 0.113019 -0.219825
v -0.390996 0.107392 -0.205756
v -0.405065 0.107392 -0.219825
v 0.439064 0.107392 0.202239
v 0.424996 0.113019 -0.205756
v 0.424996 0.107392 0.188170
v 0.439064 0.107392 -0.219825
v -0.390996 0.107392 0.188170
v 0.424996 0.107392 -0.205756
v -0.390996 0.107392 -0.008793
v 0.424996 0.107392 -0.008793
v 0.017000 0.107392 -0.205756
v 0.017000 0.107392 0.188170
v 0.439064 0.107392 -0.205756
v 0.424996 0.107392 -0.219825
v 0.424996 -0.217598 -0.205756
v 0.439064 -0.217598 -0.219825
v 0.424996 -0.217598 -0.219825
v 0.439064 -0.217598 -0.205756
v -0.390996 0.107392 0.202239
v -0.405065 0.107392 0.188170
v -0.405065 0.107392 0.202239
v -0.390996 0.107392 0.188170
v -0.405065 -0.217598 0.202239
v -0.390996 -0.217598 0.188170
v -0.405065 -0.217598 0.188170
v -0.390996 -0.217598 0.202239
v 0.439064 0.107392 0.202239
v 0.424996 0.107392 0.202239
v 0.439064 0.107392 0.188170
v 0.424996 -0.217598 0.202239
v 0.439064 -0.217598 0.188170
v 0.424996 -0.217598 0.188170
v 0.439064 -0.217598 0.202239
v -0.390996 0.107392 -0.205756
v -0.405065 0.107392 -0.205756
v -0.390996 0.107392 -0.219825
v -0.405065 -0.217598 -0.205756
v -0.390996 -0.217598 -0.219825
v -0.405065 -0.217598 -0.219825
v -0.390996 -0.217598 -0.205756

# 0 UV coordinates

# 12 vertex normals
vn 0 0.001 0
vn 0 -0.001 -0
vn -0.001 0 -0
vn 0.001 0 0
vn 0 0 0.001
vn 0 0 -0.001
vn 0 0.0254 0
vn 0 -0.0254 0
vn -0.0254 0 0
vn 0.0254 0 0
vn 0 0 0.0254
vn -0 0 -0.0254

# Mesh 'mesh1_mesh1-geometry' with 64 faces
g mesh1_mesh1-geometry
usemtl material_0_24
f  1//1 2//1 3//1
f  2//1 1//1 4//1
f  3//2 2//2 1//2
f  4//2 1//2 2//2
f  5//1 3//1 2//1
f  2//2 3//2 5//2
f  3//3 6//3 1//3
f  1//4 6//4 3//4
f  6//5 4//5 1//5
f  1//6 4//6 6//6
f  2//1 4//1 7//1
f  7//2 4//2 2//2
f  3//1 5//1 8//1
f  8//2 5//2 3//2
f  2//4 9//4 5//4
f  5//3 9//3 2//3
f  6//3 3//3 10//3
f  10//4 3//4 6//4
f  4//5 6//5 11//5
f  11//6 6//6 4//6
f  7//1 4//1 12//1
f  12//2 4//2 7//2
f  13//6 2//6 7//6
f  7//5 2//5 13//5
f  8//1 5//1 12//1
f  12//2 5//2 8//2
f  14//6 3//6 8//6
f  8//5 3//5 14//5
f  9//4 2//4 15//4
f  15//3 2//3 9//3
f  9//5 12//5 5//5
f  5//6 12//6 9//6
f  3//6 14//6 10//6
f  10//5 14//5 3//5
f  10//2 9//2 6//2
f  6//1 9//1 10//1
f  6//2 15//2 11//2
f  11//1 15//1 6//1
f  14//4 4//4 11//4
f  11//3 4//3 14//3
f  8//1 12//1 4//1
f  4//2 12//2 8//2
f  12//3 13//3 7//3
f  7//4 13//4 12//4
f  2//6 13//6 15//6
f  15//5 13//5 2//5
f  4//4 14//4 8//4
f  8//3 14//3 4//3
f  15//2 6//2 9//2
f  9//1 6//1 15//1
f  12//5 9//5 16//5
f  16//6 9//6 12//6
f  9//2 10//2 14//2
f  14//1 10//1 9//1
f  11//2 15//2 13//2
f  13//1 15//1 11//1
f  11//2 13//2 14//2
f  14//1 13//1 11//1
f  13//3 12//3 16//3
f  16//4 12//4 13//4
f  9//2 14//2 16//2
f  16//1 14//1 9//1
f  16//2 14//2 13//2
f  13//1 14//1 16//1

# Mesh 'mesh2_mesh2-geometry' with 12 faces
g mesh2_mesh2-geometry
usemtl material_1_0
l  1 6
l  3 1
l  1 4
l  6 11
l  10 6
l  8 3
l  3 10
l  4 8
l  4 11
l  11 14
l  14 10
l  8 14

# Mesh 'mesh3_mesh3-geometry' with 12 faces
g mesh3_mesh3-geometry
usemtl material_1_0
l  12 5
l  7 12
l  12 16
l  5 2
l  5 9
l  2 7
l  7 13
l  13 16
l  16 9
l  2 15
l  9 15
l  15 13

# Mesh 'mesh4_mesh4-geometry' with 40 faces
g mesh4_mesh4-geometry
usemtl material_2_24
f  7//1 5//1 2//1
f  5//1 7//1 12//1
f  2//2 5//2 7//2
f  12//2 7//2 5//2
f  5//3 17//3 2//3
f  2//4 17//4 5//4
f  15//5 7//5 2//5
f  2//6 7//6 15//6
f  7//4 16//4 12//4
f  12//3 16//3 7//3
f  16//6 5//6 12//6
f  12//5 5//5 16//5
f  17//3 5//3 9//3
f  9//4 5//4 17//4
f  2//3 17//3 15//3
f  15//4 17//4 2//4
f  7//5 15//5 13//5
f  13//6 15//6 7//6
f  16//4 7//4 18//4
f  18//3 7//3 16//3
f  5//6 16//6 9//6
f  9//5 16//5 5//5
f  19//2 17//2 9//2
f  9//1 17//1 19//1
f  20//2 15//2 17//2
f  17//1 15//1 20//1
f  13//5 15//5 20//5
f  20//6 15//6 13//6
f  18//4 7//4 13//4
f  13//3 7//3 18//3
f  18//2 19//2 16//2
f  16//1 19//1 18//1
f  9//6 16//6 19//6
f  19//5 16//5 9//5
f  19//2 20//2 17//2
f  17//1 20//1 19//1
f  13//2 20//2 18//2
f  18//1 20//1 13//1
f  20//2 19//2 18//2
f  18//1 19//1 20//1

# Mesh 'mesh5_mesh5-geometry' with 20 faces
g mesh5_mesh5-geometry
usemtl material_1_0
l  12 7
l  5 12
l  12 16
l  7 2
l  7 13
l  2 5
l  5 9
l  16 18
l  19 16
l  2 15
l  13 20
l  18 13
l  9 19
l  17 9
l  19 18
l  18 20
l  17 19
l  15 17
l  20 15
l  20 17

# Mesh 'mesh6_mesh6-geometry' with 24 faces
g mesh6_mesh6-geometry
usemtl material_0_24
f  21//7 22//7 16//7
f  22//7 21//7 14//7
f  16//8 22//8 21//8
f  14//8 21//8 22//8
f  22//9 23//9 16//9
f  16//10 23//10 22//10
f  23//11 21//11 16//11
f  16//12 21//12 23//12
f  21//10 24//10 14//10
f  14//9 24//9 21//9
f  24//12 22//12 14//12
f  14//11 22//11 24//11
f  23//9 22//9 25//9
f  25//10 22//10 23//10
f  21//11 23//11 26//11
f  26//12 23//12 21//12
f  24//10 21//10 26//10
f  26//9 21//9 24//9
f  22//12 24//12 25//12
f  25//11 24//11 22//11
f  24//8 23//8 25//8
f  25//7 23//7 24//7
f  23//8 24//8 26//8
f  26//7 24//7 23//7

# Mesh 'mesh7_mesh7-geometry' with 12 faces
g mesh7_mesh7-geometry
usemtl material_1_0
l  16 21
l  22 16
l  16 23
l  21 14
l  21 26
l  14 22
l  22 25
l  23 26
l  25 23
l  14 24
l  26 24
l  24 25

# Mesh 'mesh6_mesh6-geometry' with 24 faces
g mesh6_mesh6-geometry
usemtl material_0_24
f  27//7 28//7 29//7
f  28//7 27//7 30//7
f  29//8 28//8 27//8
f  30//8 27//8 28//8
f  28//9 31//9 29//9
f  29//10 31//10 28//10
f  31//11 27//11 29//11
f  29//12 27//12 31//12
f  27//10 32//10 30//10
f  30//9 32//9 27//9
f  32//12 28//12 30//12
f  30//11 28//11 32//11
f  31//9 28//9 33//9
f  33//10 28//10 31//10
f  27//11 31//11 34//11
f  34//12 31//12 27//12
f  32//10 27//10 34//10
f  34//9 27//9 32//9
f  28//12 32//12 33//12
f  33//11 32//11 28//11
f  32//8 31//8 33//8
f  33//7 31//7 32//7
f  31//8 32//8 34//8
f  34//7 32//7 31//7

# Mesh 'mesh7_mesh7-geometry' with 12 faces
g mesh7_mesh7-geometry
usemtl material_1_0
l  29 27
l  28 29
l  29 31
l  27 30
l  27 34
l  30 28
l  28 33
l  31 34
l  33 31
l  30 32
l  34 32
l  32 33

# Mesh 'mesh6_mesh6-geometry' with 24 faces
g mesh6_mesh6-geometry
usemtl material_0_24
f  35//7 13//7 36//7
f  13//7 35//7 37//7
f  36//8 13//8 35//8
f  37//8 35//8 13//8
f  13//9 38//9 36//9
f  36//10 38//10 13//10
f  38//11 35//11 36//11
f  36//12 35//12 38//12
f  35//10 39//10 37//10
f  37//9 39//9 35//9
f  39//12 13//12 37//12
f  37//11 13//11 39//11
f  38//9 13//9 40//9
f  40//10 13//10 38//10
f  35//11 38//11 41//11
f  41//12 38//12 35//12
f  39//10 35//10 41//10
f  41//9 35//9 39//9
f  13//12 39//12 40//12
f  40//11 39//11 13//11
f  39//8 38//8 40//8
f  40//7 38//7 39//7
f  38//8 39//8 41//8
f  41//7 39//7 38//7

# Mesh 'mesh7_mesh7-geometry' with 12 faces
g mesh7_mesh7-geometry
usemtl material_1_0
l  36 35
l  13 36
l  36 38
l  35 37
l  35 41
l  37 13
l  13 40
l  38 41
l  40 38
l  37 39
l  41 39
l  39 40

# Mesh 'mesh6_mesh6-geometry' with 24 faces
g mesh6_mesh6-geometry
usemtl material_0_24
f  42//7 10//7 43//7
f  10//7 42//7 44//7
f  43//8 10//8 42//8
f  44//8 42//8 10//8
f  10//9 45//9 43//9
f  43//10 45//10 10//10
f  45//11 42//11 43//11
f  43//12 42//12 45//12
f  42//10 46//10 44//10
f  44//9 46//9 42//9
f  46//12 10//12 44//12
f  44//11 10//11 46//11
f  45//9 10//9 47//9
f  47//10 10//10 45//10
f  42//11 45//11 48//11
f  48//12 45//12 42//12
f  46//10 42//10 48//10
f  48//9 42//9 46//9
f  10//12 46//12 47//12
f  47//11 46//11 10//11
f  46//8 45//8 47//8
f  47//7 45//7 46//7
f  45//8 46//8 48//8
f  48//7 46//7 45//7

# Mesh 'mesh7_mesh7-geometry' with 12 faces
g mesh7_mesh7-geometry
usemtl material_1_0
l  43 42
l  10 43
l  43 45
l  42 44
l  42 48
l  44 10
l  10 47
l  45 48
l  47 45
l  44 46
l  48 46
l  46 47

