# File produced by Open Asset Import Library (http://www.assimp.sf.net)
# (assimp v3.2.202087883)

mtllib model_normalized.mtl

# 74 vertex positions
v -0.410034 0.082812 0.176060
v -0.433906 0.082812 -0.176060
v -0.433906 0.082812 0.176060
v -0.410034 0.082812 -0.176060
v -0.433906 0.059444 0.176060
v -0.410034 0.082812 0.199932
v -0.410034 0.059444 -0.176060
v -0.433906 0.082812 -0.199932
v -0.433906 0.059444 -0.176060
v -0.433906 -0.263340 0.176060
v -0.433906 0.082812 0.199932
v 0.389695 0.082812 0.199932
v -0.410034 0.059444 0.199932
v -0.410034 0.059444 0.176060
v -0.410034 0.082812 -0.199932
v -0.239942 0.082812 -0.176060
v -0.433906 -0.263340 0.199932
v -0.410034 -0.263340 0.176060
v -0.239942 0.082812 0.176060
v -0.239942 0.059444 0.176060
v -0.410034 0.059444 -0.199932
v -0.239942 0.059444 -0.176060
v -0.433906 -0.263340 -0.176060
v -0.216070 0.082812 0.176060
v 0.389695 0.059444 0.199932
v -0.410034 -0.263340 0.199932
v 0.389695 0.059444 -0.199932
v -0.410034 -0.263340 -0.176060
v 0.389695 0.082812 -0.199932
v -0.410034 -0.263340 -0.199932
v -0.433906 -0.263340 -0.199932
v -0.022106 0.082812 0.176060
v 0.389695 0.082812 0.176060
v 0.413568 0.082812 0.199932
v -0.216070 0.082812 -0.176060
v -0.216070 0.059444 -0.176060
v 0.001767 0.082812 0.176060
v -0.022106 0.059444 0.176060
v -0.216070 0.059444 0.176060
v 0.389695 -0.263340 0.199932
v 0.213772 0.082812 0.176060
v 0.413568 0.082812 -0.199932
v 0.389695 -0.263340 -0.199932
v -0.022106 0.082812 -0.176060
v -0.022106 0.059444 -0.176060
v 0.189763 0.082812 0.176060
v 0.389695 -0.263340 0.176060
v 0.389695 0.060942 0.176060
v 0.413568 0.082812 0.176060
v 0.413568 -0.263340 0.199932
v 0.413568 -0.263340 -0.199932
v 0.413568 0.082812 -0.176060
v 0.389695 -0.263340 -0.176060
v 0.001767 0.082812 -0.176060
v 0.001767 0.059444 -0.176060
v 0.189763 0.059444 0.176060
v 0.001767 0.059444 0.176060
v 0.413568 -0.263340 0.176060
v 0.189763 0.082812 -0.176060
v 0.389695 0.059444 0.176060
v 0.413568 0.060942 0.176060
v 0.389695 0.082812 -0.176060
v 0.389695 0.059444 -0.176060
v 0.189763 0.059444 -0.176060
v 0.213772 0.082812 -0.176060
v 0.213772 0.059444 0.176060
v 0.413568 0.060942 -0.176060
v 0.389695 0.060942 -0.176060
v 0.413568 -0.263340 -0.176060
v 0.213772 0.059444 -0.176060
v -0.433906 0.085796 -0.199932
v 0.413568 0.085796 -0.199932
v 0.413568 0.085796 0.199932
v -0.433906 0.085796 0.199932

# 107 UV coordinates
vt 0.037037 0.037037 0
vt 0 0.583333 0
vt 0 0.037037 0
vt 0.037037 0.583333 0
vt -0.583333 0.537037 0
vt -0.037037 0.500783 0
vt -0.037037 0.537037 0
vt 0.037037 0 0
vt 0 0.500783 0
vt 0.037037 0.537037 0
vt 0 0.537037 0
vt 0.583333 0.500783 0
vt 0.583333 0.537037 0
vt 0 0.62037 0
vt -0.583333 0.500783 0
vt -0.037037 0 0
vt 0 0 0
vt 1.27778 0 0
vt 0.037037 0.500783 0
vt -0.62037 0.537037 0
vt 0.300926 0.537037 0
vt 0.037037 0.62037 0
vt -0.037037 0.583333 0
vt 0.300926 0.037037 0
vt 1.27778 0.537037 0
vt -0.037037 0.037037 0
vt -0.300926 0.500783 0
vt -0.62037 0.500783 0
vt 0.300926 0.583333 0
vt 0.300926 0.500783 0
vt -0.583333 0 0
vt 0.337963 0.037037 0
vt -0.300926 0.537037 0
vt 1.27778 0.500783 0
vt -0.300926 0.037037 0
vt -1.27778 0.500783 0
vt -1.27778 0.62037 0
vt -0.037037 0.62037 0
vt 1.27778 0.62037 0
vt -0.300926 0.583333 0
vt -0.62037 0 0
vt 0.638889 0.037037 0
vt -1.27778 0 0
vt 1.31482 0.537037 0
vt -1.27778 0.537037 0
vt 0.337963 0.583333 0
vt -0.337963 0.583333 0
vt 0.675926 0.037037 0
vt -0.638889 0.500783 0
vt -0.337963 0.537037 0
vt -0.638889 0.537037 0
vt -0.337963 0.037037 0
vt 1.00484 0.037037 0
vt 1.27778 0.037037 0
vt 1.31482 0 0
vt -1.31482 0.537037 0
vt 0.638889 0.583333 0
vt -0.638889 0.583333 0
vt 0.967593 0.037037 0
vt -0.337963 0.500783 0
vt -0.638889 0.037037 0
vt -1.27778 0.503107 0
vt -1.00484 0.537037 0
vt 1.31482 0.037037 0
vt -1.31482 0 0
vt 1.31482 0.583333 0
vt 1.31482 0.62037 0
vt 0.337963 0.500783 0
vt 0.638889 0.537037 0
vt 0.337963 0.537037 0
vt 0.675926 0.583333 0
vt -0.675926 0.583333 0
vt 0.638889 0.500783 0
vt -0.967593 0.500783 0
vt -0.675926 0.537037 0
vt -0.967593 0.537037 0
vt -0.675926 0.037037 0
vt -0.037037 0.503107 0
vt -1.31482 0.037037 0
vt -1.27778 0.037037 0
vt 0.967593 0.583333 0
vt -1.31482 0.503107 0
vt 1.27778 0.583333 0
vt 0.62037 0 0
vt 0.62037 0.537037 0
vt -1.31482 0.62037 0
vt -1.27778 0.583333 0
vt -0.967593 0.583333 0
vt -0.675926 0.500783 0
vt -0.967593 0.037037 0
vt 1.00484 0.583333 0
vt -1.00484 0.500783 0
vt -1.31482 0.583333 0
vt 0.037037 0.503107 0
vt 0.583333 0.503107 0
vt -0.583333 0.503107 0
vt 1.27778 0.503107 0
vt 1.31482 0.503107 0
vt 0.675926 0.500783 0
vt 0.967593 0.537037 0
vt 0.675926 0.537037 0
vt -1.00484 0.583333 0
vt 0.967593 0.500783 0
vt -1.00484 0.037037 0
vt 0.583333 0 0
vt 1.00484 0.537037 0
vt 1.00484 0.500783 0

# 6 vertex normals
vn 0 0.0254 0
vn -0 -0.0254 0
vn -0.0254 0 0
vn 0.0254 0 0
vn 0 0 0.0254
vn 0 0 -0.0254

# Mesh 'mesh1_mesh1-geometry' with 340 faces
g mesh1_mesh1-geometry
usemtl material_0_1_8
f  1/1/1 2/2/1 3/3/1
f  2/2/1 1/1/1 4/4/1
f  3/3/2 2/2/2 1/1/2
f  4/4/2 1/1/2 2/2/2
f  2/5/3 5/6/3 3/7/3
f  3/7/4 5/6/4 2/5/4
f  3/3/1 6/8/1 1/1/1
f  1/1/2 6/8/2 3/3/2
f  5/9/5 1/10/5 3/11/5
f  3/11/6 1/10/6 5/9/6
f  1/10/4 7/12/4 4/13/4
f  4/13/3 7/12/3 1/10/3
f  7/6/6 2/11/6 4/7/6
f  4/7/5 2/11/5 7/6/5
f  4/4/1 8/14/1 2/2/1
f  2/2/2 8/14/2 4/4/2
f  5/6/3 2/5/3 9/15/3
f  9/15/4 2/5/4 5/6/4
f  10/16/3 3/7/3 5/6/3
f  5/6/4 3/7/4 10/16/4
f  6/8/1 3/3/1 11/17/1
f  11/17/2 3/3/2 6/8/2
f  12/18/1 1/1/1 6/8/1
f  6/8/2 1/1/2 12/18/2
f  1/7/3 13/9/3 6/11/3
f  6/11/4 13/9/4 1/7/4
f  1/10/5 5/9/5 14/19/5
f  14/19/6 5/9/6 1/10/6
f  7/12/4 1/10/4 14/19/4
f  14/19/3 1/10/3 7/12/3
f  15/20/3 7/15/3 4/5/3
f  4/5/4 7/15/4 15/20/4
f  7/19/5 16/21/5 4/10/5
f  4/10/6 16/21/6 7/19/6
f  2/11/6 7/6/6 9/9/6
f  9/9/5 7/6/5 2/11/5
f  8/14/1 4/4/1 15/22/1
f  15/22/2 4/4/2 8/14/2
f  8/20/3 9/15/3 2/5/3
f  2/5/4 9/15/4 8/20/4
f  7/23/2 5/3/2 9/2/2
f  9/2/1 5/3/1 7/23/1
f  17/17/3 3/7/3 10/16/3
f  10/16/4 3/7/4 17/17/4
f  5/9/6 18/16/6 10/17/6
f  10/17/5 18/16/5 5/9/5
f  3/7/3 17/17/3 11/11/3
f  11/11/4 17/17/4 3/7/4
f  11/11/5 13/19/5 6/10/5
f  6/10/6 13/19/6 11/11/6
f  1/1/1 12/18/1 19/24/1
f  19/24/2 12/18/2 1/1/2
f  13/19/5 12/25/5 6/10/5
f  6/10/6 12/25/6 13/19/6
f  13/9/3 1/7/3 14/6/3
f  14/6/4 1/7/4 13/9/4
f  18/16/6 5/9/6 14/6/6
f  14/6/5 5/9/5 18/16/5
f  5/3/2 7/23/2 14/26/2
f  14/26/1 7/23/1 5/3/1
f  1/7/6 20/27/6 14/6/6
f  14/6/5 20/27/5 1/7/5
f  7/15/3 15/20/3 21/28/3
f  21/28/4 15/20/4 7/15/4
f  16/29/1 15/22/1 4/4/1
f  4/4/2 15/22/2 16/29/2
f  16/21/5 7/19/5 22/30/5
f  22/30/6 7/19/6 16/21/6
f  23/17/5 7/19/5 9/9/5
f  9/9/6 7/19/6 23/17/6
f  21/6/6 8/11/6 15/7/6
f  15/7/5 8/11/5 21/6/5
f  9/15/3 8/20/3 23/31/3
f  23/31/4 8/20/4 9/15/4
f  17/17/5 13/19/5 11/11/5
f  11/11/6 13/19/6 17/17/6
f  19/24/1 12/18/1 24/32/1
f  24/32/2 12/18/2 19/24/2
f  20/27/6 1/7/6 19/33/6
f  19/33/5 1/7/5 20/27/5
f  12/25/5 13/19/5 25/34/5
f  25/34/6 13/19/6 12/25/6
f  14/6/3 26/17/3 13/9/3
f  13/9/4 26/17/4 14/6/4
f  20/35/2 13/16/2 14/26/2
f  14/26/1 13/16/1 20/35/1
f  26/17/3 14/6/3 18/16/3
f  18/16/4 14/6/4 26/17/4
f  15/7/6 27/36/6 21/6/6
f  21/6/5 27/36/5 15/7/5
f  27/37/2 7/23/2 21/38/2
f  21/38/1 7/23/1 27/37/1
f  21/28/3 28/31/3 7/15/3
f  7/15/4 28/31/4 21/28/4
f  15/22/1 16/29/1 29/39/1
f  29/39/2 16/29/2 15/22/2
f  7/23/2 27/37/2 22/40/2
f  22/40/1 27/37/1 7/23/1
f  20/6/3 16/5/3 22/15/3
f  22/15/4 16/5/4 20/6/4
f  7/19/5 23/17/5 28/8/5
f  28/8/6 23/17/6 7/19/6
f  30/16/6 8/11/6 21/6/6
f  21/6/5 8/11/5 30/16/5
f  23/31/3 8/20/3 31/41/3
f  31/41/4 8/20/4 23/31/4
f  13/19/5 17/17/5 26/8/5
f  26/8/6 17/17/6 13/19/6
f  24/32/1 12/18/1 32/42/1
f  32/42/2 12/18/2 24/32/2
f  24/32/1 16/29/1 19/24/1
f  19/24/2 16/29/2 24/32/2
f  16/5/3 20/6/3 19/7/3
f  19/7/4 20/6/4 16/5/4
f  13/16/2 20/35/2 25/43/2
f  25/43/1 20/35/1 13/16/1
f  33/7/3 25/9/3 12/11/3
f  12/11/4 25/9/4 33/7/4
f  25/34/5 34/44/5 12/25/5
f  12/25/6 34/44/6 25/34/6
f  27/36/6 15/7/6 29/45/6
f  29/45/5 15/7/5 27/36/5
f  28/31/3 21/28/3 30/41/3
f  30/41/4 21/28/4 28/31/4
f  29/39/1 16/29/1 35/46/1
f  35/46/2 16/29/2 29/39/2
f  22/40/2 27/37/2 36/47/2
f  36/47/1 27/37/1 22/40/1
f  22/40/2 36/47/2 20/35/2
f  20/35/1 36/47/1 22/40/1
f  23/2/2 30/38/2 28/23/2
f  28/23/1 30/38/1 23/2/1
f  8/11/6 30/16/6 31/17/6
f  31/17/5 30/16/5 8/11/5
f  30/38/2 23/2/2 31/14/2
f  31/14/1 23/2/1 30/38/1
f  32/42/1 12/18/1 37/48/1
f  37/48/2 12/18/2 32/42/2
f  38/49/6 24/50/6 32/51/6
f  32/51/5 24/50/5 38/49/5
f  16/29/1 24/32/1 35/46/1
f  35/46/2 24/32/2 16/29/2
f  25/43/2 20/35/2 39/52/2
f  39/52/1 20/35/1 25/43/1
f  25/9/3 33/7/3 40/17/3
f  40/17/4 33/7/4 25/9/4
f  41/53/1 12/18/1 33/54/1
f  33/54/2 12/18/2 41/53/2
f  34/55/1 33/54/1 12/18/1
f  12/18/2 33/54/2 34/55/2
f  40/18/5 34/44/5 25/34/5
f  25/34/6 34/44/6 40/18/6
f  42/56/6 27/36/6 29/45/6
f  29/45/5 27/36/5 42/56/5
f  43/41/3 29/20/3 27/28/3
f  27/28/4 29/20/4 43/41/4
f  29/39/1 35/46/1 44/57/1
f  44/57/2 35/46/2 29/39/2
f  36/47/2 27/37/2 45/58/2
f  45/58/1 27/37/1 36/47/1
f  39/52/2 20/35/2 36/47/2
f  36/47/1 20/35/1 39/52/1
f  37/48/1 12/18/1 46/59/1
f  46/59/2 12/18/2 37/48/2
f  37/48/1 44/57/1 32/42/1
f  32/42/2 44/57/2 37/48/2
f  24/50/6 38/49/6 39/60/6
f  39/60/5 38/49/5 24/50/5
f  44/5/3 38/6/3 32/7/3
f  32/7/4 38/6/4 44/5/4
f  24/10/4 36/12/4 35/13/4
f  35/13/3 36/12/3 24/10/3
f  25/43/2 39/52/2 38/61/2
f  38/61/1 39/52/1 25/43/1
f  40/17/3 33/7/3 47/16/3
f  47/16/4 33/7/4 40/17/4
f  46/59/1 12/18/1 41/53/1
f  41/53/2 12/18/2 46/59/2
f  48/62/6 41/63/6 33/45/6
f  33/45/5 41/63/5 48/62/5
f  33/54/1 34/55/1 49/64/1
f  49/64/2 34/55/2 33/54/2
f  34/44/5 40/18/5 50/55/5
f  50/55/6 40/18/6 34/44/6
f  51/65/6 27/36/6 42/56/6
f  42/56/5 27/36/5 51/65/5
f  29/39/1 52/66/1 42/67/1
f  42/67/2 52/66/2 29/39/2
f  53/31/3 29/20/3 43/41/3
f  43/41/4 29/20/4 53/31/4
f  27/36/6 51/65/6 43/43/6
f  43/43/5 51/65/5 27/36/5
f  36/68/5 44/69/5 35/70/5
f  35/70/6 44/69/6 36/68/6
f  29/39/1 44/57/1 54/71/1
f  54/71/2 44/57/2 29/39/2
f  45/58/2 27/37/2 55/72/2
f  55/72/1 27/37/1 45/58/1
f  44/69/5 36/68/5 45/73/5
f  45/73/6 36/68/6 44/69/6
f  36/12/4 24/10/4 39/19/4
f  39/19/3 24/10/3 36/12/3
f  56/74/6 37/75/6 46/76/6
f  46/76/5 37/75/5 56/74/5
f  44/57/1 37/48/1 54/71/1
f  54/71/2 37/48/2 44/57/2
f  38/6/3 44/5/3 45/15/3
f  45/15/4 44/5/4 38/6/4
f  25/43/2 38/61/2 57/77/2
f  57/77/1 38/61/1 25/43/1
f  47/16/3 33/7/3 48/78/3
f  48/78/4 33/7/4 47/16/4
f  58/79/2 40/43/2 47/80/2
f  47/80/1 40/43/1 58/79/1
f  41/53/1 59/81/1 46/59/1
f  46/59/2 59/81/2 41/53/2
f  60/36/6 41/63/6 48/62/6
f  48/62/5 41/63/5 60/36/5
f  33/45/6 61/82/6 48/62/6
f  48/62/5 61/82/5 33/45/5
f  62/5/3 48/78/3 33/7/3
f  33/7/4 48/78/4 62/5/4
f  34/11/4 58/8/4 49/10/4
f  49/10/3 58/8/3 34/11/3
f  49/64/1 62/83/1 33/54/1
f  33/54/2 62/83/2 49/64/2
f  61/82/6 33/45/6 49/56/6
f  49/56/5 33/45/5 61/82/5
f  40/43/2 58/79/2 50/65/2
f  50/65/1 58/79/1 40/43/1
f  58/8/4 34/11/4 50/17/4
f  50/17/3 34/11/3 58/8/3
f  52/13/4 51/84/4 42/85/4
f  42/85/3 51/84/3 52/13/3
f  52/66/1 29/39/1 62/83/1
f  62/83/2 29/39/2 52/66/2
f  63/15/3 29/20/3 53/31/3
f  53/31/4 29/20/4 63/15/4
f  51/86/2 53/87/2 43/37/2
f  43/37/1 53/87/1 51/86/1
f  29/39/1 54/71/1 59/81/1
f  59/81/2 54/71/2 29/39/2
f  55/72/2 27/37/2 64/88/2
f  64/88/1 27/37/1 55/72/1
f  45/58/2 55/72/2 38/61/2
f  38/61/1 55/72/1 45/58/1
f  37/75/6 56/74/6 57/89/6
f  57/89/5 56/74/5 37/75/5
f  59/5/3 56/6/3 46/7/3
f  46/7/4 56/6/4 59/5/4
f  37/10/4 55/12/4 54/13/4
f  54/13/3 55/12/3 37/10/3
f  57/77/2 38/61/2 55/72/2
f  55/72/1 38/61/1 57/77/1
f  25/43/2 57/77/2 56/90/2
f  56/90/1 57/77/1 25/43/1
f  47/16/3 48/78/3 60/6/3
f  60/6/4 48/78/4 47/16/4
f  60/36/6 58/65/6 47/43/6
f  47/43/5 58/65/5 60/36/5
f  59/81/1 41/53/1 65/91/1
f  65/91/2 41/53/2 59/81/2
f  41/63/6 60/36/6 66/92/6
f  66/92/5 60/36/5 41/63/5
f  61/82/6 60/36/6 48/62/6
f  48/62/5 60/36/5 61/82/5
f  48/78/3 62/5/3 60/6/3
f  60/6/4 62/5/4 48/78/4
f  48/80/2 67/93/2 61/79/2
f  61/79/1 67/93/1 48/80/1
f  49/10/4 58/8/4 61/94/4
f  61/94/3 58/8/3 49/10/3
f  62/83/1 49/64/1 52/66/1
f  52/66/2 49/64/2 62/83/2
f  67/95/4 49/10/4 61/94/4
f  61/94/3 49/10/3 67/95/3
f  67/95/4 51/84/4 52/13/4
f  52/13/3 51/84/3 67/95/3
f  29/39/1 65/91/1 62/83/1
f  62/83/2 65/91/2 29/39/2
f  29/20/3 68/96/3 62/5/3
f  62/5/4 68/96/4 29/20/4
f  68/97/5 52/44/5 62/25/5
f  62/25/6 52/44/6 68/97/6
f  68/96/3 29/20/3 63/15/3
f  63/15/4 29/20/4 68/96/4
f  53/18/5 67/98/5 63/34/5
f  63/34/6 67/98/6 53/18/6
f  53/87/2 51/86/2 69/93/2
f  69/93/1 51/86/1 53/87/1
f  55/99/5 59/100/5 54/101/5
f  54/101/6 59/100/6 55/99/6
f  29/39/1 59/81/1 65/91/1
f  65/91/2 59/81/2 29/39/2
f  64/88/2 27/37/2 70/102/2
f  70/102/1 27/37/1 64/88/1
f  59/100/5 55/99/5 64/103/5
f  64/103/6 55/99/6 59/100/6
f  55/12/4 37/10/4 57/19/4
f  57/19/3 37/10/3 55/12/3
f  56/6/3 59/5/3 64/15/3
f  64/15/4 59/5/4 56/6/4
f  25/43/2 56/90/2 66/104/2
f  66/104/1 56/90/1 25/43/1
f  58/65/6 60/36/6 61/82/6
f  61/82/5 60/36/5 58/65/5
f  41/10/4 70/12/4 65/13/4
f  65/13/3 70/12/3 41/10/3
f  25/43/2 66/104/2 60/80/2
f  60/80/1 66/104/1 25/43/1
f  70/12/4 41/10/4 66/19/4
f  66/19/3 41/10/3 70/12/3
f  60/6/3 62/5/3 63/15/3
f  63/15/4 62/5/4 60/6/4
f  67/93/2 48/80/2 68/87/2
f  68/87/1 48/80/1 67/93/1
f  49/10/4 67/95/4 52/13/4
f  52/13/3 67/95/3 49/10/3
f  51/84/4 67/95/4 69/105/4
f  69/105/3 67/95/3 51/84/3
f  52/44/5 68/97/5 67/98/5
f  67/98/6 68/97/6 52/44/6
f  65/106/5 68/97/5 62/25/5
f  62/25/6 68/97/6 65/106/6
f  63/15/3 62/5/3 68/96/3
f  68/96/4 62/5/4 63/15/4
f  63/34/5 67/98/5 68/97/5
f  68/97/6 67/98/6 63/34/6
f  68/97/5 70/107/5 63/34/5
f  63/34/6 70/107/6 68/97/6
f  67/98/5 53/18/5 69/55/5
f  69/55/6 53/18/6 67/98/6
f  70/102/2 27/37/2 63/87/2
f  63/87/1 27/37/1 70/102/1
f  64/88/2 70/102/2 56/90/2
f  56/90/1 70/102/1 64/88/1
f  66/104/2 56/90/2 70/102/2
f  70/102/1 56/90/1 66/104/1
f  70/107/5 68/97/5 65/106/5
f  65/106/6 68/97/6 70/107/6

# Mesh 'mesh2_mesh2-geometry' with 121 faces
g mesh2_mesh2-geometry
usemtl material_1_0
l  63 53
l  68 63
l  63 70
l  53 69
l  53 43
l  67 68
l  62 68
l  65 70
l  70 66
l  51 69
l  67 69
l  43 51
l  27 43
l  67 61
l  52 67
l  62 65
l  29 62
l  62 52
l  62 33
l  65 59
l  65 41
l  66 60
l  41 66
l  51 42
l  29 27
l  21 27
l  61 48
l  61 58
l  49 61
l  52 49
l  42 52
l  15 29
l  29 42
l  12 33
l  41 33
l  33 49
l  33 48
l  59 54
l  46 59
l  59 64
l  46 41
l  60 47
l  48 60
l  21 15
l  21 7
l  30 21
l  58 47
l  50 58
l  34 49
l  4 15
l  15 8
l  12 25
l  12 6
l  12 34
l  37 54
l  54 44
l  54 55
l  37 46
l  46 56
l  64 55
l  56 64
l  47 40
l  22 7
l  28 7
l  9 7
l  7 14
l  7 4
l  30 31
l  28 30
l  40 50
l  50 34
l  4 1
l  2 4
l  16 4
l  8 2
l  31 8
l  13 25
l  25 40
l  6 11
l  6 1
l  13 6
l  32 37
l  37 57
l  32 44
l  44 35
l  44 45
l  57 55
l  57 56
l  20 22
l  16 22
l  23 28
l  9 2
l  5 9
l  23 9
l  14 20
l  14 1
l  14 13
l  5 14
l  18 14
l  31 23
l  1 3
l  1 19
l  3 2
l  35 16
l  19 16
l  26 13
l  11 3
l  17 11
l  24 32
l  32 38
l  35 36
l  24 35
l  38 45
l  45 36
l  19 20
l  5 3
l  10 5
l  19 24
l  24 39
l  39 38
l  39 36

# Mesh 'mesh3_mesh3-geometry' with 12 faces
g mesh3_mesh3-geometry
usemtl material_2_24
f  71//6 42//6 8//6
f  42//6 71//6 72//6
f  42//2 11//2 8//2
f  11//3 71//3 8//3
f  71//1 73//1 72//1
f  73//4 42//4 72//4
f  11//2 42//2 34//2
f  71//3 11//3 74//3
f  73//1 71//1 74//1
f  42//4 73//4 34//4
f  73//5 11//5 34//5
f  11//5 73//5 74//5

# Mesh 'mesh3_mesh3-geometry' with 12 faces
g mesh3_mesh3-geometry
usemtl material_3_24
f  8//5 42//5 71//5
f  72//5 71//5 42//5
f  8//1 11//1 42//1
f  8//4 71//4 11//4
f  72//2 73//2 71//2
f  72//3 42//3 73//3
f  34//1 42//1 11//1
f  74//4 11//4 71//4
f  74//2 71//2 73//2
f  34//3 73//3 42//3
f  34//6 11//6 73//6
f  74//6 73//6 11//6

