# File produced by Open Asset Import Library (http://www.assimp.sf.net)
# (assimp v3.2.202087883)

mtllib model_normalized.mtl

# 72 vertex positions
v -0.189360 -0.117020 0.014888
v -0.153074 -0.117020 0.102533
v -0.176986 -0.117020 0.061099
v -0.189353 -0.117020 -0.032951
v -0.324799 0.058510 0.137022
v -0.348504 0.058510 0.048496
v -0.119251 -0.117020 0.136366
v -0.278988 0.058510 0.216397
v -0.348489 0.058510 -0.043149
v -0.176964 -0.117020 -0.079159
v -0.214196 0.058510 0.281210
v -0.300191 0.058510 0.133915
v -0.324753 0.058510 -0.131667
v -0.077825 -0.117020 0.160292
v -0.134837 0.058510 0.327044
v -0.256649 0.058510 0.209360
v -0.322723 0.058510 0.049773
v -0.322707 0.058510 -0.037335
v -0.278919 0.058510 -0.211026
v -0.153037 -0.117020 -0.120585
v -0.195065 0.058510 0.270964
v -0.300149 0.058510 -0.121471
v -0.031618 -0.117020 0.172681
v -0.046318 0.058510 0.350780
v -0.119634 0.058510 0.314531
v -0.119204 -0.117020 -0.154407
v -0.256583 0.058510 -0.196901
v -0.214106 0.058510 -0.275819
v 0.016221 -0.117020 0.172689
v 0.045327 0.058510 0.350792
v -0.035499 0.058510 0.337088
v -0.077771 -0.117020 -0.178320
v -0.194979 0.058510 -0.258485
v -0.134732 0.058510 -0.321630
v 0.062432 -0.117020 0.160315
v 0.133853 0.058510 0.327087
v 0.051609 0.058510 0.337103
v -0.046205 0.058510 -0.345335
v -0.119535 0.058510 -0.302027
v -0.031559 -0.117020 -0.190694
v 0.103866 -0.117020 0.136402
v 0.135752 0.058510 0.314571
v 0.045439 0.058510 -0.345319
v -0.035392 0.058510 -0.324557
v 0.016280 -0.117020 -0.190686
v 0.213227 0.058510 0.281279
v 0.137699 -0.117020 0.102580
v 0.211196 0.058510 0.271030
v 0.062487 -0.117020 -0.178297
v 0.051716 0.058510 -0.324544
v 0.278040 0.058510 0.216487
v 0.133958 0.058510 -0.321584
v 0.135852 0.058510 -0.301985
v 0.161625 -0.117020 0.061154
v 0.272800 0.058510 0.209445
v 0.103913 -0.117020 -0.154370
v 0.323875 0.058510 0.137127
v 0.316365 0.058510 0.134015
v 0.211282 0.058510 -0.258420
v 0.213317 0.058510 -0.275750
v 0.174014 -0.117020 0.014947
v 0.137735 -0.117020 -0.120538
v 0.347610 0.058510 0.048609
v 0.338925 0.058510 0.049880
v 0.272866 0.058510 -0.196815
v 0.278110 0.058510 -0.210936
v 0.174022 -0.117020 -0.032893
v 0.161648 -0.117020 -0.079104
v 0.347626 0.058510 -0.043036
v 0.338940 0.058510 -0.037228
v 0.316408 0.058510 -0.121371
v 0.323918 0.058510 -0.131562

# 0 UV coordinates

# 50 vertex normals
vn 0 -0.0254 0
vn -0.0145175 -0.0176277 0.0111205
vn -0.0170748 -0.0174305 0.0070561
vn -0.0184994 -0.0172358 0.0024209
vn -0.0186571 -0.017058 -0.00246919
vn -0.0110335 -0.017814 0.0143556
vn 0 0.0254 0
vn -0.0175051 -0.0169112 -0.00726224
vn -0.00687829 -0.0179778 0.0165725
vn -0.0151036 -0.0168079 -0.011599
vn -0.00233503 -0.0181099 0.0176561
vn -0.0116167 -0.0167572 -0.0151463
vn 0.00230448 -0.0182035 0.0175637
vn -0.0073016 -0.0167635 -0.0176304
vn 0.00675465 -0.0182539 0.0163196
vn -0.00248565 -0.0168264 -0.0188641
vn 0.0107476 -0.018259 0.0140093
vn 0.00246543 -0.0169402 -0.0187646
vn 0.0140423 -0.0182184 0.0107733
vn 0.00718254 -0.017095 -0.0173589
vn 0.0164331 -0.0181341 0.00680229
vn 0.0113272 -0.0172777 -0.0147761
vn 0.0177586 -0.0180099 0.00233143
vn 0.014619 -0.0174742 -0.0112293
vn 0.0179123 -0.0178524 -0.00236647
vn 0.0168538 -0.0176701 -0.00699103
vn 0.0170748 0.0174305 -0.0070561
vn 0.0145175 0.0176277 -0.0111205
vn 0.0184994 0.0172358 -0.0024209
vn 0.0186571 0.017058 0.00246919
vn 0.0110335 0.017814 -0.0143556
vn 0.0175051 0.0169112 0.00726224
vn 0.00687829 0.0179778 -0.0165725
vn 0.0151036 0.0168079 0.011599
vn 0.00233503 0.0181099 -0.0176561
vn 0.0116167 0.0167572 0.0151463
vn -0.00230448 0.0182035 -0.0175637
vn 0.0073016 0.0167635 0.0176304
vn -0.00675465 0.0182539 -0.0163196
vn 0.00248565 0.0168264 0.0188641
vn -0.0107476 0.018259 -0.0140093
vn -0.00246543 0.0169402 0.0187646
vn -0.0140423 0.0182184 -0.0107733
vn -0.00718254 0.017095 0.0173589
vn -0.0164331 0.0181341 -0.00680229
vn -0.0113272 0.0172777 0.0147761
vn -0.0177586 0.0180099 -0.00233143
vn -0.014619 0.0174742 0.0112293
vn -0.0179123 0.0178524 0.00236647
vn -0.0168538 0.0176701 0.00699103

# Mesh 'mesh1_mesh1-geometry' with 166 faces
g mesh1_mesh1-geometry
usemtl material_0_24
f  1//1 2//1 3//1
f  2//1 1//1 4//1
f  2//2 5//3 3//3
f  3//3 6//4 1//4
f  6//4 4//5 1//4
f  2//1 4//1 7//1
f  5//3 2//2 8//2
f  6//4 3//3 5//3
f  4//5 6//4 9//5
f  7//1 4//1 10//1
f  11//6 2//2 7//6
f  2//2 11//6 8//2
f  8//7 6//7 5//7
f  5//1 6//1 8//1
f  12//7 9//7 6//7
f  6//1 9//1 12//1
f  13//8 4//5 9//5
f  4//5 13//8 10//8
f  7//1 10//1 14//1
f  7//6 15//9 11//6
f  16//7 8//7 11//7
f  11//1 8//1 16//1
f  6//7 8//7 12//7
f  12//1 8//1 6//1
f  9//7 12//7 17//7
f  17//1 12//1 9//1
f  9//7 18//7 13//7
f  13//1 18//1 9//1
f  19//10 10//8 13//8
f  14//1 10//1 20//1
f  15//9 7//6 14//9
f  21//7 11//7 15//7
f  15//1 11//1 21//1
f  12//7 8//7 16//7
f  16//1 8//1 12//1
f  16//7 11//7 21//7
f  21//1 11//1 16//1
f  9//7 17//7 18//7
f  18//1 17//1 9//1
f  13//7 18//7 22//7
f  22//1 18//1 13//1
f  10//8 19//10 20//10
f  13//7 22//7 19//7
f  19//1 22//1 13//1
f  14//1 20//1 23//1
f  14//9 24//11 15//9
f  21//7 15//7 25//7
f  25//1 15//1 21//1
f  19//10 26//12 20//10
f  19//7 22//7 27//7
f  27//1 22//1 19//1
f  23//1 20//1 26//1
f  24//11 14//9 23//11
f  25//7 15//7 24//7
f  24//1 15//1 25//1
f  26//12 19//10 28//12
f  19//7 27//7 28//7
f  28//1 27//1 19//1
f  23//1 26//1 29//1
f  23//11 30//13 24//11
f  25//7 24//7 31//7
f  31//1 24//1 25//1
f  28//12 32//14 26//12
f  28//7 27//7 33//7
f  33//1 27//1 28//1
f  29//1 26//1 32//1
f  30//13 23//11 29//13
f  31//7 24//7 30//7
f  30//1 24//1 31//1
f  32//14 28//12 34//14
f  28//7 33//7 34//7
f  34//1 33//1 28//1
f  29//1 32//1 35//1
f  29//13 36//15 30//13
f  31//7 30//7 37//7
f  37//1 30//1 31//1
f  38//16 32//14 34//14
f  34//7 33//7 39//7
f  39//1 33//1 34//1
f  35//1 32//1 40//1
f  36//15 29//13 35//15
f  37//7 30//7 36//7
f  36//1 30//1 37//1
f  32//14 38//16 40//16
f  34//7 39//7 38//7
f  38//1 39//1 34//1
f  35//1 40//1 41//1
f  41//17 36//15 35//15
f  37//7 36//7 42//7
f  42//1 36//1 37//1
f  43//18 40//16 38//16
f  38//7 39//7 44//7
f  44//1 39//1 38//1
f  41//1 40//1 45//1
f  36//15 41//17 46//17
f  42//7 36//7 46//7
f  46//1 36//1 42//1
f  40//16 43//18 45//18
f  38//7 44//7 43//7
f  43//1 44//1 38//1
f  41//1 45//1 47//1
f  47//19 46//17 41//17
f  42//7 46//7 48//7
f  48//1 46//1 42//1
f  43//18 49//20 45//18
f  43//7 44//7 50//7
f  50//1 44//1 43//1
f  47//1 45//1 49//1
f  46//17 47//19 51//19
f  48//7 46//7 51//7
f  51//1 46//1 48//1
f  49//20 43//18 52//20
f  43//7 50//7 53//7
f  53//1 50//1 43//1
f  47//1 49//1 54//1
f  54//21 51//19 47//19
f  48//7 51//7 55//7
f  55//1 51//1 48//1
f  43//7 53//7 52//7
f  52//1 53//1 43//1
f  52//20 56//22 49//20
f  54//1 49//1 56//1
f  51//19 54//21 57//21
f  55//7 51//7 58//7
f  58//1 51//1 55//1
f  52//7 53//7 59//7
f  59//1 53//1 52//1
f  56//22 52//20 60//22
f  54//1 56//1 61//1
f  61//23 57//21 54//21
f  58//7 51//7 57//7
f  57//1 51//1 58//1
f  52//7 59//7 60//7
f  60//1 59//1 52//1
f  60//22 62//24 56//22
f  61//1 56//1 62//1
f  57//21 61//23 63//23
f  58//7 57//7 64//7
f  64//1 57//1 58//1
f  60//7 59//7 65//7
f  65//1 59//1 60//1
f  62//24 60//22 66//24
f  61//1 62//1 67//1
f  67//25 63//23 61//23
f  64//7 57//7 63//7
f  63//1 57//1 64//1
f  60//7 65//7 66//7
f  66//1 65//1 60//1
f  66//24 68//26 62//24
f  67//1 62//1 68//1
f  63//23 67//25 69//25
f  64//7 63//7 70//7
f  70//1 63//1 64//1
f  66//7 65//7 71//7
f  71//1 65//1 66//1
f  68//26 66//24 72//26
f  72//26 67//25 68//26
f  67//25 72//26 69//25
f  70//7 63//7 69//7
f  69//1 63//1 70//1
f  66//7 71//7 72//7
f  72//1 71//1 66//1
f  71//7 69//7 72//7
f  72//1 69//1 71//1
f  70//7 69//7 71//7
f  71//1 69//1 70//1

# Mesh 'mesh1_mesh1-geometry' with 70 faces
g mesh1_mesh1-geometry
usemtl material_1_24
f  3//7 2//7 1//7
f  4//7 1//7 2//7
f  3//27 5//27 2//28
f  1//29 6//29 3//27
f  1//29 4//30 6//29
f  7//7 4//7 2//7
f  8//28 2//28 5//27
f  5//27 3//27 6//29
f  9//30 6//29 4//30
f  10//7 4//7 7//7
f  7//31 2//28 11//31
f  8//28 11//31 2//28
f  9//30 4//30 13//32
f  10//32 13//32 4//30
f  14//7 10//7 7//7
f  11//31 15//33 7//31
f  13//32 10//32 19//34
f  20//7 10//7 14//7
f  14//33 7//31 15//33
f  20//34 19//34 10//32
f  23//7 20//7 14//7
f  15//33 24//35 14//33
f  20//34 26//36 19//34
f  26//7 20//7 23//7
f  23//35 14//33 24//35
f  28//36 19//34 26//36
f  29//7 26//7 23//7
f  24//35 30//37 23//35
f  26//36 32//38 28//36
f  32//7 26//7 29//7
f  29//37 23//35 30//37
f  34//38 28//36 32//38
f  35//7 32//7 29//7
f  30//37 36//39 29//37
f  34//38 32//38 38//40
f  40//7 32//7 35//7
f  35//39 29//37 36//39
f  40//40 38//40 32//38
f  41//7 40//7 35//7
f  35//39 36//39 41//41
f  38//40 40//40 43//42
f  45//7 40//7 41//7
f  46//41 41//41 36//39
f  45//42 43//42 40//40
f  47//7 45//7 41//7
f  41//41 46//41 47//43
f  45//42 49//44 43//42
f  49//7 45//7 47//7
f  51//43 47//43 46//41
f  52//44 43//42 49//44
f  54//7 49//7 47//7
f  47//43 51//43 54//45
f  49//44 56//46 52//44
f  56//7 49//7 54//7
f  57//45 54//45 51//43
f  60//46 52//44 56//46
f  61//7 56//7 54//7
f  54//45 57//45 61//47
f  56//46 62//48 60//46
f  62//7 56//7 61//7
f  63//47 61//47 57//45
f  66//48 60//46 62//48
f  67//7 62//7 61//7
f  61//47 63//47 67//49
f  62//48 68//50 66//48
f  68//7 62//7 67//7
f  69//49 67//49 63//47
f  72//50 66//48 68//50
f  68//50 67//49 72//50
f  69//49 72//50 67//49

# Mesh 'mesh2_mesh2-geometry' with 24 faces
g mesh2_mesh2-geometry
usemtl material_0_0
l  44 39
l  50 44
l  39 33
l  53 50
l  33 27
l  59 53
l  27 22
l  65 59
l  22 18
l  71 65
l  18 17
l  70 71
l  17 12
l  64 70
l  12 16
l  58 64
l  16 21
l  55 58
l  21 25
l  48 55
l  25 31
l  42 48
l  31 37
l  37 42

