# File produced by Open Asset Import Library (http://www.assimp.sf.net)
# (assimp v3.2.202087883)

mtllib model_normalized.mtl

# 96 vertex positions
v 0.303099 -0.119651 -0.303091
v 0.303099 -0.123861 0.303092
v 0.303099 -0.123861 -0.303091
v 0.303099 -0.119651 0.303092
v -0.303101 -0.123861 -0.303091
v 0.051027 -0.119651 -0.029467
v -0.303101 -0.119651 0.303092
v -0.303101 -0.119651 -0.303091
v 0.041682 -0.119651 -0.041675
v 0.056921 -0.119651 -0.015255
v -0.303101 -0.123861 0.303092
v 0.000007 -0.119651 0.058935
v -0.029460 -0.119651 -0.051037
v 0.029474 -0.119651 -0.051037
v 0.041682 0.006637 -0.041675
v 0.051027 0.006637 -0.029467
v 0.058942 -0.119651 0.000000
v 0.015246 -0.119651 0.056923
v -0.015232 -0.119651 0.056923
v -0.051047 -0.119651 -0.029467
v -0.041668 -0.119651 -0.041675
v -0.015232 -0.119651 -0.056930
v 0.015246 -0.119651 -0.056930
v 0.056921 0.006637 -0.015255
v 0.056921 -0.119651 0.015256
v 0.029474 -0.119651 0.051038
v 0.000007 0.006637 0.058935
v -0.029460 -0.119651 0.051038
v -0.015232 0.006637 0.056923
v -0.056932 -0.119651 -0.015255
v -0.029460 0.006637 -0.051037
v -0.015232 0.006637 -0.056930
v 0.000007 -0.119651 -0.058934
v 0.029474 0.006637 -0.051037
v 0.058942 0.006637 0.000000
v 0.051027 -0.119651 0.029468
v 0.041682 -0.119651 0.041675
v 0.015246 0.006637 0.056923
v -0.041668 -0.119651 0.041675
v -0.029460 0.006637 0.051038
v -0.051047 0.006637 -0.029467
v -0.058944 -0.119651 0.000000
v -0.056932 0.006637 -0.015255
v -0.041668 0.006637 -0.041675
v 0.000007 0.006637 -0.058934
v 0.015246 0.006637 -0.056930
v 0.056921 0.006637 0.015256
v 0.029474 0.006637 0.051038
v -0.051047 -0.119651 0.029468
v -0.041668 0.006637 0.041675
v -0.056932 -0.119651 0.015256
v -0.058944 0.006637 0.000000
v 0.051027 0.006637 0.029468
v 0.041682 0.006637 0.041675
v -0.056932 0.006637 0.015256
v -0.051047 0.006637 0.029468
v 0.084199 0.130046 -0.084192
v -0.084202 0.117418 -0.084192
v -0.084202 0.130046 -0.084192
v 0.084199 0.117418 -0.084192
v -0.084202 0.130046 0.084192
v 0.084199 0.117418 0.084192
v -0.084202 0.117418 0.084192
v 0.084199 0.130046 0.084192
v 0.084199 0.054274 0.084192
v -0.084202 0.066902 0.084192
v -0.084202 0.054274 0.084192
v 0.084199 0.066902 0.084192
v -0.084202 0.054274 -0.084192
v 0.084199 0.066902 -0.084192
v -0.084202 0.066902 -0.084192
v 0.084199 0.054274 -0.084192
v 0.336776 0.117418 -0.336768
v 0.336776 0.066902 0.336769
v 0.336776 0.066902 -0.336768
v 0.336776 0.117418 0.336769
v -0.336778 0.117418 -0.336768
v -0.336778 0.117418 0.336769
v -0.336778 0.066902 -0.336768
v -0.336778 0.066902 0.336769
v 0.336776 0.003758 0.336769
v -0.336778 0.003758 -0.336768
v 0.336776 0.003758 -0.336768
v -0.336778 0.003758 0.336769
v 0.336776 0.054274 -0.336768
v -0.336778 0.054274 0.336769
v -0.336778 0.054274 -0.336768
v 0.336776 0.054274 0.336769
v -0.336778 0.180562 0.336769
v 0.336776 0.180562 -0.336768
v -0.336778 0.180562 -0.336768
v 0.336776 0.180562 0.336769
v -0.336778 0.130046 -0.336768
v 0.336776 0.130046 0.336769
v 0.336776 0.130046 -0.336768
v -0.336778 0.130046 0.336769

# 45 UV coordinates
vt -1.03451 1.81447 0
vt -0.509572 1.28954 0
vt -0.509572 1.81447 0
vt -1.03451 1.28954 0
vt -1.28954 0.109306 0
vt -1.81447 0.148676 0
vt -1.81447 0.109306 0
vt -0.509572 0.148676 0
vt -1.03451 0.109306 0
vt -0.509572 0.109306 0
vt 1.81447 0.109306 0
vt 1.28954 0.148676 0
vt 1.28954 0.109306 0
vt 1.03451 0.148676 0
vt 0.509572 0.109306 0
vt 1.03451 0.109306 0
vt -1.28954 0.148676 0
vt -1.03451 0.148676 0
vt 1.81447 0.148676 0
vt 0.509572 0.148676 0
vt 0.509572 1.28954 0
vt 0.706422 1.48639 0
vt 0.509572 1.81447 0
vt 0.706422 1.61762 0
vt 1.03451 1.81447 0
vt 0.837656 1.61762 0
vt 1.03451 1.28954 0
vt 0.837656 1.48639 0
vt -1.81447 0.247101 0
vt -1.28954 0.207731 0
vt -1.28954 0.247101 0
vt 0.509572 0.207731 0
vt 1.03451 0.247101 0
vt 0.509572 0.247101 0
vt 1.28954 0.247101 0
vt 1.81447 0.207731 0
vt 1.81447 0.247101 0
vt -1.03451 0.207731 0
vt -0.509572 0.247101 0
vt -1.03451 0.247101 0
vt -1.81447 0.207731 0
vt 1.03451 0.207731 0
vt 1.28954 0.207731 0
vt -0.509572 0.207731 0
vt 1.03451 1.28954 0

# 54 vertex normals
vn 0.0254 0 0
vn -0.0254 -0 -0
vn 0 0 -0.0254
vn 0 0 0.0254
vn 0 0.0254 0
vn -0 -0.0254 -0
vn 0.0201511 0 -0.0154627
vn -0.0201511 0 0.0154627
vn 0.0234665 0 -0.0097202
vn -0.0234665 0 0.0097202
vn 0.0154627 0 -0.020151
vn -0.0154627 0 0.020151
vn 0.0251827 0 -0.00331561
vn -0.0251827 0 0.00331561
vn 0.00331544 0 0.0251827
vn -0.00331544 0 -0.0251827
vn -0.00331549 0 0.0251827
vn 0.00331549 0 -0.0251827
vn -0.0154624 0 -0.0201513
vn 0.0154624 0 0.0201513
vn -0.0097202 0 -0.0234665
vn 0.0097202 0 0.0234665
vn 0.0097202 0 -0.0234665
vn -0.0097202 0 0.0234665
vn 0.0251827 0 0.00331561
vn -0.0251827 -0 -0.00331561
vn 0.00972005 0 0.0234666
vn -0.00972005 -0 -0.0234666
vn -0.00972005 0 0.0234666
vn 0.00972005 0 -0.0234666
vn -0.0201512 0 -0.0154625
vn 0.0201512 0 0.0154625
vn -0.0234665 0 -0.0097202
vn 0.0234665 0 0.0097202
vn -0.00331531 0 -0.0251827
vn 0.00331531 0 0.0251827
vn 0.00331528 0 -0.0251827
vn -0.00331528 0 0.0251827
vn 0.0234666 0 0.00972015
vn -0.0234666 0 -0.00972015
vn 0.0154627 0 0.020151
vn -0.0154627 -0 -0.020151
vn -0.0154624 0 0.0201513
vn 0.0154624 0 -0.0201513
vn -0.0251827 0 -0.00331531
vn 0.0251827 0 0.00331531
vn 0.0201511 0 0.0154627
vn -0.0201511 0 -0.0154627
vn -0.0201512 0 0.0154625
vn 0.0201512 0 -0.0154625
vn -0.0251827 0 0.00331531
vn 0.0251827 0 -0.00331531
vn -0.0234666 0 0.00972015
vn 0.0234666 0 -0.00972015

# Mesh 'mesh1_mesh1-geometry' with 168 faces
g mesh1_mesh1-geometry
usemtl material_0_24
f  1//1 2//1 3//1
f  2//1 1//1 4//1
f  3//2 2//2 1//2
f  4//2 1//2 2//2
f  5//3 1//3 3//3
f  3//4 1//4 5//4
f  1//5 6//5 4//5
f  4//6 6//6 1//6
f  7//4 2//4 4//4
f  4//3 2//3 7//3
f  1//3 5//3 8//3
f  8//4 5//4 1//4
f  6//5 1//5 9//5
f  9//6 1//6 6//6
f  4//5 6//5 10//5
f  10//6 6//6 4//6
f  2//4 7//4 11//4
f  11//3 7//3 2//3
f  4//5 12//5 7//5
f  7//6 12//6 4//6
f  5//2 7//2 8//2
f  8//1 7//1 5//1
f  8//5 13//5 1//5
f  1//6 13//6 8//6
f  9//5 1//5 14//5
f  14//6 1//6 9//6
f  15//7 6//7 9//7
f  9//8 6//8 15//8
f  16//9 10//9 6//9
f  6//10 10//10 16//10
f  4//5 10//5 17//5
f  17//6 10//6 4//6
f  7//2 5//2 11//2
f  11//1 5//1 7//1
f  4//5 18//5 12//5
f  12//6 18//6 4//6
f  19//5 7//5 12//5
f  12//6 7//6 19//6
f  20//5 8//5 7//5
f  7//6 8//6 20//6
f  13//5 8//5 21//5
f  21//6 8//6 13//6
f  1//5 13//5 22//5
f  22//6 13//6 1//6
f  14//5 1//5 23//5
f  23//6 1//6 14//6
f  14//11 15//11 9//11
f  9//12 15//12 14//12
f  6//7 15//7 16//7
f  16//8 15//8 6//8
f  10//9 16//9 24//9
f  24//10 16//10 10//10
f  24//13 17//13 10//13
f  10//14 17//14 24//14
f  4//5 17//5 25//5
f  25//6 17//6 4//6
f  4//5 26//5 18//5
f  18//6 26//6 4//6
f  18//15 27//15 12//15
f  12//16 27//16 18//16
f  28//5 7//5 19//5
f  19//6 7//6 28//6
f  12//17 29//17 19//17
f  19//18 29//18 12//18
f  21//5 8//5 20//5
f  20//6 8//6 21//6
f  20//5 7//5 30//5
f  30//6 7//6 20//6
f  21//19 31//19 13//19
f  13//20 31//20 21//20
f  13//21 32//21 22//21
f  22//22 32//22 13//22
f  1//5 22//5 33//5
f  33//6 22//6 1//6
f  23//5 1//5 33//5
f  33//6 1//6 23//6
f  23//23 34//23 14//23
f  14//24 34//24 23//24
f  15//11 14//11 34//11
f  34//12 14//12 15//12
f  17//13 24//13 35//13
f  35//14 24//14 17//14
f  35//25 25//25 17//25
f  17//26 25//26 35//26
f  4//5 25//5 36//5
f  36//6 25//6 4//6
f  4//5 37//5 26//5
f  26//6 37//6 4//6
f  26//27 38//27 18//27
f  18//28 38//28 26//28
f  27//15 18//15 38//15
f  38//16 18//16 27//16
f  29//17 12//17 27//17
f  27//18 12//18 29//18
f  39//5 7//5 28//5
f  28//6 7//6 39//6
f  19//29 40//29 28//29
f  28//30 40//30 19//30
f  40//29 19//29 29//29
f  29//30 19//30 40//30
f  41//31 21//31 20//31
f  20//32 21//32 41//32
f  30//5 7//5 42//5
f  42//6 7//6 30//6
f  43//33 20//33 30//33
f  30//34 20//34 43//34
f  31//19 21//19 44//19
f  44//20 21//20 31//20
f  32//21 13//21 31//21
f  31//22 13//22 32//22
f  45//35 22//35 32//35
f  32//36 22//36 45//36
f  22//35 45//35 33//35
f  33//36 45//36 22//36
f  33//37 46//37 23//37
f  23//38 46//38 33//38
f  34//23 23//23 46//23
f  46//24 23//24 34//24
f  25//25 35//25 47//25
f  47//26 35//26 25//26
f  47//39 36//39 25//39
f  25//40 36//40 47//40
f  4//5 36//5 37//5
f  37//6 36//6 4//6
f  37//41 48//41 26//41
f  26//42 48//42 37//42
f  38//27 26//27 48//27
f  48//28 26//28 38//28
f  49//5 7//5 39//5
f  39//6 7//6 49//6
f  28//43 50//43 39//43
f  39//44 50//44 28//44
f  50//43 28//43 40//43
f  40//44 28//44 50//44
f  21//31 41//31 44//31
f  44//32 41//32 21//32
f  20//33 43//33 41//33
f  41//34 43//34 20//34
f  42//5 7//5 51//5
f  51//6 7//6 42//6
f  52//45 30//45 42//45
f  42//46 30//46 52//46
f  30//45 52//45 43//45
f  43//46 52//46 30//46
f  46//37 33//37 45//37
f  45//38 33//38 46//38
f  36//39 47//39 53//39
f  53//40 47//40 36//40
f  53//47 37//47 36//47
f  36//48 37//48 53//48
f  48//41 37//41 54//41
f  54//42 37//42 48//42
f  51//5 7//5 49//5
f  49//6 7//6 51//6
f  50//49 49//49 39//49
f  39//50 49//50 50//50
f  55//51 42//51 51//51
f  51//52 42//52 55//52
f  42//51 55//51 52//51
f  52//52 55//52 42//52
f  37//47 53//47 54//47
f  54//48 53//48 37//48
f  56//53 51//53 49//53
f  49//54 51//54 56//54
f  49//49 50//49 56//49
f  56//50 50//50 49//50
f  51//53 56//53 55//53
f  55//54 56//54 51//54

# Mesh 'mesh2_mesh2-geometry' with 16 faces
g mesh2_mesh2-geometry
usemtl material_0_24
f  57//3 58//3 59//3
f  58//3 57//3 60//3
f  59//4 58//4 57//4
f  60//4 57//4 58//4
f  58//2 61//2 59//2
f  59//1 61//1 58//1
f  57//1 62//1 60//1
f  60//2 62//2 57//2
f  61//2 58//2 63//2
f  63//1 58//1 61//1
f  62//1 57//1 64//1
f  64//2 57//2 62//2
f  62//4 61//4 63//4
f  63//3 61//3 62//3
f  61//4 62//4 64//4
f  64//3 62//3 61//3

# Mesh 'mesh3_mesh3-geometry' with 16 faces
g mesh3_mesh3-geometry
usemtl material_0_24
f  65//4 66//4 67//4
f  66//4 65//4 68//4
f  67//3 66//3 65//3
f  68//3 65//3 66//3
f  66//2 69//2 67//2
f  67//1 69//1 66//1
f  65//1 70//1 68//1
f  68//2 70//2 65//2
f  69//2 66//2 71//2
f  71//1 66//1 69//1
f  70//1 65//1 72//1
f  72//2 65//2 70//2
f  70//3 69//3 71//3
f  71//4 69//4 70//4
f  69//3 70//3 72//3
f  72//4 70//4 69//4

# Mesh 'mesh4_mesh4-geometry' with 4 faces
g mesh4_mesh4-geometry
usemtl material_1_24
f  73//1 74//1 75//1
f  74//1 73//1 76//1
f  75//2 74//2 73//2
f  76//2 73//2 74//2

# Mesh 'mesh5_mesh5-geometry' with 16 faces
g mesh5_mesh5-geometry
usemtl material_2_24
f  77//5 58//5 73//5
f  58//5 77//5 78//5
f  73//6 58//6 77//6
f  78//6 77//6 58//6
f  60//5 73//5 58//5
f  58//6 73//6 60//6
f  58//5 78//5 63//5
f  63//6 78//6 58//6
f  73//5 60//5 76//5
f  76//6 60//6 73//6
f  63//5 78//5 62//5
f  62//6 78//6 63//6
f  76//5 60//5 62//5
f  62//6 60//6 76//6
f  76//5 62//5 78//5
f  78//6 62//6 76//6

# Mesh 'mesh6_mesh6-geometry' with 16 faces
g mesh6_mesh6-geometry
usemtl material_2_24
f  79//5 71//5 75//5
f  71//5 79//5 80//5
f  75//6 71//6 79//6
f  80//6 79//6 71//6
f  70//5 75//5 71//5
f  71//6 75//6 70//6
f  71//5 80//5 66//5
f  66//6 80//6 71//6
f  75//5 70//5 74//5
f  74//6 70//6 75//6
f  66//5 80//5 68//5
f  68//6 80//6 66//6
f  74//5 70//5 68//5
f  68//6 70//6 74//6
f  74//5 68//5 80//5
f  80//6 68//6 74//6

# Mesh 'mesh7_mesh7-geometry' with 36 faces
g mesh7_mesh7-geometry
usemtl material_3_1_8
f  81/1/6 82/2/6 83/3/6
f  82/2/6 81/1/6 84/4/6
f  83/3/5 82/2/5 81/1/5
f  84/4/5 81/1/5 82/2/5
f  82/5/3 85/6/3 83/7/3
f  83/7/4 85/6/4 82/5/4
f  85/8/1 81/9/1 83/10/1
f  83/10/2 81/9/2 85/8/2
f  81/11/4 86/12/4 84/13/4
f  84/13/3 86/12/3 81/11/3
f  86/14/2 82/15/2 84/16/2
f  84/16/1 82/15/1 86/14/1
f  85/6/3 82/5/3 87/17/3
f  87/17/4 82/5/4 85/6/4
f  81/9/1 85/8/1 88/18/1
f  88/18/2 85/8/2 81/9/2
f  86/12/4 81/11/4 88/19/4
f  88/19/3 81/11/3 86/12/3
f  82/15/2 86/14/2 87/20/2
f  87/20/1 86/14/1 82/15/1
f  87/21/5 69/22/5 85/23/5
f  85/23/6 69/22/6 87/21/6
f  85/23/5 72/24/5 88/25/5
f  88/25/6 72/24/6 85/23/6
f  88/25/5 65/26/5 86/27/5
f  86/27/6 65/26/6 88/25/6
f  69/22/5 87/21/5 86/27/5
f  86/27/6 87/21/6 69/22/6
f  72/24/5 85/23/5 69/22/5
f  69/22/6 85/23/6 72/24/6
f  88/25/5 72/24/5 65/26/5
f  65/26/6 72/24/6 88/25/6
f  67/28/5 86/27/5 65/26/5
f  65/26/6 86/27/6 67/28/6
f  69/22/5 86/27/5 67/28/5
f  67/28/6 86/27/6 69/22/6

# Mesh 'mesh8_mesh8-geometry' with 36 faces
g mesh8_mesh8-geometry
usemtl material_3_1_8
f  89/27/5 90/23/5 91/21/5
f  90/23/5 89/27/5 92/25/5
f  91/21/6 90/23/6 89/27/6
f  92/25/6 89/27/6 90/23/6
f  90/29/3 93/30/3 91/31/3
f  91/31/4 93/30/4 90/29/4
f  93/32/2 89/33/2 91/34/2
f  91/34/1 89/33/1 93/32/1
f  89/35/4 94/36/4 92/37/4
f  92/37/3 94/36/3 89/35/3
f  94/38/1 90/39/1 92/40/1
f  92/40/2 90/39/2 94/38/2
f  93/30/3 90/29/3 95/41/3
f  95/41/4 90/29/4 93/30/4
f  89/33/2 93/32/2 96/42/2
f  96/42/1 93/32/1 89/33/1
f  94/36/4 89/35/4 96/43/4
f  96/43/3 89/35/3 94/36/3
f  90/39/1 94/38/1 95/44/1
f  95/44/2 94/38/2 90/39/2
f  95/23/6 57/24/6 93/21/6
f  93/21/5 57/24/5 95/23/5
f  93/21/6 59/22/6 96/45/6
f  96/45/5 59/22/5 93/21/5
f  96/45/6 61/28/6 94/25/6
f  94/25/5 61/28/5 96/45/5
f  57/24/6 95/23/6 94/25/6
f  94/25/5 95/23/5 57/24/5
f  59/22/6 93/21/6 57/24/6
f  57/24/5 93/21/5 59/22/5
f  96/45/6 59/22/6 61/28/6
f  61/28/5 59/22/5 96/45/5
f  64/26/6 94/25/6 61/28/6
f  61/28/5 94/25/5 64/26/5
f  57/24/6 94/25/6 64/26/6
f  64/26/5 94/25/5 57/24/5

# Mesh 'mesh9_mesh9-geometry' with 4 faces
g mesh9_mesh9-geometry
usemtl material_4_24
f  2//6 5//6 3//6
f  5//6 2//6 11//6
f  3//5 5//5 2//5
f  11//5 2//5 5//5

# Mesh 'mesh10_mesh10-geometry' with 44 faces
g mesh10_mesh10-geometry
usemtl material_4_24
f  32//5 46//5 45//5
f  46//5 32//5 31//5
f  45//6 46//6 32//6
f  31//6 32//6 46//6
f  46//5 31//5 34//5
f  34//6 31//6 46//6
f  34//5 31//5 44//5
f  44//6 31//6 34//6
f  34//5 44//5 15//5
f  15//6 44//6 34//6
f  15//5 44//5 41//5
f  41//6 44//6 15//6
f  15//5 41//5 16//5
f  16//6 41//6 15//6
f  16//5 41//5 43//5
f  43//6 41//6 16//6
f  16//5 43//5 24//5
f  24//6 43//6 16//6
f  24//5 43//5 52//5
f  52//6 43//6 24//6
f  24//5 52//5 35//5
f  35//6 52//6 24//6
f  35//5 52//5 55//5
f  55//6 52//6 35//6
f  35//5 55//5 47//5
f  47//6 55//6 35//6
f  47//5 55//5 56//5
f  56//6 55//6 47//6
f  47//5 56//5 53//5
f  53//6 56//6 47//6
f  53//5 56//5 50//5
f  50//6 56//6 53//6
f  53//5 50//5 54//5
f  54//6 50//6 53//6
f  54//5 50//5 40//5
f  40//6 50//6 54//6
f  54//5 40//5 48//5
f  48//6 40//6 54//6
f  48//5 40//5 29//5
f  29//6 40//6 48//6
f  48//5 29//5 38//5
f  38//6 29//6 48//6
f  38//5 29//5 27//5
f  27//6 29//6 38//6

# Mesh 'mesh11_mesh11-geometry' with 4 faces
g mesh11_mesh11-geometry
usemtl material_4_24
f  67//5 72//5 69//5
f  72//5 67//5 65//5
f  69//6 72//6 67//6
f  65//6 67//6 72//6

# Mesh 'mesh12_mesh12-geometry' with 4 faces
g mesh12_mesh12-geometry
usemtl material_4_24
f  66//5 70//5 71//5
f  70//5 66//5 68//5
f  71//6 70//6 66//6
f  68//6 66//6 70//6

# Mesh 'mesh13_mesh13-geometry' with 4 faces
g mesh13_mesh13-geometry
usemtl material_4_24
f  63//5 60//5 58//5
f  60//5 63//5 62//5
f  58//6 60//6 63//6
f  62//6 63//6 60//6

# Mesh 'mesh14_mesh14-geometry' with 12 faces
g mesh14_mesh14-geometry
usemtl material_4_24
f  73//3 79//3 77//3
f  79//3 73//3 75//3
f  77//4 79//4 73//4
f  75//4 73//4 79//4
f  79//2 78//2 77//2
f  77//1 78//1 79//1
f  78//2 79//2 80//2
f  80//1 79//1 78//1
f  74//4 78//4 80//4
f  80//3 78//3 74//3
f  78//4 74//4 76//4
f  76//3 74//3 78//3

# Mesh 'mesh15_mesh15-geometry' with 4 faces
g mesh15_mesh15-geometry
usemtl material_4_24
f  61//5 57//5 59//5
f  57//5 61//5 64//5
f  59//6 57//6 61//6
f  64//6 61//6 57//6

