# File produced by Open Asset Import Library (http://www.assimp.sf.net)
# (assimp v3.2.202087883)

mtllib model_normalized.mtl

# 100 vertex positions
v 0.427514 0.046831 -0.196702
v 0.372296 -0.183746 -0.196702
v 0.427514 -0.183746 -0.196702
v 0.372296 -0.002201 -0.196702
v 0.427514 -0.183746 -0.141483
v -0.372296 -0.002201 -0.196702
v 0.372296 -0.002201 -0.141483
v 0.427514 -0.002201 -0.141483
v -0.427514 0.046831 -0.196702
v -0.355084 -0.002201 -0.179490
v 0.372296 -0.183746 -0.141483
v 0.355084 -0.002201 -0.124272
v 0.427514 -0.002201 0.141483
v -0.427514 -0.183746 -0.196702
v 0.438558 0.046831 -0.207745
v -0.397482 0.046831 -0.166668
v -0.355084 -0.002201 -0.124272
v 0.355084 -0.002201 -0.179490
v 0.410303 -0.002201 -0.124272
v 0.427514 0.046831 0.196701
v -0.372296 -0.183746 -0.196702
v -0.427514 -0.002201 -0.141483
v -0.438558 0.046831 -0.207745
v 0.438558 0.046831 0.207745
v -0.427514 0.046831 0.196701
v 0.397481 0.046831 -0.166668
v -0.372296 -0.002201 -0.141483
v -0.355084 0.031088 -0.179490
v 0.355084 0.031088 -0.124272
v 0.427514 -0.183746 0.196701
v 0.397481 0.046831 0.166670
v 0.410303 -0.002201 0.124271
v -0.372296 -0.183746 -0.141483
v -0.427514 -0.002201 0.141483
v -0.427514 -0.183746 -0.141483
v 0.438558 0.057159 -0.207745
v -0.397482 0.046831 0.166670
v -0.410302 -0.002201 -0.124272
v -0.355084 0.031088 -0.124272
v 0.355084 0.031088 -0.179490
v 0.410303 0.031088 -0.124272
v 0.427514 -0.183746 0.141483
v 0.372296 -0.002201 0.196701
v 0.372296 -0.002201 0.141483
v 0.410303 0.031088 0.124271
v -0.410302 -0.002201 0.124271
v -0.438558 0.046831 0.207745
v -0.438558 0.057159 -0.207745
v 0.438558 0.057159 0.207745
v -0.427514 -0.183746 0.141483
v -0.410302 0.031088 -0.124272
v 0.355084 0.031088 0.179489
v 0.355084 0.031088 0.124271
v 0.372296 -0.183746 0.141483
v 0.372296 -0.183746 0.196701
v 0.355084 -0.002201 0.124271
v -0.372296 -0.002201 0.141483
v -0.438558 0.057159 0.207745
v -0.397482 0.057159 -0.166668
v 0.397481 0.057159 0.166670
v -0.427514 -0.183746 0.196701
v -0.355084 0.031088 0.124271
v -0.372296 -0.002201 0.196701
v -0.355084 -0.002201 0.124271
v -0.310533 0.057159 -0.166668
v -0.397482 0.057159 0.166670
v 0.310534 0.057159 0.166670
v 0.397481 0.057159 0.041667
v -0.372296 -0.183746 0.196701
v -0.372296 -0.183746 0.141483
v -0.410302 0.031088 0.124271
v -0.355084 0.031088 0.179489
v -0.355084 -0.002201 0.179489
v 0.355084 -0.002201 0.179489
v -0.136635 0.057159 -0.166668
v -0.397482 0.057159 -0.041668
v -0.310533 0.057159 0.166670
v 0.136635 0.057159 0.166670
v 0.397481 0.057159 -0.041668
v -0.049685 0.057159 -0.166668
v -0.310533 0.057159 -0.041668
v -0.310533 0.057159 0.041667
v -0.136635 0.057159 0.166670
v 0.049685 0.057159 0.166670
v 0.310534 0.057159 -0.166668
v 0.310534 0.057159 0.041667
v 0.397481 0.057159 -0.166668
v -0.397482 0.057159 0.041667
v 0.049685 0.057159 -0.166668
v -0.136635 0.057159 -0.041668
v -0.049685 0.057159 0.166670
v 0.136635 0.057159 0.041667
v 0.310534 0.057159 -0.041668
v 0.136635 0.057159 -0.166668
v -0.049685 0.057159 -0.041668
v -0.049685 0.057159 0.041667
v 0.049685 0.057159 0.041667
v 0.136635 0.057159 -0.041668
v 0.049685 0.057159 -0.041668
v -0.136635 0.057159 0.041667

# 160 UV coordinates
vt 0 0 0
vt 5.08022 0 0
vt 4.75213 0 0
vt 5.08022 1.36999 0
vt 4.75213 1.07867 0
vt -2.33743 0 0
vt -2.33743 1.36999 0
vt -2.00935 0 0
vt 0.328084 1.07867 0
vt 2.33743 1.07867 0
vt 2.33743 0 0
vt 2.00935 1.07867 0
vt -2.00935 1.07867 0
vt 0 1.36999 0
vt 4.75213 2.33743 0
vt 0.430351 2.23517 0
vt 0.328084 2.33743 0
vt 2.00935 0 0
vt 4.75213 2.00935 0
vt 4.64987 1.90708 0
vt -0.328084 1.07867 0
vt -5.08022 1.07867 0
vt -4.75213 1.07867 0
vt -5.08022 0 0
vt 5.08022 2.33743 0
vt 0 2.33743 0
vt 5.14583 2.40305 0
vt -5.08022 2.33743 0
vt -0.178437 2.159 0
vt 0.430351 1.90708 0
vt 4.64987 2.23517 0
vt -4.75213 0 0
vt 4.97795 1.90708 0
vt 5.08022 0.328084 0
vt 5.08022 2.00935 0
vt 0.328084 0 0
vt 2.33743 1.36999 0
vt -0.065617 2.40305 0
vt 5.14583 -0.065617 0
vt -4.90178 2.159 0
vt 0.328084 2.00935 0
vt -2.23517 1.07867 0
vt -2.23517 1.27646 0
vt -1.90708 1.07867 0
vt -0.430351 1.07867 0
vt -4.64987 1.07867 0
vt -0.430351 1.27646 0
vt 1.90708 1.07867 0
vt 1.90708 1.27646 0
vt 2.23517 1.07867 0
vt -4.97795 1.07867 0
vt -4.64987 1.27646 0
vt -4.90178 0.178437 0
vt 4.97795 0.430351 0
vt -2.33743 1.07867 0
vt 5.14583 1.36999 0
vt -0.065617 1.36999 0
vt 5.14583 1.43136 0
vt -2.40305 1.36999 0
vt -2.40305 1.43136 0
vt 0.065617 1.36999 0
vt -0.178437 0.178437 0
vt 0.102267 1.90708 0
vt -1.90708 1.27646 0
vt 2.23517 1.27646 0
vt -4.97795 1.27646 0
vt -0.328084 0 0
vt -5.08022 1.36999 0
vt 4.75213 0.328084 0
vt 0.430351 1.07867 0
vt 0.430351 1.27646 0
vt 0 2.00935 0
vt 0.102267 0.430351 0
vt 0 0.328084 0
vt -0 1.07867 0
vt -0.065617 -0.065617 0
vt -0.065617 1.43136 0
vt 0.065617 1.43136 0
vt -0.102267 1.07867 0
vt -0.102267 1.27646 0
vt 4.64987 0.102267 0
vt 4.64987 0.430351 0
vt 5.08022 1.07867 0
vt 4.97795 1.07867 0
vt 4.64987 1.07867 0
vt 4.97795 1.27646 0
vt 0.328084 0.328084 0
vt 2.40305 1.36999 0
vt -5.14583 2.40305 0
vt 0.065617 2.40305 0
vt 2.40305 1.43136 0
vt -5.14583 1.43136 0
vt -5.14583 1.36999 0
vt -5.14583 -0.065617 0
vt 0.430351 0.430351 0
vt 4.64987 1.27646 0
vt 0.065617 -0.065617 0
vt -0.695053 2.159 0
vt -4.38516 0.178437 0
vt -4.90178 0.921147 0
vt 0.430351 0.102267 0
vt 0.102267 1.27646 0
vt 0.102267 1.07867 0
vt -1.72828 2.159 0
vt -0.695053 0.178437 0
vt -3.35193 0.178437 0
vt -4.90178 1.41629 0
vt -0.178437 1.41629 0
vt -2.2449 2.159 0
vt -0.695053 1.41629 0
vt -1.72828 0.178437 0
vt -2.83532 0.178437 0
vt -4.38516 2.159 0
vt -4.38516 0.921147 0
vt -0.178437 0.921147 0
vt -2.83532 2.159 0
vt -0.695053 0.921147 0
vt -2.2449 0.178437 0
vt -3.35193 0.921147 0
vt -4.38516 1.41629 0
vt -3.35193 2.159 0
vt -2.2449 1.41629 0
vt -1.72828 1.41629 0
vt -3.35193 1.41629 0
vt -2.2449 0.921147 0
vt -1.72828 0.921147 0
vt -2.83532 1.41629 0
vt -2.83532 0.921147 0
vt -0.118958 1.43933 0
vt -0.118958 0.944191 0
vt -0.463369 1.43933 0
vt -3.26785 0.118958 0
vt -3.26785 0.614098 0
vt -2.92344 0.118958 0
vt -0.463369 0.944191 0
vt -0.463369 0.118958 0
vt -0.463369 0.614098 0
vt -0.118958 0.118958 0
vt -2.92344 0.614098 0
vt -1.15219 1.43933 0
vt -1.15219 0.944191 0
vt -1.4966 1.43933 0
vt -0.118958 0.614098 0
vt -2.23462 0.118958 0
vt -2.23462 0.614098 0
vt -1.89021 0.118958 0
vt -3.26785 0.944191 0
vt -3.26785 1.43933 0
vt -2.92344 0.944191 0
vt -1.4966 0.944191 0
vt -1.4966 0.118958 0
vt -1.4966 0.614098 0
vt -1.15219 0.118958 0
vt -1.89021 0.614098 0
vt -2.92344 1.43933 0
vt -1.89021 1.43933 0
vt -1.89021 0.944191 0
vt -2.23462 1.43933 0
vt -1.15219 0.614098 0
vt -2.23462 0.944191 0

# 6 vertex normals
vn 0 0 0.001
vn -0.001 0 0
vn 0.001 0 0
vn 0 0.001 0
vn 0 0 -0.001
vn 0 -0.001 0

# Mesh 'mesh1_mesh1-geometry' with 188 faces
g mesh1_mesh1-geometry
usemtl material_0_24
f  1/1/1 2/1/1 3/1/1
f  2/1/1 1/1/1 4/1/1
f  5/1/2 1/1/2 3/1/2
f  4/1/1 1/1/1 6/1/1
f  7/1/3 2/1/3 4/1/3
f  8/1/2 1/1/2 5/1/2
f  9/1/1 6/1/1 1/1/1
f  6/1/4 10/1/4 4/1/4
f  2/1/3 7/1/3 11/1/3
f  4/1/4 12/1/4 7/1/4
f  13/1/2 1/1/2 8/1/2
f  5/1/5 7/1/5 8/1/5
f  14/1/1 6/1/1 9/1/1
f  15/1/4 9/1/4 1/1/4
f  16/1/6 9/1/6 1/1/6
f  6/1/4 17/1/4 10/1/4
f  4/1/4 10/1/4 18/1/4
f  7/1/5 5/1/5 11/1/5
f  4/1/4 18/1/4 12/1/4
f  19/1/4 7/1/4 12/1/4
f  13/1/2 20/1/2 1/1/2
f  8/1/4 19/1/4 13/1/4
f  7/1/4 19/1/4 8/1/4
f  6/1/1 14/1/1 21/1/1
f  9/1/3 22/1/3 14/1/3
f  23/1/4 9/1/4 15/1/4
f  15/1/4 1/1/4 24/1/4
f  9/1/6 16/1/6 25/1/6
f  16/1/6 1/1/6 26/1/6
f  27/1/4 17/1/4 6/1/4
f  17/1/2 28/1/2 10/1/2
f  28/1/5 18/1/5 10/1/5
f  18/1/3 29/1/3 12/1/3
f  29/1/5 19/1/5 12/1/5
f  20/1/2 13/1/2 30/1/2
f  20/1/4 24/1/4 1/1/4
f  20/1/6 31/1/6 1/1/6
f  32/1/4 13/1/4 19/1/4
f  33/1/2 6/1/2 21/1/2
f  9/1/3 34/1/3 22/1/3
f  14/1/3 22/1/3 35/1/3
f  9/1/4 23/1/4 25/1/4
f  36/1/1 23/1/1 15/1/1
f  24/1/2 36/1/2 15/1/2
f  37/1/6 25/1/6 16/1/6
f  25/1/3 34/1/3 9/1/3
f  26/1/6 1/1/6 31/1/6
f  27/1/4 38/1/4 17/1/4
f  6/1/2 33/1/2 27/1/2
f  28/1/2 17/1/2 39/1/2
f  18/1/5 28/1/5 40/1/5
f  29/1/3 18/1/3 40/1/3
f  19/1/5 29/1/5 41/1/5
f  42/1/2 30/1/2 13/1/2
f  30/1/5 43/1/5 20/1/5
f  25/1/4 24/1/4 20/1/4
f  20/1/6 37/1/6 31/1/6
f  32/1/4 44/1/4 13/1/4
f  19/1/3 45/1/3 32/1/3
f  34/1/4 46/1/4 22/1/4
f  22/1/5 33/1/5 35/1/5
f  47/1/4 25/1/4 23/1/4
f  23/1/1 36/1/1 48/1/1
f  36/1/2 24/1/2 49/1/2
f  25/1/6 37/1/6 20/1/6
f  25/1/3 50/1/3 34/1/3
f  22/1/4 38/1/4 27/1/4
f  51/1/5 17/1/5 38/1/5
f  33/1/5 22/1/5 27/1/5
f  17/1/5 51/1/5 39/1/5
f  39/1/4 52/1/4 28/1/4
f  28/1/4 52/1/4 40/1/4
f  40/1/4 53/1/4 29/1/4
f  29/1/4 45/1/4 41/1/4
f  45/1/3 19/1/3 41/1/3
f  13/1/1 54/1/1 42/1/1
f  43/1/5 30/1/5 55/1/5
f  20/1/5 43/1/5 25/1/5
f  25/1/4 47/1/4 24/1/4
f  56/1/4 44/1/4 32/1/4
f  54/1/1 13/1/1 44/1/1
f  45/1/1 56/1/1 32/1/1
f  46/1/4 34/1/4 57/1/4
f  38/1/4 22/1/4 46/1/4
f  23/1/3 58/1/3 47/1/3
f  59/1/6 48/1/6 36/1/6
f  58/1/3 23/1/3 48/1/3
f  24/1/5 58/1/5 49/1/5
f  49/1/6 60/1/6 36/1/6
f  50/1/3 25/1/3 61/1/3
f  50/1/1 57/1/1 34/1/1
f  46/1/2 51/1/2 38/1/2
f  51/1/4 62/1/4 39/1/4
f  62/1/4 52/1/4 39/1/4
f  40/1/4 52/1/4 53/1/4
f  29/1/4 53/1/4 45/1/4
f  54/1/3 43/1/3 55/1/3
f  63/1/5 25/1/5 43/1/5
f  58/1/5 24/1/5 47/1/5
f  56/1/4 43/1/4 44/1/4
f  43/1/3 54/1/3 44/1/3
f  56/1/1 45/1/1 53/1/1
f  46/1/4 57/1/4 64/1/4
f  48/1/6 59/1/6 58/1/6
f  59/1/6 36/1/6 65/1/6
f  58/1/6 66/1/6 49/1/6
f  49/1/6 67/1/6 60/1/6
f  68/1/6 36/1/6 60/1/6
f  25/1/5 69/1/5 61/1/5
f  57/1/1 50/1/1 70/1/1
f  51/1/2 46/1/2 71/1/2
f  62/1/4 51/1/4 71/1/4
f  52/1/4 62/1/4 72/1/4
f  52/1/3 56/1/3 53/1/3
f  69/1/5 25/1/5 63/1/5
f  73/1/4 63/1/4 43/1/4
f  74/1/4 43/1/4 56/1/4
f  64/1/4 57/1/4 73/1/4
f  62/1/1 46/1/1 64/1/1
f  66/1/6 58/1/6 59/1/6
f  65/1/6 36/1/6 75/1/6
f  65/1/6 76/1/6 59/1/6
f  49/1/6 66/1/6 77/1/6
f  49/1/6 78/1/6 67/1/6
f  67/1/6 68/1/6 60/1/6
f  79/1/6 36/1/6 68/1/6
f  69/1/2 57/1/2 70/1/2
f  46/1/1 62/1/1 71/1/1
f  62/1/2 73/1/2 72/1/2
f  73/1/1 52/1/1 72/1/1
f  56/1/3 52/1/3 74/1/3
f  57/1/2 69/1/2 63/1/2
f  63/1/4 73/1/4 57/1/4
f  73/1/4 43/1/4 74/1/4
f  73/1/2 62/1/2 64/1/2
f  66/1/6 59/1/6 76/1/6
f  75/1/6 36/1/6 80/1/6
f  65/1/6 75/1/6 81/1/6
f  76/1/6 65/1/6 81/1/6
f  66/1/6 82/1/6 77/1/6
f  49/1/6 77/1/6 83/1/6
f  49/1/6 84/1/6 78/1/6
f  67/1/6 78/1/6 85/1/6
f  68/1/6 67/1/6 86/1/6
f  87/1/6 36/1/6 79/1/6
f  86/1/6 79/1/6 68/1/6
f  52/1/1 73/1/1 74/1/1
f  66/1/6 76/1/6 88/1/6
f  80/1/6 36/1/6 89/1/6
f  80/1/6 90/1/6 75/1/6
f  81/1/6 75/1/6 82/1/6
f  81/1/6 88/1/6 76/1/6
f  82/1/6 66/1/6 88/1/6
f  82/1/6 75/1/6 77/1/6
f  83/1/6 77/1/6 75/1/6
f  49/1/6 83/1/6 91/1/6
f  49/1/6 91/1/6 84/1/6
f  84/1/6 92/1/6 78/1/6
f  92/1/6 85/1/6 78/1/6
f  67/1/6 85/1/6 93/1/6
f  67/1/6 93/1/6 86/1/6
f  85/1/6 36/1/6 87/1/6
f  93/1/6 87/1/6 79/1/6
f  79/1/6 86/1/6 93/1/6
f  89/1/6 36/1/6 94/1/6
f  80/1/6 89/1/6 95/1/6
f  90/1/6 80/1/6 95/1/6
f  83/1/6 75/1/6 90/1/6
f  88/1/6 81/1/6 82/1/6
f  83/1/6 96/1/6 91/1/6
f  84/1/6 91/1/6 89/1/6
f  92/1/6 84/1/6 97/1/6
f  98/1/6 85/1/6 92/1/6
f  87/1/6 93/1/6 85/1/6
f  94/1/6 36/1/6 85/1/6
f  94/1/6 99/1/6 89/1/6
f  95/1/6 89/1/6 96/1/6
f  95/1/6 100/1/6 90/1/6
f  83/1/6 90/1/6 100/1/6
f  96/1/6 83/1/6 100/1/6
f  96/1/6 89/1/6 91/1/6
f  84/1/6 89/1/6 99/1/6
f  84/1/6 99/1/6 97/1/6
f  97/1/6 98/1/6 92/1/6
f  94/1/6 85/1/6 98/1/6
f  99/1/6 94/1/6 98/1/6
f  100/1/6 95/1/6 96/1/6
f  98/1/6 97/1/6 99/1/6

# Mesh 'mesh1_mesh1-geometry' with 172 faces
g mesh1_mesh1-geometry
usemtl material_1_1_8
f  3/2/5 2/3/5 1/4/5
f  4/5/5 1/4/5 2/3/5
f  3/6/3 1/7/3 5/8/3
f  6/9/5 1/4/5 4/5/5
f  4/10/2 2/11/2 7/12/2
f  5/8/3 1/7/3 8/13/3
f  1/4/5 6/9/5 9/14/5
f  4/15/6 10/16/6 6/17/6
f  11/18/2 7/12/2 2/11/2
f  7/19/6 12/20/6 4/15/6
f  8/13/3 1/7/3 13/21/3
f  8/22/1 7/23/1 5/24/1
f  9/14/5 6/9/5 14/1/5
f  1/25/6 9/26/6 15/27/6
f  1/28/4 9/26/4 16/29/4
f  10/16/6 17/30/6 6/17/6
f  18/31/6 10/16/6 4/15/6
f  11/32/1 5/24/1 7/23/1
f  12/20/6 18/31/6 4/15/6
f  12/20/6 7/19/6 19/33/6
f  1/7/3 20/14/3 13/21/3
f  13/34/6 19/33/6 8/35/6
f  8/35/6 19/33/6 7/19/6
f  21/36/5 14/1/5 6/9/5
f  14/11/2 22/12/2 9/37/2
f  15/27/6 9/26/6 23/38/6
f  24/39/6 1/25/6 15/27/6
f  25/1/4 16/29/4 9/26/4
f  26/40/4 1/28/4 16/29/4
f  6/17/6 17/30/6 27/41/6
f  10/42/3 28/43/3 17/44/3
f  10/45/1 18/46/1 28/47/1
f  12/48/2 29/49/2 18/50/2
f  12/46/1 19/51/1 29/52/1
f  30/1/3 13/21/3 20/14/3
f  1/25/6 24/39/6 20/2/6
f  1/28/4 31/53/4 20/24/4
f  19/33/6 13/34/6 32/54/6
f  21/6/3 6/55/3 33/8/3
f  22/12/2 34/9/2 9/37/2
f  35/18/2 22/12/2 14/11/2
f  25/1/6 23/38/6 9/26/6
f  15/56/5 23/57/5 36/58/5
f  15/59/3 36/60/3 24/61/3
f  16/29/4 25/1/4 37/62/4
f  9/37/2 34/9/2 25/14/2
f  31/53/4 1/28/4 26/40/4
f  17/30/6 38/63/6 27/41/6
f  27/13/3 33/8/3 6/55/3
f  39/64/3 17/44/3 28/43/3
f  40/52/1 28/47/1 18/46/1
f  40/65/2 18/50/2 29/49/2
f  41/66/1 29/52/1 19/51/1
f  13/21/3 30/1/3 42/67/3
f  20/68/1 43/23/1 30/24/1
f  20/2/6 24/39/6 25/1/6
f  31/53/4 37/62/4 20/24/4
f  13/34/6 44/69/6 32/54/6
f  32/70/2 45/71/2 19/48/2
f  22/72/6 46/73/6 34/74/6
f  35/1/1 33/67/1 22/75/1
f  23/38/6 25/1/6 47/76/6
f  48/77/5 36/58/5 23/57/5
f  49/78/3 24/61/3 36/60/3
f  20/24/4 37/62/4 25/1/4
f  34/9/2 50/36/2 25/14/2
f  27/41/6 38/63/6 22/72/6
f  38/79/1 17/45/1 51/80/1
f  27/21/1 22/75/1 33/67/1
f  39/47/1 51/80/1 17/45/1
f  28/16/6 52/81/6 39/30/6
f  40/31/6 52/81/6 28/16/6
f  29/20/6 53/82/6 40/31/6
f  41/33/6 45/54/6 29/20/6
f  41/49/2 19/48/2 45/71/2
f  42/2/5 54/3/5 13/83/5
f  55/32/1 30/24/1 43/23/1
f  25/14/1 43/23/1 20/68/1
f  24/39/6 47/76/6 25/1/6
f  32/54/6 44/69/6 56/82/6
f  44/5/5 13/83/5 54/3/5
f  32/84/5 56/85/5 45/86/5
f  57/87/6 34/74/6 46/73/6
f  46/73/6 22/72/6 38/63/6
f  47/57/2 58/77/2 23/88/2
f  36/89/4 48/90/4 59/29/4
f  48/91/2 23/88/2 58/77/2
f  49/92/1 58/78/1 24/93/1
f  36/89/4 60/53/4 49/94/4
f  61/1/2 25/14/2 50/36/2
f  34/75/5 57/9/5 50/1/5
f  38/44/3 51/64/3 46/45/3
f  39/30/6 62/95/6 51/63/6
f  39/30/6 52/81/6 62/95/6
f  53/82/6 52/81/6 40/31/6
f  45/54/6 53/82/6 29/20/6
f  55/1/2 43/75/2 54/36/2
f  43/23/1 25/14/1 63/21/1
f  47/61/1 24/93/1 58/78/1
f  44/69/6 43/3/6 56/82/6
f  44/9/2 54/36/2 43/75/2
f  53/96/5 45/86/5 56/85/5
f  64/95/6 57/87/6 46/73/6
f  58/97/4 59/29/4 48/90/4
f  65/98/4 36/89/4 59/29/4
f  49/94/4 66/62/4 58/97/4
f  60/53/4 67/99/4 49/94/4
f  60/53/4 36/89/4 68/100/4
f  61/1/1 69/67/1 25/14/1
f  70/36/5 50/1/5 57/9/5
f  71/47/3 46/45/3 51/64/3
f  71/73/6 51/63/6 62/95/6
f  72/101/6 62/95/6 52/81/6
f  53/71/2 56/70/2 52/102/2
f  63/21/1 25/14/1 69/67/1
f  43/3/6 63/36/6 73/101/6
f  56/82/6 43/3/6 74/81/6
f  73/101/6 57/87/6 64/95/6
f  64/70/5 46/103/5 62/71/5
f  59/29/4 58/97/4 66/62/4
f  75/104/4 36/89/4 65/98/4
f  77/105/4 66/62/4 49/94/4
f  67/99/4 78/106/4 49/94/4
f  68/100/4 36/89/4 79/107/4
f  70/67/3 57/21/3 69/1/3
f  71/102/5 62/71/5 46/103/5
f  72/80/3 73/79/3 62/47/3
f  72/71/5 52/96/5 73/70/5
f  74/103/2 52/102/2 56/70/2
f  63/75/3 69/1/3 57/21/3
f  57/87/6 73/101/6 63/36/6
f  74/81/6 43/3/6 73/101/6
f  64/45/3 62/47/3 73/79/3
f  76/108/4 59/29/4 66/62/4
f  80/109/4 36/89/4 75/104/4
f  81/110/4 75/104/4 65/98/4
f  83/111/4 77/105/4 49/94/4
f  78/106/4 84/112/4 49/94/4
f  85/113/4 78/106/4 67/99/4
f  79/107/4 36/89/4 87/40/4
f  68/100/4 79/107/4 86/114/4
f  74/85/5 73/70/5 52/96/5
f  88/115/4 76/108/4 66/62/4
f  89/116/4 36/89/4 80/109/4
f  82/117/4 75/104/4 81/110/4
f  76/108/4 88/115/4 81/110/4
f  77/105/4 75/104/4 82/117/4
f  75/104/4 77/105/4 83/111/4
f  91/118/4 83/111/4 49/94/4
f  84/112/4 91/118/4 49/94/4
f  78/106/4 85/113/4 92/119/4
f  93/120/4 85/113/4 67/99/4
f  86/114/4 93/120/4 67/99/4
f  87/40/4 36/89/4 85/113/4
f  93/120/4 86/114/4 79/107/4
f  94/121/4 36/89/4 89/116/4
f  95/122/4 89/116/4 80/109/4
f  90/123/4 75/104/4 83/111/4
f  82/117/4 81/110/4 88/115/4
f  89/116/4 91/118/4 84/112/4
f  92/119/4 85/113/4 98/124/4
f  85/113/4 36/89/4 94/121/4
f  96/125/4 89/116/4 95/122/4
f  90/123/4 100/126/4 95/122/4
f  100/126/4 90/123/4 83/111/4
f  91/118/4 89/116/4 96/125/4
f  99/127/4 89/116/4 84/112/4
f  97/128/4 99/127/4 84/112/4
f  92/119/4 98/124/4 97/128/4
f  98/124/4 85/113/4 94/121/4
f  96/125/4 95/122/4 100/126/4
f  99/127/4 97/128/4 98/124/4

# Mesh 'mesh1_mesh1-geometry' with 16 faces
g mesh1_mesh1-geometry
usemtl material_2_2_8
f  59/129/4 76/130/4 65/131/4
f  60/132/4 68/133/4 67/134/4
f  81/135/4 65/131/4 76/130/4
f  77/136/4 82/137/4 66/138/4
f  86/139/4 67/134/4 68/133/4
f  75/140/4 90/141/4 80/142/4
f  88/143/4 66/138/4 82/137/4
f  78/144/4 92/145/4 84/146/4
f  79/147/4 87/148/4 93/149/4
f  95/150/4 80/142/4 90/141/4
f  91/151/4 96/152/4 83/153/4
f  97/154/4 84/146/4 92/145/4
f  85/155/4 93/149/4 87/148/4
f  89/156/4 99/157/4 94/158/4
f  100/159/4 83/153/4 96/152/4
f  98/160/4 94/158/4 99/157/4

